<svg width="108" height="24" viewBox="0 0 108 24" fill="none" xmlns="http://www.w3.org/2000/svg">
<path d="M22.4329 10.3121L17.7611 14.8661L18.8644 21.2981C18.9124 21.5793 18.7969 21.8636 18.5659 22.0316C18.4354 22.1268 18.2801 22.1748 18.1249 22.1748C18.0056 22.1748 17.8856 22.1463 17.7761 22.0886L11.9996 19.0518L6.22388 22.0878C5.97188 22.2213 5.66513 22.1996 5.43413 22.0308C5.20313 21.8628 5.08763 21.5786 5.13563 21.2973L6.23888 14.8653L1.56638 10.3121C1.36238 10.1126 1.28813 9.81406 1.37663 9.54331C1.46513 9.27256 1.69988 9.07381 1.98263 9.03256L8.43938 8.09506L11.3269 2.24356C11.5796 1.73131 12.4196 1.73131 12.6724 2.24356L15.5599 8.09506L22.0166 9.03256C22.2994 9.07381 22.5341 9.27181 22.6226 9.54331C22.7111 9.81481 22.6369 10.1118 22.4329 10.3121Z" fill="#F75632"/>
<path d="M50.4329 10.3121L45.7611 14.8661L46.8644 21.2981C46.9124 21.5793 46.7969 21.8636 46.5659 22.0316C46.4354 22.1268 46.2801 22.1748 46.1249 22.1748C46.0056 22.1748 45.8856 22.1463 45.7761 22.0886L39.9996 19.0518L34.2239 22.0878C33.9719 22.2213 33.6651 22.1996 33.4341 22.0308C33.2031 21.8628 33.0876 21.5786 33.1356 21.2973L34.2389 14.8653L29.5664 10.3121C29.3624 10.1126 29.2881 9.81406 29.3766 9.54331C29.4651 9.27256 29.6999 9.07381 29.9826 9.03256L36.4394 8.09506L39.3269 2.24356C39.5796 1.73131 40.4196 1.73131 40.6724 2.24356L43.5599 8.09506L50.0166 9.03256C50.2994 9.07381 50.5341 9.27181 50.6226 9.54331C50.7111 9.81481 50.6369 10.1118 50.4329 10.3121Z" fill="#F75632"/>
<path d="M78.4329 10.3121L73.7611 14.8661L74.8644 21.2981C74.9124 21.5793 74.7969 21.8636 74.5659 22.0316C74.4354 22.1268 74.2801 22.1748 74.1249 22.1748C74.0056 22.1748 73.8856 22.1463 73.7761 22.0886L67.9996 19.0518L62.2239 22.0878C61.9719 22.2213 61.6651 22.1996 61.4341 22.0308C61.2031 21.8628 61.0876 21.5786 61.1356 21.2973L62.2389 14.8653L57.5664 10.3121C57.3624 10.1126 57.2881 9.81406 57.3766 9.54331C57.4651 9.27256 57.6999 9.07381 57.9826 9.03256L64.4394 8.09506L67.3269 2.24356C67.5796 1.73131 68.4196 1.73131 68.6724 2.24356L71.5599 8.09506L78.0166 9.03256C78.2994 9.07381 78.5341 9.27181 78.6226 9.54331C78.7111 9.81481 78.6369 10.1118 78.4329 10.3121Z" fill="#F75632"/>
<path d="M106.433 10.3121L101.761 14.8661L102.864 21.2981C102.912 21.5793 102.797 21.8636 102.566 22.0316C102.435 22.1268 102.28 22.1748 102.125 22.1748C102.006 22.1748 101.886 22.1463 101.776 22.0886L95.9996 19.0518L90.2239 22.0878C89.9719 22.2213 89.6651 22.1996 89.4341 22.0308C89.2031 21.8628 89.0876 21.5786 89.1356 21.2973L90.2389 14.8653L85.5664 10.3121C85.3624 10.1126 85.2881 9.81406 85.3766 9.54331C85.4651 9.27256 85.6999 9.07381 85.9826 9.03256L92.4394 8.09506L95.3269 2.24356C95.5796 1.73131 96.4196 1.73131 96.6724 2.24356L99.5599 8.09506L106.017 9.03256C106.299 9.07381 106.534 9.27181 106.623 9.54331C106.711 9.81481 106.637 10.1118 106.433 10.3121Z" fill="#F75632"/>
</svg>
