<svg width="131" height="66" viewBox="0 0 131 66" fill="none" xmlns="http://www.w3.org/2000/svg">
<path d="M114.051 54.4911C113.891 53.8572 113.838 53.2657 113.892 52.7168C113.948 52.1779 114.104 51.6942 114.36 51.2655C114.626 50.8343 114.982 50.4659 115.429 50.1601C115.877 49.8543 116.412 49.6225 117.036 49.4648C117.66 49.307 118.255 49.2476 118.822 49.2863C119.391 49.3352 119.909 49.4773 120.375 49.7127C120.841 49.9481 121.24 50.2755 121.571 50.695C121.904 51.1246 122.148 51.6463 122.304 52.2601C122.449 52.8337 122.483 53.3711 122.406 53.8723C122.329 54.3734 122.139 54.8283 121.836 55.2369C121.542 55.643 121.133 55.9928 120.608 56.2862C120.092 56.577 119.461 56.7902 118.714 56.9256L117.108 50.7635L118.209 50.485L119.537 55.5451L118.75 55.0375C119.339 54.9528 119.796 54.7892 120.12 54.5467C120.454 54.3016 120.671 54.0166 120.771 53.6916C120.881 53.364 120.89 53.0191 120.798 52.6569C120.694 52.2443 120.491 51.91 120.191 51.654C119.901 51.3955 119.528 51.2329 119.072 51.1661C118.629 51.1069 118.116 51.1511 117.532 51.2986C116.656 51.52 116.051 51.8765 115.715 52.3683C115.381 52.8702 115.3 53.4582 115.47 54.1324C115.547 54.4343 115.645 54.6769 115.767 54.8604C115.901 55.0513 116.046 55.202 116.202 55.3123C116.369 55.4201 116.542 55.4939 116.724 55.5337C116.908 55.5836 117.097 55.6108 117.29 55.6153L117.333 57.3711C116.94 57.3847 116.575 57.3378 116.237 57.2305C115.9 57.1231 115.588 56.9503 115.303 56.7119C115.021 56.4835 114.775 56.1872 114.565 55.8227C114.355 55.4582 114.184 55.0144 114.051 54.4911Z" fill="#F3F6B6"/>
<path d="M110.855 44.8206L114.612 43.2315L118.355 41.6485L118.998 43.1684L116.404 44.2315L116.514 44.4896C117.162 44.3168 117.725 44.2363 118.203 44.2481C118.691 44.2559 119.104 44.3798 119.443 44.6199C119.79 44.856 120.065 45.213 120.268 45.691C120.308 45.7866 120.346 45.889 120.381 45.9982C120.42 46.1169 120.448 46.2513 120.467 46.4013L118.529 47.1363C118.522 46.9591 118.493 46.7852 118.444 46.6146C118.408 46.4495 118.361 46.3001 118.305 46.1662C118.147 45.7934 117.914 45.5088 117.606 45.3125C117.301 45.1257 116.936 45.021 116.509 44.9986C116.096 44.9816 115.633 45.0312 115.118 45.1474L111.62 46.6273L110.855 44.8206Z" fill="#F3F6B6"/>
<path d="M107.919 39.99C107.496 39.3116 107.26 38.6275 107.209 37.9376C107.167 37.2422 107.322 36.5773 107.673 35.9431C108.038 35.3121 108.617 34.7497 109.41 34.2558C110.22 33.7509 110.983 33.4836 111.698 33.4539C112.428 33.4275 113.086 33.5919 113.674 33.9471C114.263 34.3022 114.76 34.8058 115.166 35.4577C115.588 36.1361 115.825 36.8203 115.876 37.5102C115.926 38.2001 115.772 38.8649 115.412 39.5047C115.061 40.139 114.485 40.7058 113.683 41.2052C112.873 41.71 112.105 41.9801 111.381 42.0153C110.657 42.0505 109.999 41.8861 109.405 41.5221C108.826 41.1615 108.33 40.6508 107.919 39.99ZM109.229 39.2659C109.459 39.6359 109.738 39.8965 110.064 40.0477C110.4 40.1935 110.78 40.2254 111.206 40.1436C111.637 40.0705 112.091 39.8858 112.567 39.5895C113.069 39.2767 113.45 38.9356 113.709 38.5664C113.982 38.2004 114.131 37.8205 114.154 37.4267C114.184 37.0416 114.072 36.6465 113.82 36.2412C113.6 35.8888 113.32 35.6354 112.979 35.4808C112.647 35.3208 112.27 35.2745 111.847 35.3421C111.43 35.4185 110.975 35.6103 110.481 35.9176C109.706 36.4005 109.213 36.934 109.002 37.5178C108.796 38.1105 108.872 38.6932 109.229 39.2659Z" fill="#F3F6B6"/>
<path d="M96.1721 26.2055L99.7828 22.5286L101.877 20.3958L103.021 21.5193L101.243 23.264L101.443 23.4603C101.968 23.1326 102.451 22.9081 102.89 22.7866C103.344 22.6651 103.762 22.6539 104.145 22.7532C104.527 22.8525 104.878 23.0585 105.196 23.3712C105.552 23.7203 105.764 24.089 105.834 24.4774C105.903 24.8657 105.855 25.2625 105.69 25.6677C105.54 26.0727 105.294 26.4786 104.953 26.8854L105.131 27.06C105.649 26.725 106.135 26.504 106.589 26.3972C107.05 26.2975 107.48 26.3047 107.877 26.4185C108.282 26.5396 108.643 26.7565 108.962 27.0692C109.273 27.3746 109.485 27.7067 109.598 28.0653C109.712 28.4239 109.726 28.8017 109.642 29.1988C109.572 29.5958 109.396 30.0121 109.114 30.4477C108.839 30.8906 108.469 31.349 108.003 31.823L105.003 34.8778L103.593 33.4924L106.418 30.6153C106.825 30.2006 107.126 29.8199 107.321 29.4731C107.524 29.1337 107.616 28.8246 107.599 28.5458C107.597 28.2669 107.481 28.0148 107.251 27.7893C106.992 27.5348 106.682 27.3982 106.322 27.3794C105.963 27.3607 105.574 27.4523 105.158 27.6542C104.749 27.8488 104.34 28.1314 103.933 28.5021L101.271 31.2126L99.8934 29.8599L102.653 27.0494C103.075 26.6199 103.387 26.2281 103.589 25.8739C103.799 25.5124 103.899 25.1885 103.889 24.9024C103.879 24.6162 103.759 24.3604 103.53 24.135C103.263 23.8732 102.946 23.7366 102.579 23.7253C102.219 23.7212 101.831 23.8201 101.415 24.0221C101.006 24.2313 100.605 24.5212 100.212 24.8917L97.5718 27.58L96.1721 26.2055Z" fill="#F3F6B6"/>
<path d="M84.7501 19.0881L86.9986 14.6597L88.4365 11.8277L89.8941 12.5678L88.7247 14.7678L88.9746 14.8947C89.3814 14.4144 89.7805 14.0525 90.1719 13.8089C90.5726 13.57 90.9888 13.4496 91.4205 13.4476C91.8522 13.4456 92.2948 13.5597 92.7483 13.79C93.572 14.2082 94.0486 14.8169 94.1783 15.6161C94.3173 16.42 94.0766 17.4328 93.4563 18.6544L91.4969 22.5137L89.7338 21.6185L91.6017 17.9397C92.0011 17.1531 92.1721 16.5182 92.1147 16.0351C92.0713 15.5474 91.8183 15.1861 91.3555 14.9512C90.9668 14.7538 90.5748 14.7119 90.1796 14.8255C89.789 14.9299 89.4163 15.1481 89.0615 15.4801C88.7206 15.8076 88.4234 16.2096 88.1698 16.6861L86.4993 19.9762L84.7501 19.0881Z" fill="#F3F6B6"/>
<path d="M78.5118 17.0519L79.754 13.1666L80.9915 9.29604L82.5634 9.79861L81.6803 12.4584L81.9473 12.5438C82.2385 11.9395 82.5445 11.4598 82.8651 11.1046C83.1888 10.7396 83.552 10.507 83.9545 10.4068C84.3601 10.2968 84.8101 10.3208 85.3045 10.4788C85.4033 10.5104 85.5056 10.5486 85.6111 10.5932C85.7266 10.641 85.8472 10.7068 85.973 10.7906L85.2683 12.7393C85.1291 12.6294 84.9786 12.5377 84.8168 12.4642C84.6681 12.3839 84.5246 12.3217 84.3862 12.2774C84.0006 12.1542 83.6328 12.1456 83.2829 12.2516C82.9429 12.3608 82.6254 12.5699 82.3305 12.8788C82.0487 13.181 81.7842 13.565 81.5372 14.0309L80.3803 17.6493L78.5118 17.0519Z" fill="#F3F6B6"/>
<path d="M71.5984 15.9219C71.1575 15.8524 70.7757 15.7082 70.4529 15.4892C70.1318 15.2599 69.8954 14.96 69.7436 14.5893C69.6021 14.2203 69.571 13.7846 69.6502 13.2822C69.7164 12.8618 69.8498 12.5151 70.0505 12.242C70.2614 11.9705 70.5403 11.7675 70.8872 11.6331C71.2358 11.4884 71.6555 11.3916 72.1466 11.3429C72.6392 11.284 73.2106 11.2584 73.8608 11.2663C74.2175 11.27 74.5075 11.2632 74.7309 11.2458C74.9646 11.2301 75.1407 11.1791 75.2594 11.0927C75.3797 10.9961 75.4568 10.8401 75.4908 10.6248C75.5408 10.3069 75.4709 10.0175 75.2809 9.75636C75.1027 9.48661 74.7676 9.31297 74.2754 9.23541C73.9781 9.18856 73.6829 9.19459 73.39 9.25349C73.1072 9.31401 72.8507 9.44171 72.6203 9.63657C72.3916 9.82118 72.2131 10.0873 72.0848 10.4348L70.4317 9.62267C70.6091 9.23033 70.8289 8.90246 71.0911 8.63905C71.3549 8.3654 71.6626 8.14596 72.0144 7.98073C72.3662 7.81551 72.7552 7.71394 73.1815 7.67604C73.6077 7.63814 74.0669 7.65796 74.5591 7.73551C75.3075 7.85346 75.9033 8.07343 76.3464 8.39544C76.7911 8.70719 77.091 9.13796 77.2461 9.68777C77.4027 10.2273 77.418 10.897 77.292 11.6967L77.0545 13.2038C76.9996 13.5524 76.9473 13.9172 76.8978 14.2982C76.8602 14.6705 76.8217 15.048 76.7824 15.4306C76.755 15.8045 76.7343 16.169 76.7204 16.5241L74.9826 16.2502C74.9868 15.9567 74.9994 15.6435 75.0203 15.3105C75.0413 14.9776 75.0681 14.6403 75.1009 14.2987L74.8549 14.26C74.6499 14.627 74.3883 14.9535 74.0701 15.2396C73.7534 15.5154 73.3849 15.72 72.9646 15.8534C72.5562 15.9782 72.1008 16.001 71.5984 15.9219ZM72.5927 14.6128C72.7978 14.6451 73.0085 14.6415 73.2249 14.602C73.4515 14.5642 73.6786 14.4897 73.9063 14.3784C74.134 14.2672 74.3511 14.1228 74.5577 13.9452C74.766 13.7574 74.9542 13.5296 75.1225 13.2619L75.3074 11.8883L75.6668 12.008C75.4699 12.1241 75.2368 12.2029 74.9676 12.2445C74.6983 12.2862 74.4169 12.3049 74.1234 12.3006C73.8401 12.298 73.5501 12.3049 73.2533 12.3211C72.9684 12.3288 72.7059 12.361 72.4658 12.4177C72.2273 12.4642 72.0285 12.5589 71.8693 12.702C71.7118 12.8348 71.6113 13.0396 71.5676 13.3164C71.5127 13.665 71.5827 13.9545 71.7775 14.1848C71.9724 14.4152 72.2441 14.5578 72.5927 14.6128Z" fill="#F3F6B6"/>
<path d="M64.5902 15.5584C63.9364 15.5714 63.3483 15.4897 62.8257 15.3132C62.3135 15.1365 61.8774 14.8753 61.5176 14.5295C61.1575 14.1733 60.8791 13.7428 60.6822 13.2381C60.4852 12.7333 60.3804 12.1592 60.3676 11.5158C60.3548 10.8724 60.4312 10.2792 60.5969 9.73602C60.773 9.19268 61.0283 8.72044 61.3629 8.31929C61.6975 7.91813 62.1065 7.60374 62.5899 7.37612C63.0837 7.14828 63.6471 7.02807 64.2801 7.01547C64.8716 7.0037 65.4028 7.09176 65.8737 7.27963C66.3446 7.46751 66.7448 7.75542 67.0744 8.14336C67.4037 8.52092 67.652 8.99871 67.8192 9.57675C67.9862 10.1444 68.0513 10.8075 68.0145 11.5661L61.649 11.7395L61.6263 10.6031L66.8556 10.4524L66.1834 11.1042C66.2339 10.5115 66.1776 10.0299 66.0145 9.65937C65.8512 9.27851 65.6225 9.00276 65.3284 8.83213C65.0341 8.65112 64.7002 8.56433 64.3266 8.57176C63.9012 8.58023 63.5298 8.70181 63.2127 8.93651C62.8953 9.16084 62.6527 9.48749 62.4847 9.91647C62.3269 10.3349 62.254 10.845 62.266 11.4469C62.284 12.3497 62.4946 13.0203 62.8978 13.4587C63.3114 13.8969 63.8658 14.109 64.5611 14.0952C64.8724 14.089 65.1311 14.0475 65.3372 13.9708C65.5535 13.8834 65.733 13.776 65.8758 13.6486C66.0184 13.5108 66.1296 13.3581 66.2093 13.1904C66.2994 13.0225 66.3685 12.8446 66.4167 12.6568L68.1367 13.0119C68.0613 13.3975 67.9332 13.7426 67.7524 14.0473C67.5716 14.3519 67.3329 14.6162 67.0363 14.8401C66.7501 15.0638 66.4058 15.2368 66.0033 15.359C65.6009 15.4812 65.1298 15.5477 64.5902 15.5584Z" fill="#F3F6B6"/>
<path d="M56.1125 16.0481L54.4893 5.11392L56.3989 4.83042L58.0221 15.7646L56.1125 16.0481Z" fill="#F3F6B6"/>
<path d="M48.3415 18.5169C47.5893 18.7871 46.8707 18.8743 46.1856 18.7786C45.497 18.673 44.8796 18.382 44.3334 17.9054C43.7935 17.4156 43.3656 16.7311 43.0498 15.852C42.7269 14.9533 42.6263 14.1513 42.7478 13.4459C42.8756 12.7272 43.1751 12.1178 43.6461 11.6177C44.1172 11.1177 44.7141 10.7378 45.437 10.4781C46.1891 10.2079 46.9077 10.1207 47.5928 10.2164C48.2779 10.3122 48.8953 10.6032 49.445 11.0895C49.9912 11.5661 50.424 12.2488 50.7433 13.1377C51.0662 14.0364 51.1686 14.8433 51.0505 15.5585C50.9324 16.2736 50.633 16.883 50.1522 17.3866C49.6776 17.877 49.0741 18.2537 48.3415 18.5169ZM47.9094 17.084C48.3197 16.9366 48.6331 16.7192 48.8497 16.4318C49.0628 16.1347 49.1742 15.7693 49.1838 15.3358C49.2032 14.8986 49.1182 14.4164 48.9287 13.8889C48.7287 13.3321 48.4755 12.8882 48.169 12.5571C47.8689 12.2127 47.5288 11.9875 47.1488 11.8814C46.7785 11.7718 46.3687 11.7977 45.9194 11.9591C45.5287 12.0995 45.2219 12.32 44.999 12.6206C44.7726 12.9115 44.648 13.2706 44.625 13.6979C44.6119 14.1218 44.7035 14.6072 44.9001 15.1542C45.2089 16.0138 45.6265 16.6082 46.1528 16.9375C46.6889 17.2632 47.2745 17.3121 47.9094 17.084Z" fill="#F3F6B6"/>
<path d="M42.1988 21.1767C41.4411 21.5867 40.7756 21.6872 40.2022 21.4782C39.6239 21.2601 39.1026 20.722 38.6383 19.8639L36.7784 16.427L35.7241 16.9975L35.0105 15.6134L35.7088 15.2355C35.9736 15.0923 36.1476 14.945 36.2309 14.7937C36.3143 14.6424 36.3128 14.4543 36.2266 14.2296L35.8278 13.1L36.8274 12.5591L37.6869 14.1474L39.5765 13.1249L40.3545 14.5627L38.4649 15.5852L40.2581 18.8988C40.4408 19.2366 40.6518 19.4411 40.891 19.5123C41.1392 19.5786 41.4231 19.5252 41.7426 19.3524C41.9161 19.2585 42.0751 19.1489 42.2196 19.0234C42.3684 18.8839 42.4886 18.7244 42.5803 18.545L43.4695 20.1881C43.2359 20.4325 43.0078 20.6327 42.7853 20.7885C42.5769 20.9485 42.3814 21.0779 42.1988 21.1767Z" fill="#F3F6B6"/>
<path d="M33.6132 27.3761L26.8331 18.6456L28.3579 17.4615L35.1379 26.192L33.6132 27.3761Z" fill="#F3F6B6"/>
<path d="M30.6064 30.0156L23.1552 21.8503L24.5813 20.549L32.0324 28.7142L30.6064 30.0156Z" fill="#F3F6B6"/>
<path d="M26.9057 34.261C26.3913 34.8727 25.8139 35.3093 25.1735 35.5709C24.5252 35.8258 23.8451 35.8846 23.1334 35.7472C22.4205 35.5951 21.7065 35.2185 20.9916 34.6173C20.2607 34.0027 19.7706 33.3599 19.5211 32.689C19.2703 32.0035 19.2229 31.3261 19.3787 30.657C19.5345 29.988 19.8596 29.3595 20.3539 28.7716C20.8683 28.16 21.4457 27.7233 22.0861 27.4617C22.7265 27.2001 23.4065 27.1414 24.1262 27.2855C24.8379 27.4229 25.5552 27.7956 26.2781 28.4035C27.0089 29.0181 27.5031 29.6642 27.7605 30.3418C28.0179 31.0193 28.0654 31.6967 27.9029 32.3737C27.7391 33.0361 27.4067 33.6652 26.9057 34.261ZM25.8119 33.2395C26.0925 32.9058 26.2542 32.5603 26.2969 32.203C26.3318 31.8391 26.2444 31.4672 26.0348 31.0875C25.8319 30.6999 25.516 30.3257 25.087 29.965C24.6342 29.5842 24.1921 29.3277 23.7608 29.1956C23.3282 29.0488 22.921 29.025 22.5392 29.1243C22.164 29.2156 21.8228 29.444 21.5155 29.8094C21.2482 30.1272 21.0939 30.472 21.0523 30.844C21.0029 31.2092 21.0756 31.5823 21.2706 31.9632C21.4722 32.3363 21.7955 32.7098 22.2404 33.0839C22.9394 33.6718 23.5992 33.9758 24.2197 33.9958C24.8469 34.0079 25.3777 33.7558 25.8119 33.2395Z" fill="#F3F6B6"/>
<path d="M20.9983 42.4843L17.5045 40.379L14.024 38.2818L14.8757 36.8683L17.26 38.3413L17.4046 38.1013C16.8839 37.6784 16.4877 37.27 16.2161 36.8761C15.9356 36.4769 15.7931 36.0699 15.7885 35.6551C15.775 35.235 15.9022 34.8027 16.1701 34.3582C16.2237 34.2693 16.2843 34.1786 16.3522 34.0862C16.4253 33.9848 16.5172 33.8827 16.6278 33.7796L18.3612 34.915C18.2221 35.0251 18.0982 35.1504 17.9893 35.2908C17.8769 35.417 17.7833 35.5423 17.7083 35.6667C17.4993 36.0134 17.4061 36.3693 17.4286 36.7342C17.4564 37.0903 17.5865 37.4474 17.819 37.8057C18.048 38.1497 18.3607 38.4956 18.757 38.8434L22.0108 40.8041L20.9983 42.4843Z" fill="#F3F6B6"/>
<path d="M19.0903 47.0342C18.8206 47.6864 18.4907 48.2127 18.1005 48.6129C17.7143 49.0036 17.2831 49.2858 16.8069 49.4595C16.3251 49.6197 15.8175 49.6793 15.284 49.6384C14.7506 49.5975 14.2105 49.464 13.6638 49.2379C13.0787 48.9959 12.5733 48.6971 12.1476 48.3413C11.7258 47.976 11.3982 47.5597 11.1646 47.0924C10.931 46.6251 10.8087 46.1197 10.7977 45.576C10.7906 45.0227 10.9121 44.4439 11.162 43.8397C11.4118 43.2354 11.7287 42.7543 12.1126 42.3964C12.5005 42.0289 12.9342 41.7814 13.4137 41.654C13.8836 41.5226 14.3782 41.5081 14.8974 41.6105L14.7277 43.5284C14.432 43.4286 14.1461 43.4002 13.8699 43.4432C13.5842 43.4823 13.3314 43.5912 13.1115 43.7698C12.8916 43.9484 12.7162 44.196 12.5853 44.5125C12.4584 44.8195 12.4097 45.1138 12.4392 45.3956C12.463 45.6638 12.5535 45.9202 12.7107 46.1649C12.8718 46.4 13.0927 46.6262 13.3736 46.8434C13.6488 47.0471 13.9782 47.2282 14.3618 47.3869C14.8894 47.6051 15.3699 47.7196 15.8035 47.7304C16.2371 47.7412 16.6208 47.6416 16.9548 47.4315C17.2792 47.2175 17.5326 46.8899 17.7151 46.4486C17.8777 46.0554 17.9367 45.7091 17.892 45.4098C17.8416 45.097 17.7224 44.8286 17.5341 44.6048C17.3499 44.3713 17.1198 44.1807 16.844 44.033L17.8701 42.5703C18.2395 42.7905 18.5488 43.0476 18.7979 43.3415C19.047 43.6355 19.2319 43.9759 19.3527 44.3628C19.4679 44.7362 19.5065 45.1453 19.4685 45.5901C19.4306 46.0349 19.3045 46.5163 19.0903 47.0342Z" fill="#F3F6B6"/>
<path d="M16.413 55.3297C16.2904 55.8659 16.1237 56.3389 15.9129 56.7486C15.7146 57.1504 15.4846 57.4811 15.223 57.7407C14.9512 57.998 14.6579 58.1865 14.3431 58.3062C14.0182 58.4235 13.6791 58.4631 13.3258 58.425L13.1077 56.794C13.3754 56.8339 13.6363 56.7871 13.8904 56.6535C14.1344 56.5177 14.3541 56.3017 14.5496 56.0057C14.745 55.7097 14.8948 55.334 14.9989 54.8786C15.1145 54.3727 15.1277 53.9658 15.0383 53.6579C14.9412 53.3376 14.7459 53.1439 14.4525 53.0768C14.24 53.0283 14.0557 53.066 13.8996 53.19C13.7334 53.3117 13.5762 53.51 13.4282 53.785C13.2724 54.0475 13.1077 54.3718 12.9343 54.7581C12.7677 55.1139 12.5899 55.4726 12.4009 55.8339C12.204 56.1829 11.9825 56.4996 11.7365 56.784C11.4827 57.0561 11.191 57.2609 10.8614 57.3985C10.524 57.5237 10.1327 57.5354 9.6875 57.4336C9.20182 57.3226 8.81082 57.1001 8.5145 56.7662C8.22049 56.4222 8.02782 55.9842 7.93647 55.4522C7.84744 54.9102 7.88272 54.2901 8.04232 53.5919C8.19266 52.9342 8.41325 52.3884 8.70409 51.9545C8.99724 51.5104 9.35053 51.1759 9.76394 50.951C10.1672 50.7238 10.6109 50.6229 11.0948 50.6484L11.2348 52.3413C10.9446 52.3069 10.6848 52.3487 10.4556 52.4666C10.2162 52.5823 10.0147 52.7651 9.85107 53.0152C9.68743 53.2652 9.56398 53.5724 9.48072 53.9367C9.37432 54.4021 9.372 54.7849 9.47376 55.085C9.57551 55.3851 9.76299 55.5663 10.0362 55.6288C10.2588 55.6797 10.4544 55.6392 10.6229 55.5074C10.7938 55.3654 10.9532 55.157 11.1012 54.882C11.2516 54.597 11.4112 54.2715 11.58 53.9055C11.7535 53.5193 11.9386 53.1517 12.1355 52.8027C12.3246 52.4414 12.5398 52.1286 12.7812 51.8643C13.0226 51.6001 13.3058 51.4093 13.6308 51.2919C13.9456 51.1723 14.3206 51.1621 14.7556 51.2616C15.2818 51.3819 15.6997 51.6265 16.0093 51.9954C16.3088 52.3619 16.4945 52.8303 16.5665 53.4004C16.6307 53.958 16.5795 54.6011 16.413 55.3297Z" fill="#F3F6B6"/>
<path fill-rule="evenodd" clip-rule="evenodd" d="M56.7129 39.9893L64.7573 45.5713L65.1403 45.9544L65.5234 45.5713L73.9987 39.9893L65.1403 50.6843L56.7129 39.9893Z" fill="#F3F6B6"/>
</svg>
