<svg width="868" height="428" viewBox="0 0 868 428" fill="none" xmlns="http://www.w3.org/2000/svg">
<path d="M134.319 336.481C116.068 336.481 99.7125 333.992 85.2536 329.015C71.0318 323.8 58.8247 316.215 48.6323 306.26C38.677 296.067 31.092 283.505 25.8774 268.572C20.6627 253.639 18.0553 236.335 18.0553 216.662C18.0553 196.751 20.6627 179.092 25.8774 163.685C31.3291 148.278 39.0326 135.242 48.9879 124.575C59.1802 113.672 71.1503 105.494 84.8981 100.043C98.6459 94.5909 113.934 91.865 130.764 91.865C143.8 91.865 155.889 93.6428 167.029 97.1982C178.17 100.517 187.77 105.376 195.829 111.776C203.888 118.175 210.169 125.998 214.673 135.242C219.413 144.486 221.902 154.915 222.139 166.53L174.851 178.974C174.851 169.019 172.6 160.723 168.096 154.086C163.829 147.449 158.141 142.471 151.03 139.153C144.156 135.597 136.808 133.82 128.986 133.82C122.112 133.82 115.238 135.242 108.364 138.086C101.727 140.693 95.5645 145.197 89.8757 151.597C84.424 157.76 79.9204 165.937 76.365 176.13C73.0465 186.322 71.3873 198.766 71.3873 213.462C71.3873 232.661 74.1132 248.187 79.5649 260.039C85.2536 271.89 92.9571 280.66 102.675 286.349C112.394 291.801 123.297 294.527 135.386 294.527C148.422 294.527 158.496 291.919 165.607 286.705C172.955 281.253 178.17 274.379 181.251 266.083C184.57 257.55 186.347 248.543 186.584 239.061L231.383 246.528C231.146 259.09 229.25 270.942 225.695 282.082C222.139 292.986 216.569 302.586 208.984 310.882C201.399 318.941 191.444 325.222 179.118 329.726C166.792 334.229 151.859 336.481 134.319 336.481ZM305.006 336.481C283.199 336.481 266.725 329.133 255.585 314.437C244.681 299.504 239.23 276.868 239.23 246.528V144.841H290.428V240.128C290.428 258.379 293.154 272.009 298.606 281.016C304.058 289.786 312.354 294.171 323.494 294.171C330.131 294.171 335.938 292.512 340.916 289.193C345.894 285.875 350.16 281.253 353.716 275.327C357.271 269.401 359.878 262.409 361.538 254.35C363.434 246.291 364.501 237.639 364.738 228.395V144.841H415.936V255.416V331.503H374.693L374.337 273.194H367.938C364.382 287.89 359.878 299.978 354.427 309.46C349.212 318.704 342.457 325.578 334.161 330.081C326.102 334.348 316.383 336.481 305.006 336.481ZM439.893 331.503V77.2876H490.381V331.503H439.893ZM514.46 331.503V144.841H565.659V331.503H514.46ZM540.415 116.753C530.46 116.753 522.757 114.739 517.305 110.709C512.09 106.442 509.483 100.28 509.483 92.2206C509.483 83.9245 512.09 77.6432 517.305 73.3766C522.757 69.1101 530.46 66.9768 540.415 66.9768C550.608 66.9768 558.311 69.1101 563.526 73.3766C568.978 77.6432 571.703 83.9245 571.703 92.2206C571.703 100.043 568.978 106.087 563.526 110.353C558.311 114.62 550.608 116.753 540.415 116.753ZM590.069 331.503V218.44V144.841H632.024L631.668 200.662H638.779C641.86 187.152 646.245 175.893 651.934 166.885C657.623 157.878 664.734 151.123 673.267 146.619C682.037 142.116 692.348 139.864 704.199 139.864C725.769 139.864 742.124 147.449 753.265 162.619C764.642 177.789 770.331 201.61 770.331 234.084V331.503H718.777V239.772C718.777 219.862 715.814 205.403 709.888 196.396C704.199 187.152 695.785 182.529 684.644 182.529C675.163 182.529 667.223 185.492 660.823 191.418C654.423 197.344 649.564 205.166 646.245 214.884C643.164 224.365 641.505 235.032 641.268 246.883V331.503H590.069ZM791.369 331.503V144.841H842.568V331.503H791.369ZM817.324 116.753C807.369 116.753 799.665 114.739 794.213 110.709C788.999 106.442 786.391 100.28 786.391 92.2206C786.391 83.9245 788.999 77.6432 794.213 73.3766C799.665 69.1101 807.369 66.9768 817.324 66.9768C827.516 66.9768 835.22 69.1101 840.434 73.3766C845.886 77.6432 848.612 83.9245 848.612 92.2206C848.612 100.043 845.886 106.087 840.434 110.353C835.22 114.62 827.516 116.753 817.324 116.753Z" fill="black"/>
</svg>
