<svg width="185" height="33" viewBox="0 0 185 33" fill="none" xmlns="http://www.w3.org/2000/svg">
<g clip-path="url(#clip0_3538_2)">
<path d="M16.8673 0.1875L20.4595 11.2432H32.0842L22.6796 18.076L26.2719 29.1318L16.8673 22.299L7.46274 29.1318L11.055 18.076L1.65039 11.2432H13.2751L16.8673 0.1875Z" fill="#1E444C"/>
<path d="M54.8673 0.1875L58.4595 11.2432H70.0842L60.6796 18.076L64.2719 29.1318L54.8673 22.299L45.4627 29.1318L49.055 18.076L39.6504 11.2432H51.2751L54.8673 0.1875Z" fill="#1E444C"/>
<path d="M92.8673 0.1875L96.4595 11.2432H108.084L98.6796 18.076L102.272 29.1318L92.8673 22.299L83.4627 29.1318L87.055 18.076L77.6504 11.2432H89.2751L92.8673 0.1875Z" fill="#1E444C"/>
<path d="M130.867 0.1875L134.459 11.2432H146.084L136.679 18.076L140.272 29.1318L130.867 22.299L121.462 29.1318L125.055 18.076L115.65 11.2432H127.275L130.867 0.1875Z" fill="#1E444C"/>
<path d="M168.867 0.1875L172.459 11.2432H184.084L174.679 18.076L178.272 29.1318L168.867 22.299L159.462 29.1318L163.055 18.076L153.65 11.2432H165.275L168.867 0.1875Z" fill="#1E444C"/>
</g>
<defs>
<clipPath id="clip0_3538_2">
<rect width="184" height="32" fill="white" transform="translate(0.867188 0.1875)"/>
</clipPath>
</defs>
</svg>
