<svg width="131" height="67" viewBox="0 0 131 67" fill="none" xmlns="http://www.w3.org/2000/svg">
<path d="M110.216 56.2817C110.106 55.5978 110.077 54.9787 110.13 54.4243C110.183 53.8699 110.305 53.3822 110.497 52.9613C110.704 52.5509 110.974 52.2147 111.308 51.9526C111.643 51.6905 112.022 51.5056 112.447 51.3979L113.268 52.9802C112.901 53.0397 112.59 53.207 112.336 53.4821C112.082 53.7572 111.906 54.1171 111.809 54.5616C111.727 55.0168 111.734 55.542 111.83 56.1372C111.943 56.8337 112.144 57.3534 112.434 57.6964C112.723 58.0393 113.071 58.178 113.476 58.1124C113.78 58.0631 114.003 57.9165 114.145 57.6725C114.29 57.4412 114.387 57.12 114.438 56.709C114.49 56.3106 114.525 55.8436 114.542 55.308C114.567 54.8231 114.606 54.3361 114.656 53.847C114.722 53.3686 114.83 52.9156 114.982 52.4882C115.136 52.0734 115.364 51.718 115.667 51.422C115.985 51.1367 116.409 50.9509 116.941 50.8647C117.549 50.7663 118.094 50.8405 118.576 51.0873C119.07 51.3321 119.486 51.7326 119.823 52.2888C120.175 52.8556 120.418 53.5569 120.554 54.3927C120.685 55.2031 120.678 55.9191 120.531 56.5406C120.387 57.1748 120.128 57.704 119.755 58.1283C119.382 58.5526 118.911 58.85 118.34 59.0203L117.544 57.3558C117.933 57.2669 118.243 57.0933 118.474 56.8349C118.707 56.5892 118.858 56.2788 118.927 55.9038C119.009 55.5266 119.011 55.0974 118.933 54.6162C118.83 53.9831 118.635 53.5013 118.348 53.171C118.063 52.8534 117.724 52.7263 117.331 52.7899C117.027 52.8392 116.798 52.9868 116.643 53.2328C116.502 53.4895 116.406 53.817 116.353 54.2154C116.316 54.6244 116.286 55.084 116.265 55.5943C116.246 56.1172 116.211 56.6232 116.16 57.1123C116.109 57.6013 116.006 58.0469 115.85 58.449C115.709 58.8617 115.479 59.2045 115.159 59.4772C114.854 59.7605 114.436 59.9452 113.904 60.0314C113.258 60.136 112.678 60.048 112.165 59.7672C111.666 59.4971 111.252 59.0639 110.921 58.4677C110.591 57.8715 110.356 57.1428 110.216 56.2817Z" fill="#1E444C"/>
<path d="M108.383 47.203L121.318 43.1132L121.939 45.0763L109.004 49.1662L108.383 47.203Z" fill="#1E444C"/>
<path d="M105.976 42.2361L115.014 37.9409L115.906 39.8179L106.868 44.1131L105.976 42.2361ZM116.972 38.1608C116.779 37.7552 116.714 37.4097 116.777 37.124C116.852 36.8329 117.057 36.6074 117.394 36.4477C117.718 36.2936 118.017 36.2794 118.29 36.4054C118.562 36.5314 118.795 36.7971 118.988 37.2026C119.186 37.6197 119.248 37.9739 119.173 38.265C119.099 38.5562 118.899 38.7788 118.575 38.933C118.239 39.0927 117.934 39.1096 117.661 38.9836C117.4 38.8522 117.17 38.5779 116.972 38.1608Z" fill="#1E444C"/>
<path d="M100.944 34.9059C100.621 34.4583 100.416 33.9976 100.327 33.5237C100.249 33.0424 100.307 32.5739 100.5 32.1182C100.701 31.673 101.057 31.2667 101.567 30.8992C101.973 30.6068 102.374 30.4284 102.771 30.3642C103.185 30.3028 103.6 30.3519 104.015 30.5112C104.448 30.6735 104.899 30.949 105.369 31.3379C105.85 31.7192 106.373 32.2039 106.939 32.7922C107.253 33.119 107.519 33.3781 107.736 33.5696C107.961 33.7715 108.168 33.8833 108.357 33.9049C108.554 33.9369 108.767 33.8704 108.996 33.7054C109.35 33.4505 109.562 33.1081 109.632 32.6783C109.719 32.2515 109.568 31.7674 109.178 31.2262C108.961 30.9243 108.691 30.66 108.37 30.4331C108.056 30.2167 107.7 30.0854 107.303 30.0393C106.925 29.9961 106.511 30.0805 106.063 30.2926L105.445 28.4139C105.908 28.2226 106.365 28.1223 106.817 28.113C107.279 28.0962 107.727 28.169 108.16 28.3312C108.604 28.486 109.024 28.7289 109.42 29.0598C109.835 29.3937 110.218 29.8052 110.57 30.2944C111.088 31.0126 111.396 31.6921 111.494 32.333C111.592 32.9738 111.473 33.5887 111.139 34.1777C110.822 34.7695 110.279 35.3429 109.508 35.8978L107.853 37.0901C107.51 37.3375 107.149 37.6052 106.772 37.8931C106.412 38.1838 106.047 38.4784 105.677 38.7766C105.325 39.0778 104.992 39.373 104.678 39.6621L103.565 38.1164C103.855 37.8602 104.155 37.5965 104.465 37.3253C104.783 37.0646 105.107 36.8 105.435 36.5317L105.266 36.2976C104.766 36.4368 104.252 36.4911 103.724 36.4604C103.203 36.4402 102.701 36.3035 102.219 36.0505C101.744 35.8078 101.318 35.4263 100.944 34.9059ZM102.682 34.5543C102.84 34.7729 103.034 34.9652 103.264 35.1313C103.502 35.3078 103.773 35.4529 104.076 35.5664C104.397 35.683 104.745 35.7486 105.119 35.7635C105.501 35.7888 105.911 35.7543 106.349 35.6601L107.805 34.5872L108.02 35.0493C107.736 34.9849 107.455 34.8473 107.177 34.6367C106.906 34.4365 106.632 34.199 106.355 33.9242C106.089 33.642 105.812 33.3672 105.524 33.0999C105.255 32.8356 104.974 32.6108 104.683 32.4256C104.409 32.2432 104.127 32.1378 103.838 32.1091C103.556 32.0909 103.259 32.1942 102.947 32.4192C102.562 32.6967 102.351 33.0301 102.315 33.4194C102.29 33.8013 102.412 34.1796 102.682 34.5543Z" fill="#1E444C"/>
<path d="M96.8742 29.8881C96.1444 29.2224 95.7809 28.5263 95.7838 27.7997C95.7962 27.0818 96.1784 26.3105 96.9305 25.4859L100.445 21.6329L99.3498 20.6345L100.532 19.3951L101.243 20.0434C101.49 20.2682 101.709 20.3988 101.901 20.4354C102.102 20.4625 102.312 20.3847 102.531 20.2021L103.672 19.237L104.596 20.0799L103.091 21.7291L105.125 23.5834L103.945 24.8772L101.911 23.0229L98.4622 26.8048C98.1251 27.1744 97.9683 27.5176 97.992 27.8343C98.0156 28.1511 98.1933 28.4607 98.5251 28.7633C98.7052 28.9275 98.9025 29.0728 99.1172 29.1992C99.35 29.3247 99.6079 29.4036 99.8909 29.436L98.5293 30.9288C98.1585 30.7643 97.8374 30.5929 97.5658 30.4147C97.2943 30.2365 97.0637 30.0609 96.8742 29.8881Z" fill="#1E444C"/>
<path d="M88.9562 23.933C88.2713 23.5287 87.7224 23.0706 87.3095 22.5587C86.9032 22.0358 86.6286 21.4789 86.4857 20.8881C86.3494 20.2862 86.3439 19.6647 86.4691 19.0236C86.6009 18.3714 86.8656 17.7084 87.2635 17.0345C87.6613 16.3606 88.1204 15.7974 88.6408 15.3449C89.1677 14.8813 89.7263 14.5407 90.3165 14.3231C90.9179 14.112 91.5411 14.0404 92.1862 14.1084C92.8424 14.1829 93.4964 14.4126 94.1481 14.7973C94.7557 15.156 95.2384 15.575 95.596 16.0542C95.9647 16.54 96.1941 17.0851 96.2842 17.6895C96.3809 18.2829 96.3327 18.9322 96.1397 19.6376C95.9533 20.332 95.5999 21.0694 95.0797 21.8497L88.306 17.9181L88.9712 16.7913L94.6843 20.0969L93.6438 20.4211C94.1014 19.7974 94.3689 19.218 94.4465 18.6828C94.5241 18.1476 94.4591 17.6772 94.2516 17.2717C94.0441 16.8662 93.7249 16.5362 93.2941 16.2819C92.808 15.995 92.3077 15.8709 91.7932 15.9098C91.2962 15.9442 90.8081 16.1402 90.3288 16.4978C89.8495 16.8554 89.4142 17.3657 89.0229 18.0285C88.436 19.0228 88.2135 19.9044 88.3554 20.6734C88.5038 21.4314 88.9868 22.0517 89.8043 22.5343C90.1467 22.7364 90.4623 22.8706 90.751 22.9367C91.0462 22.9918 91.3158 23.002 91.5598 22.9672C91.8103 22.9215 92.0406 22.834 92.2509 22.7049C92.4788 22.5713 92.6878 22.4191 92.878 22.2483L94.237 23.5421C93.8963 23.8922 93.5264 24.1655 93.1274 24.3619C92.746 24.5539 92.3321 24.6745 91.8858 24.7239C91.4461 24.7623 90.9804 24.7183 90.4889 24.592C90.0084 24.4722 89.4975 24.2525 88.9562 23.933Z" fill="#1E444C"/>
<path d="M76.9495 18.931C76.1343 18.7021 75.4893 18.2945 75.0143 17.7081C74.5428 17.1094 74.2585 16.39 74.1612 15.5499C74.0674 14.6975 74.1609 13.771 74.4418 12.7706C74.7157 11.7949 75.1005 10.9702 75.596 10.2965C76.1074 9.61399 76.7079 9.13633 77.3974 8.86355C78.0993 8.59423 78.8701 8.57746 79.71 8.81324C80.3769 9.00048 80.8884 9.29064 81.2444 9.68372C81.6039 10.0644 81.8492 10.5197 81.9802 11.0495C82.1237 11.5828 82.1853 12.1464 82.1651 12.7403L82.5356 12.8443C82.5744 12.4688 82.6167 12.081 82.6624 11.6807C82.7116 11.2682 82.768 10.8776 82.8315 10.509C82.8985 10.1281 82.9718 9.79559 83.0516 9.51152L83.8889 6.52876L85.9269 7.10088L83.5916 15.4193L82.2601 20.162L80.5001 19.6679L81.3231 17.0209L80.9897 16.9273C80.6716 17.4909 80.316 17.9507 79.9229 18.3067C79.5298 18.6627 79.0842 18.8973 78.586 19.0107C78.1002 19.1274 77.5547 19.1009 76.9495 18.931ZM77.9838 17.3826C78.4161 17.5039 78.8267 17.5126 79.2157 17.4086C79.6046 17.3046 79.9553 17.1233 80.2678 16.8645C80.5803 16.6058 80.8441 16.3068 81.0593 15.9675C81.2903 15.6193 81.4526 15.2784 81.5462 14.945L81.619 14.6856C81.6883 14.4386 81.7258 14.1626 81.7315 13.8578C81.753 13.544 81.7295 13.2243 81.661 12.8986C81.6083 12.564 81.51 12.2499 81.3659 11.9563C81.2218 11.6627 81.0206 11.4064 80.7623 11.1873C80.5199 10.9593 80.2196 10.7951 79.8614 10.6945C79.3426 10.5489 78.8626 10.574 78.4212 10.7699C77.9956 10.9569 77.6191 11.2775 77.2917 11.7319C76.9642 12.1863 76.7086 12.7408 76.5249 13.3954C76.3376 14.0623 76.2656 14.675 76.3087 15.2334C76.3676 15.7829 76.538 16.2438 76.8199 16.6161C77.1018 16.9884 77.4898 17.2439 77.9838 17.3826Z" fill="#1E444C"/>
<path d="M62.6864 17.6868C61.8934 17.7488 61.181 17.6887 60.5491 17.5065C59.9162 17.3115 59.3717 17.0131 58.9157 16.6113C58.4586 16.1966 58.0974 15.6909 57.832 15.094C57.5655 14.4843 57.4018 13.7894 57.3408 13.0092C57.2798 12.2291 57.3325 11.5044 57.4989 10.8351C57.6644 10.1531 57.9263 9.55354 58.2848 9.03654C58.656 8.51854 59.1253 8.10225 59.6926 7.78767C60.2727 7.47209 60.9401 7.2848 61.6946 7.22579C62.3981 7.17079 63.0337 7.23689 63.6017 7.42409C64.1824 7.6103 64.6831 7.92501 65.1038 8.36821C65.5235 8.79863 65.8568 9.35804 66.1036 10.0465C66.3495 10.7221 66.4833 11.5287 66.5051 12.4663L58.7017 13.1344L58.5997 11.8299L65.1754 11.2578L64.5094 12.1206C64.5261 11.3472 64.4126 10.7191 64.169 10.2363C63.9254 9.75355 63.6022 9.40566 63.1995 9.19267C62.7969 8.97967 62.3461 8.89267 61.8473 8.93168C61.2846 8.97568 60.8037 9.16126 60.4047 9.48842C60.0174 9.80179 59.7302 10.2424 59.543 10.8104C59.3558 11.3783 59.2922 12.046 59.3522 12.8134C59.4422 13.9644 59.766 14.8141 60.3235 15.3624C60.8801 15.8979 61.6316 16.1287 62.578 16.0547C62.9745 16.0237 63.3099 15.9524 63.5843 15.8409C63.8577 15.7166 64.0843 15.5702 64.2641 15.4017C64.4429 15.2204 64.5814 15.0166 64.6795 14.7902C64.7894 14.5499 64.8732 14.3053 64.931 14.0563L66.7865 14.3359C66.7083 14.8181 66.5623 15.2541 66.3483 15.644C66.1461 16.0201 65.8764 16.3565 65.5393 16.6531C65.2012 16.9369 64.7947 17.1681 64.3197 17.3468C63.8575 17.5245 63.313 17.6378 62.6864 17.6868Z" fill="#1E444C"/>
<path d="M50.3059 20.0225L48.803 15.029L47.4221 10.4409L49.1542 9.91956L50.0603 13.264L50.3735 13.1697C50.2585 12.3871 50.2383 11.6966 50.3127 11.0981C50.3871 10.4997 50.5863 10.0043 50.9104 9.61204C51.2307 9.2075 51.6919 8.91465 52.2938 8.73349C52.4166 8.69652 52.5536 8.662 52.7047 8.62991C52.8558 8.59783 53.0327 8.58477 53.2355 8.59074L53.7756 10.7191C53.5691 10.7008 53.3639 10.709 53.16 10.7436C52.9523 10.7659 52.7687 10.801 52.609 10.8491C52.1176 10.997 51.7425 11.264 51.4836 11.65C51.2209 12.0238 51.0469 12.4915 50.9614 13.0531C50.8844 13.5987 50.8807 14.2094 50.9501 14.8852L52.3143 19.418L50.3059 20.0225Z" fill="#1E444C"/>
<path d="M43.8698 23.3664C43.0315 23.8385 42.1874 24.0782 41.3377 24.0856C40.4879 24.0929 39.6866 23.8596 38.9338 23.3854C38.1921 22.905 37.5412 22.1673 36.981 21.1725C36.4082 20.1553 36.123 19.2043 36.1254 18.3196C36.1278 17.4349 36.3532 16.6455 36.8015 15.9514C37.261 15.251 37.8931 14.6742 38.698 14.221C39.5251 13.7552 40.3605 13.513 41.2039 13.4945C42.0474 13.4759 42.8455 13.7037 43.5984 14.1778C44.3624 14.6457 45.0308 15.3882 45.6036 16.4054C46.17 17.4115 46.4552 18.3624 46.4592 19.2583C46.4679 20.1367 46.2426 20.9261 45.7831 21.6265C45.3236 22.3269 44.6858 22.9069 43.8698 23.3664ZM43.1249 21.8866C43.6279 21.6034 43.9922 21.2437 44.2177 20.8075C44.4432 20.3714 44.522 19.8706 44.4539 19.3053C44.3859 18.74 44.1725 18.1388 43.8137 17.5016C43.4423 16.8421 43.0239 16.3343 42.5583 15.9781C42.0864 15.6107 41.5881 15.4055 41.0633 15.3624C40.5496 15.3131 40.0245 15.4394 39.488 15.7416C39.0073 16.0122 38.6486 16.3688 38.4119 16.8112C38.1801 17.2362 38.0982 17.7314 38.1663 18.2967C38.228 18.8508 38.4414 19.452 38.8065 20.1004C39.3793 21.1176 40.0466 21.7797 40.8085 22.0869C41.5703 22.394 42.3425 22.3272 43.1249 21.8866Z" fill="#1E444C"/>
<path d="M36.0109 29.6431L27.2906 19.2511L28.8679 17.9275L37.5882 28.3196L36.0109 29.6431Z" fill="#1E444C"/>
<path d="M30.3669 40.67L24.0574 35.5582L20.1401 32.3845L21.2788 30.979L23.2908 32.6834L23.4996 32.4563C23.1199 31.9671 22.8545 31.4796 22.7032 30.9938C22.542 30.5 22.5089 30.0109 22.6041 29.5267C22.6974 29.0243 22.9378 28.534 23.3254 28.0555C23.8907 27.3578 24.5416 26.911 25.2781 26.7152C26.0227 26.5095 26.8009 26.5373 27.6127 26.7988C28.4326 27.0503 29.2412 27.4991 30.0386 28.1451C30.8161 28.775 31.4169 29.4599 31.8411 30.1998C32.2634 30.9217 32.4642 31.6622 32.4434 32.4214C32.4128 33.1726 32.1228 33.887 31.5737 34.5648C31.1457 35.0931 30.6857 35.4469 30.1937 35.6262C29.6918 35.7974 29.1776 35.8513 28.651 35.7879C28.1145 35.7165 27.5835 35.5669 27.058 35.3393L26.84 35.6084C27.1576 35.7667 27.477 35.9429 27.7984 36.1373C28.1098 36.3235 28.4171 36.5147 28.7205 36.711C29.0238 36.9072 29.3 37.1062 29.5492 37.3081L31.6873 39.0403L30.3669 40.67ZM29.8255 33.9409C30.1566 33.5323 30.3206 33.0955 30.3174 32.6307C30.3124 32.1478 30.1661 31.6661 29.8786 31.1854C29.591 30.7048 29.1831 30.2505 28.6549 29.8225C28.1066 29.3783 27.5686 29.0745 27.0407 28.9109C26.5208 28.7374 26.0342 28.7064 25.5807 28.8178C25.1172 28.9211 24.724 29.1721 24.401 29.5708C24.1183 29.9197 23.9477 30.2933 23.8892 30.6916C23.8306 31.09 23.8542 31.4888 23.9599 31.8881C24.0637 32.2695 24.2298 32.6351 24.458 32.9851C24.6843 33.3171 24.9421 33.6002 25.2311 33.8344L25.4554 34.0161C25.6547 34.1776 25.8933 34.3213 26.171 34.4473C26.4487 34.5732 26.7466 34.6742 27.0647 34.7503C27.3908 34.8164 27.7222 34.8455 28.0589 34.8376C28.3936 34.8116 28.7137 34.7325 29.019 34.6001C29.3225 34.4497 29.5913 34.23 29.8255 33.9409Z" fill="#1E444C"/>
<path d="M22.9793 49.5926L19.676 44.5598L13.7563 45.712L14.7009 43.479L19.1811 43.0132L19.2935 42.7474L16.4926 39.2434L17.4447 36.9927L20.7405 42.0432L26.6828 40.8378L25.7307 43.0886L21.2178 43.5823L21.1128 43.8304L23.9239 47.3596L22.9793 49.5926Z" fill="#1E444C"/>
<path d="M21.8582 54.9038C21.7437 55.6909 21.5279 56.3725 21.2108 56.9486C20.8809 57.5229 20.4697 57.9881 19.9771 58.3442C19.4719 58.6985 18.8989 58.9392 18.2581 59.0664C17.6047 59.1917 16.8908 59.1981 16.1164 59.0854C15.342 58.9728 14.6468 58.7614 14.0307 58.4514C13.402 58.1396 12.8751 57.7518 12.4499 57.2881C12.0266 56.8117 11.7241 56.2621 11.5425 55.6394C11.3627 55.0039 11.3273 54.3117 11.4362 53.5627C11.5378 52.8645 11.7425 52.2591 12.0505 51.7464C12.3602 51.2211 12.7777 50.8022 13.3028 50.4897C13.8152 50.1753 14.4344 49.9737 15.1603 49.8848C15.8735 49.7942 16.6898 49.8416 17.6091 50.0272L16.5388 57.7857L15.2439 57.5973L16.137 51.0575L16.8315 51.8975C16.0809 51.7105 15.4432 51.6826 14.9186 51.8137C14.3939 51.9448 13.9833 52.1832 13.6867 52.5289C13.3901 52.8747 13.2058 53.2951 13.1338 53.7902C13.0525 54.3488 13.1274 54.8588 13.3584 55.3202C13.5786 55.767 13.945 56.1444 14.4577 56.4524C14.9703 56.7603 15.6075 56.9696 16.3692 57.0804C17.5117 57.2466 18.4119 57.1183 19.0697 56.6955C19.7149 56.2708 20.1058 55.5887 20.2424 54.6493C20.2997 54.2558 20.3042 53.9129 20.2559 53.6207C20.195 53.3266 20.1022 53.0733 19.9776 52.8607C19.8402 52.6463 19.672 52.4663 19.4728 52.3206C19.2628 52.1604 19.0427 52.0247 18.8126 51.9134L19.4946 50.1654C19.9477 50.3479 20.3408 50.5866 20.6739 50.8814C20.9961 51.1616 21.2646 51.4988 21.4795 51.8931C21.6817 52.2854 21.8175 52.733 21.887 53.2357C21.9583 53.7257 21.9487 54.2818 21.8582 54.9038Z" fill="#1E444C"/>
<path fill-rule="evenodd" clip-rule="evenodd" d="M60.0068 54.1666L65.5889 46.1223L65.972 45.7392L65.5889 45.3561L60.0068 36.8809L70.7019 45.7392L60.0068 54.1666Z" fill="#1E444C"/>
</svg>
