<svg width="93" height="93" viewBox="0 0 93 93" fill="none" xmlns="http://www.w3.org/2000/svg">
<path d="M40.0207 12.3503C39.4294 12.4621 38.8846 12.4361 38.3863 12.2725C37.8957 12.1073 37.4772 11.8118 37.1307 11.3857C36.7905 10.9504 36.5557 10.3904 36.4263 9.70569C36.2924 8.99767 36.3097 8.38598 36.4782 7.87061C36.6545 7.35377 36.9462 6.93598 37.3533 6.61725C37.7605 6.29852 38.2441 6.0862 38.8043 5.98029C39.3801 5.87143 39.9164 5.89494 40.4133 6.05082C40.9101 6.2067 41.3318 6.49767 41.6783 6.92373C42.0326 7.34832 42.2759 7.91074 42.4083 8.61098C42.5421 9.319 42.5217 9.93532 42.3469 10.4599C42.1784 10.9753 41.8905 11.3924 41.4834 11.7111C41.0763 12.0298 40.5887 12.2429 40.0207 12.3503ZM39.8777 11.3378C40.2278 11.2716 40.5119 11.1332 40.73 10.9228C40.9466 10.7045 41.0909 10.4234 41.1628 10.0794C41.2348 9.7354 41.2296 9.34555 41.1472 8.90984C41.0604 8.45079 40.9161 8.07112 40.7143 7.77082C40.511 7.46274 40.2601 7.24423 39.9618 7.11529C39.6697 6.97711 39.3369 6.94332 38.9635 7.01392C38.6211 7.07865 38.3409 7.21624 38.1229 7.4267C37.9048 7.63716 37.7551 7.91124 37.6739 8.24894C37.6005 8.58516 37.6072 8.9828 37.694 9.44184C37.8278 10.1499 38.0871 10.669 38.4719 10.9991C38.8644 11.3279 39.333 11.4407 39.8777 11.3378Z" fill="#1E444C"/>
<path d="M33.4045 14.2891C32.9507 14.4762 32.5209 14.5763 32.1152 14.5894C31.7064 14.5952 31.33 14.5234 30.9858 14.3741C30.6386 14.2175 30.3303 13.9891 30.061 13.6891C29.7887 13.3817 29.5605 13.0047 29.3764 12.5581C29.1892 12.1043 29.0773 11.6665 29.0405 11.2449C29.008 10.8129 29.0516 10.4095 29.1711 10.0348C29.2907 9.66 29.4887 9.33 29.7651 9.04476C30.0458 8.74919 30.4021 8.51237 30.834 8.3343C31.2293 8.17133 31.6115 8.09084 31.9806 8.09284C32.357 8.09182 32.7109 8.18147 33.0422 8.36179C33.3778 8.53177 33.6835 8.79545 33.9593 9.15281C34.232 9.50285 34.4639 9.95111 34.655 10.4976L30.1884 12.3775L29.8805 11.6308L33.6444 10.0406L33.4172 10.6738C33.2801 10.2165 33.0941 9.86921 32.8592 9.632C32.6244 9.39478 32.3685 9.2519 32.0916 9.20335C31.8116 9.14748 31.5288 9.17839 31.2433 9.29609C30.9212 9.42889 30.6741 9.62926 30.5019 9.89723C30.3371 10.1622 30.2537 10.4792 30.2517 10.8483C30.2467 11.2101 30.3362 11.6143 30.5203 12.0608C30.7919 12.7197 31.1435 13.1571 31.5752 13.3732C32.0038 13.5819 32.489 13.5745 33.0307 13.3512C33.2503 13.2607 33.4301 13.1566 33.57 13.0389C33.707 12.914 33.8122 12.7849 33.8858 12.6518C33.9637 12.5084 34.0099 12.3608 34.0245 12.2092C34.0464 12.0546 34.0507 11.8987 34.0372 11.7415L35.18 11.553C35.2155 11.8467 35.211 12.1269 35.1668 12.3935C35.1226 12.6601 35.0281 12.9089 34.8835 13.1398C34.7389 13.3707 34.5441 13.5838 34.2991 13.779C34.0614 13.9712 33.7633 14.1412 33.4045 14.2891Z" fill="#1E444C"/>
<path d="M26.3817 18.1148C25.943 18.4132 25.4909 18.5581 25.0252 18.5493C24.5616 18.5295 24.1089 18.3779 23.6669 18.0944C23.2271 17.7999 22.8268 17.3875 22.4659 16.8572C22.114 16.34 21.8808 15.8283 21.7662 15.3221C21.6471 14.8093 21.6602 14.3359 21.8054 13.9018C21.9572 13.4633 22.2557 13.0926 22.7008 12.7897C23.0543 12.5492 23.3947 12.423 23.7218 12.4111C24.0445 12.3927 24.3569 12.4578 24.6592 12.6065C24.9636 12.7441 25.252 12.9358 25.5245 13.1814L25.7209 13.0477C25.559 12.8802 25.3926 12.706 25.2218 12.5254C25.0465 12.3381 24.8845 12.1563 24.7357 11.9798C24.5824 11.7968 24.4545 11.63 24.3521 11.4794L23.2763 9.89843L24.3565 9.16344L27.3566 13.5725L29.0738 16.0962L28.1409 16.7309L27.2247 15.3L27.0479 15.4203C27.1832 15.788 27.2568 16.1354 27.2687 16.4625C27.2805 16.7896 27.2142 17.0933 27.0697 17.3736C26.9318 17.6494 26.7024 17.8965 26.3817 18.1148ZM26.0615 17.0109C26.2907 16.855 26.458 16.6645 26.5634 16.4395C26.6645 16.208 26.7182 15.9703 26.7247 15.7264C26.7267 15.476 26.6904 15.2326 26.6157 14.9961C26.543 14.7486 26.4466 14.5365 26.3263 14.3597L26.2261 14.2124C26.137 14.0815 26.0216 13.9541 25.8799 13.8303C25.7402 13.6954 25.5799 13.5795 25.3989 13.4823C25.2244 13.3808 25.0392 13.3057 24.8433 13.257C24.6429 13.2018 24.4397 13.1916 24.2335 13.2265C24.0295 13.2504 23.8326 13.327 23.6427 13.4562C23.3678 13.6432 23.1888 13.8799 23.1059 14.1662C23.0295 14.4481 23.0335 14.7566 23.118 15.0918C23.2024 15.4271 23.3627 15.7681 23.5988 16.1151C23.8393 16.4686 24.0978 16.7429 24.3741 16.9379C24.6571 17.1285 24.9447 17.2345 25.237 17.2559C25.5248 17.2708 25.7997 17.1891 26.0615 17.0109Z" fill="#1E444C"/>
<path d="M22.1326 21.425L17.9236 16.905L18.8624 16.0308L23.0714 20.5508L22.1326 21.425ZM17.6807 15.703C17.4721 15.8972 17.2779 16.0024 17.098 16.0184C16.9128 16.0286 16.7446 15.9526 16.5935 15.7903C16.437 15.6222 16.3705 15.4462 16.3938 15.2621C16.423 15.0727 16.5361 14.8862 16.7331 14.7028C16.9417 14.5085 17.1387 14.4063 17.3239 14.3961C17.5149 14.3805 17.6887 14.4567 17.8452 14.6247C17.9963 14.787 18.0573 14.9628 18.0281 15.1523C17.9993 15.3305 17.8835 15.5141 17.6807 15.703Z" fill="#1E444C"/>
<path d="M18.681 25.2769L12.5384 23.0656L13.4358 21.9583L18.3833 23.9653L18.4954 23.8269L15.4999 19.4116L16.3824 18.3228L19.8103 23.8835L18.681 25.2769Z" fill="#1E444C"/>
<path d="M13.0729 35.6748L9.55382 34.2078L5.33309 32.4482L5.83581 31.2423L7.62277 31.9873C7.77625 32.0512 7.93552 32.1219 8.10057 32.1993C8.25831 32.2736 8.41666 32.3568 8.57562 32.4488C8.72727 32.5378 8.88258 32.6282 9.04153 32.7203C9.19318 32.8092 9.34696 32.9033 9.50288 33.0027L9.58971 32.7944C9.23039 32.5245 8.94904 32.2528 8.74565 31.9792C8.53799 31.6954 8.41653 31.4002 8.38126 31.0938C8.34172 30.7771 8.3966 30.4397 8.5459 30.0815C8.82011 29.4238 9.25447 29.0301 9.84897 28.9004C10.4362 28.7678 11.1866 28.8918 12.1001 29.2727L15.2026 30.5661L14.7045 31.761L11.7555 30.5316C11.1123 30.2635 10.5998 30.1657 10.2178 30.2381C9.82862 30.3074 9.55326 30.5358 9.39178 30.9232C9.25772 31.2447 9.24001 31.5548 9.33863 31.8533C9.44029 32.1444 9.62602 32.4192 9.8958 32.6775C10.1656 32.9358 10.4938 33.167 10.8806 33.3711L13.5665 34.4908L13.0729 35.6748Z" fill="#1E444C"/>
<path d="M12.2752 39.6764C12.1721 40.2049 12.0018 40.6436 11.7642 40.9926C11.5282 41.3338 11.243 41.5968 10.9084 41.7816C10.5738 41.9664 10.2086 42.0807 9.81286 42.1245C9.4093 42.1667 8.99768 42.1469 8.57801 42.065C8.11948 41.9756 7.70805 41.8307 7.34373 41.6306C6.97164 41.4289 6.6622 41.1749 6.4154 40.8685C6.16084 40.5607 5.98759 40.2082 5.89566 39.8111C5.80373 39.414 5.80478 38.9745 5.8988 38.4927C5.9898 38.0264 6.15178 37.6304 6.38474 37.3047C6.60994 36.9776 6.8883 36.7294 7.21983 36.5601C7.55137 36.3908 7.91825 36.3091 8.32048 36.315L8.46149 37.5769C8.23157 37.5562 8.00884 37.5813 7.79332 37.6522C7.57779 37.7231 7.39591 37.849 7.24768 38.0298C7.09167 38.2091 6.98486 38.4464 6.92723 38.7418C6.87415 39.0138 6.8823 39.2614 6.95167 39.4847C7.01479 39.6987 7.13449 39.8915 7.31077 40.063C7.47928 40.2331 7.68883 40.3788 7.93942 40.5004C8.19001 40.6219 8.47463 40.7137 8.79327 40.7759C9.22848 40.8608 9.61754 40.8722 9.96044 40.81C10.3033 40.7479 10.5884 40.6099 10.8157 40.396C11.0445 40.1745 11.1976 39.8655 11.2749 39.4691C11.3371 39.1505 11.3304 38.8749 11.2547 38.6423C11.1806 38.4019 11.0578 38.2045 10.8863 38.05C10.7069 37.894 10.4928 37.7716 10.244 37.6827L10.7211 36.6019C11.0384 36.7123 11.3109 36.8663 11.5385 37.064C11.7677 37.2539 11.9497 37.479 12.0844 37.7393C12.2192 37.9995 12.3037 38.2903 12.3378 38.6116C12.3719 38.9329 12.351 39.2878 12.2752 39.6764Z" fill="#1E444C"/>
<path d="M11.581 44.9308C11.5623 45.5481 11.3824 45.9982 11.0411 46.281C10.6998 46.5638 10.1849 46.6948 9.49634 46.674L6.26715 46.5765L6.23955 47.4907L5.19517 47.4472L5.21345 46.8418C5.21967 46.636 5.19255 46.4846 5.1321 46.3878C5.06398 46.2827 4.94321 46.2157 4.76981 46.1867L3.84773 46.0281L3.87104 45.2564L5.26006 45.2984L5.31133 43.6007L6.39168 43.6333L6.34041 45.331L9.49837 45.4264C9.79913 45.4355 10.0229 45.3709 10.1697 45.2328C10.3085 45.0944 10.3821 44.8867 10.3905 44.6097C10.395 44.4593 10.3798 44.3083 10.3447 44.1567C10.31 43.9972 10.2433 43.8447 10.1447 43.6991L11.4031 43.7371C11.4751 43.977 11.5239 44.1963 11.5496 44.3951C11.5753 44.5939 11.5857 44.7725 11.581 44.9308Z" fill="#1E444C"/>
<path d="M12.0225 52.3875C12.0682 52.725 12.0463 53.0355 11.9568 53.3193C11.8595 53.6042 11.692 53.8425 11.4542 54.0345C11.2154 54.2186 10.9038 54.3367 10.5193 54.3887C10.2133 54.4301 9.94299 54.4107 9.70842 54.3305C9.466 54.2515 9.25433 54.1043 9.0734 53.8891C8.88463 53.6749 8.71483 53.3942 8.56401 53.047C8.41318 52.6999 8.27295 52.2834 8.14332 51.7975C8.06694 51.5282 7.99746 51.3099 7.93488 51.1425C7.87124 50.9674 7.79095 50.8464 7.69403 50.7796C7.59604 50.7049 7.4568 50.6798 7.27633 50.7042C7.00953 50.7403 6.79471 50.8653 6.63186 51.079C6.46794 51.285 6.41357 51.592 6.46876 52C6.49953 52.2276 6.56954 52.4498 6.67879 52.6668C6.78697 52.8759 6.94244 53.0506 7.14521 53.191C7.33906 53.3246 7.58879 53.3987 7.8944 53.4133L7.67375 54.6177C7.36602 54.5874 7.08777 54.5092 6.83898 54.383C6.5902 54.2569 6.37195 54.0906 6.18424 53.8843C5.98762 53.6712 5.82938 53.4169 5.70952 53.1215C5.58076 52.8193 5.49091 52.4798 5.43997 52.1032C5.36674 51.5618 5.39649 51.1023 5.52921 50.7248C5.65409 50.3483 5.89318 50.0483 6.24648 49.8247C6.59087 49.5944 7.05733 49.4394 7.64584 49.3598L8.89349 49.1911C9.15244 49.1561 9.42654 49.115 9.71582 49.0679C9.99618 49.014 10.2805 48.9596 10.5687 48.9046C10.848 48.8429 11.115 48.7788 11.3697 48.7124L11.5273 49.8776C11.2951 49.933 11.0589 49.9889 10.8188 50.0453C10.5709 50.1028 10.318 50.153 10.0601 50.1959L10.084 50.3725C10.3903 50.4509 10.6827 50.5751 10.9614 50.7452C11.2391 50.9074 11.4721 51.1236 11.6604 51.3938C11.8488 51.6639 11.9695 51.9952 12.0225 52.3875ZM10.9733 52.074C10.9511 51.9092 10.9013 51.7481 10.8241 51.5908C10.7458 51.4256 10.6406 51.268 10.5085 51.1181C10.3685 50.9692 10.2021 50.8319 10.0093 50.7062C9.80865 50.5815 9.57536 50.4812 9.3094 50.4053L8.18105 50.5699L8.19851 50.2559C8.33425 50.3734 8.44731 50.5299 8.53768 50.7254C8.62804 50.9209 8.70876 51.1338 8.77983 51.3639C8.84199 51.5872 8.91253 51.8133 8.99145 52.0424C9.06252 52.2725 9.15003 52.4764 9.25397 52.6541C9.35006 52.8329 9.47668 52.9716 9.63385 53.0702C9.7821 53.162 9.97393 53.192 10.2093 53.1601C10.4997 53.1209 10.7111 53.0004 10.8436 52.7987C10.9683 52.598 11.0115 52.3565 10.9733 52.074Z" fill="#1E444C"/>
<path d="M15.0009 62.4248L9.84904 66.1898L9.35483 64.942L13.7009 62.0454L13.6265 61.8577L8.42763 62.6009L7.83283 61.0991L12.1264 58.07L12.0521 57.8822L6.90564 58.758L6.42017 57.5322L12.7529 56.7487L13.4177 58.4273L9.10222 61.4011L9.16345 61.5557L14.3361 60.7463L15.0009 62.4248Z" fill="#1E444C"/>
<path d="M20.0389 69.48C20.4319 69.9357 20.6825 70.4202 20.7905 70.9335C20.8934 71.4407 20.8473 71.951 20.6522 72.4644C20.4459 72.9769 20.0789 73.4607 19.5513 73.9158C19.0056 74.3864 18.4675 74.6779 17.9371 74.7903C17.4015 74.8967 16.8938 74.8536 16.4139 74.6609C15.9341 74.4683 15.508 74.1561 15.1357 73.7244C14.753 73.2806 14.5046 72.8047 14.3906 72.2966C14.2765 71.7885 14.317 71.2778 14.5122 70.7645C14.7021 70.2452 15.0669 69.7528 15.6066 69.2873C16.1522 68.8167 16.6959 68.5257 17.2375 68.4141C17.7679 68.3017 18.273 68.3418 18.7529 68.5344C19.2327 68.7271 19.6614 69.0423 20.0389 69.48ZM19.2343 70.1111C19.0016 69.8413 18.7396 69.6647 18.4482 69.5814C18.1508 69.5033 17.8352 69.5193 17.5014 69.6294C17.1677 69.7395 16.8329 69.9394 16.4971 70.229C16.1433 70.5341 15.887 70.8492 15.7283 71.1743C15.5635 71.5046 15.5001 71.8312 15.538 72.154C15.5648 72.476 15.7022 72.7809 15.9505 73.0687C16.178 73.3326 16.4375 73.5061 16.7289 73.5894C17.0203 73.6727 17.3325 73.6649 17.6654 73.5659C17.9932 73.461 18.334 73.256 18.6877 72.9509C19.2334 72.4803 19.5527 71.9958 19.6457 71.4974C19.7335 70.9929 19.5963 70.5309 19.2343 70.1111Z" fill="#1E444C"/>
<path d="M25.0332 74.2342C25.4225 74.5332 25.7245 74.855 25.9391 75.1996C26.1489 75.5504 26.2754 75.9122 26.3187 76.2848C26.3571 76.6638 26.3139 77.045 26.1892 77.4284C26.0596 77.8181 25.8477 78.2045 25.5535 78.5876C25.2545 78.9769 24.9317 79.2931 24.5852 79.5362C24.2277 79.7808 23.8568 79.9452 23.4725 80.0295C23.0883 80.1138 22.7035 80.1078 22.3182 80.0115C21.9218 79.9167 21.5383 79.727 21.1678 79.4425C20.8287 79.182 20.5675 78.8916 20.3843 78.5711C20.1948 78.2459 20.0951 77.8947 20.0851 77.5177C20.0641 77.1421 20.1391 76.7454 20.3102 76.3277C20.4765 75.9162 20.7482 75.4909 21.1254 75.0518L24.9903 77.9753L24.4984 78.6159L21.2363 76.1554L21.8981 76.0347C21.571 76.3825 21.3637 76.7175 21.2761 77.0396C21.1884 77.3616 21.193 77.6547 21.2897 77.9187C21.3817 78.189 21.5501 78.4182 21.795 78.6063C22.0713 78.8185 22.3686 78.932 22.6867 78.9467C22.9986 78.9566 23.3148 78.87 23.6352 78.6868C23.9508 78.5098 24.2557 78.2298 24.55 77.8468C24.984 77.2816 25.1864 76.7581 25.1571 76.2763C25.1229 75.8008 24.8735 75.3846 24.4088 75.0276C24.2204 74.8829 24.0403 74.7795 23.8683 74.7174C23.6916 74.6615 23.5272 74.6351 23.3751 74.6381C23.2119 74.6425 23.0611 74.6764 22.9226 74.7398C22.7778 74.7983 22.6407 74.8728 22.5114 74.9631L21.7757 74.0686C22.0121 73.8908 22.2568 73.7542 22.5097 73.6589C22.7626 73.5636 23.0252 73.5207 23.2975 73.5301C23.5698 73.5396 23.8518 73.6014 24.1435 73.7156C24.4289 73.825 24.7255 73.9979 25.0332 74.2342Z" fill="#1E444C"/>
<path d="M31.8603 78.3956C32.3383 78.6257 32.6902 78.9444 32.916 79.3518C33.1312 79.7629 33.2268 80.2307 33.2028 80.7552C33.1683 81.2834 33.012 81.8365 32.7339 82.4145C32.4627 82.9781 32.1367 83.4364 31.756 83.7892C31.3719 84.1492 30.9556 84.3751 30.5072 84.4669C30.0517 84.5552 29.5814 84.4827 29.0962 84.2492C28.7109 84.0638 28.4311 83.8325 28.2569 83.5553C28.0793 83.2853 27.9791 82.9823 27.9563 82.6462C27.9229 82.3138 27.9443 81.9681 28.0203 81.6093L27.8062 81.5063C27.7423 81.7304 27.675 81.9616 27.6042 82.1999C27.5301 82.4454 27.4539 82.6768 27.3757 82.894C27.2941 83.1184 27.2138 83.3126 27.1348 83.4767L26.3056 85.1998L25.1284 84.6333L27.4408 79.8278L28.7645 77.0772L29.7812 77.5665L29.0019 79.0764L29.1946 79.1691C29.445 78.8678 29.7088 78.63 29.9859 78.4559C30.2631 78.2817 30.5591 78.1869 30.8741 78.1715C31.1819 78.1527 31.5107 78.2274 31.8603 78.3956ZM31.0654 79.2257C30.8156 79.1056 30.567 79.0562 30.3194 79.0777C30.0684 79.1063 29.8357 79.1788 29.6215 79.2954C29.4038 79.4191 29.2113 79.5726 29.0441 79.7557C28.8663 79.9426 28.731 80.1323 28.6383 80.325L28.5611 80.4855C28.4924 80.6282 28.44 80.7919 28.4038 80.9766C28.3571 81.165 28.3371 81.3619 28.3437 81.5672C28.3432 81.7691 28.371 81.967 28.4271 82.1609C28.4797 82.362 28.5728 82.543 28.7062 82.7039C28.8291 82.8685 28.994 83.0005 29.201 83.1001C29.5006 83.2443 29.7951 83.2806 30.0845 83.2089C30.3666 83.1338 30.6316 82.9757 30.8794 82.7347C31.1272 82.4937 31.3421 82.1841 31.5241 81.8059C31.7095 81.4206 31.8174 81.0595 31.8477 80.7226C31.8709 80.3823 31.8185 80.0803 31.6905 79.8166C31.5592 79.56 31.3508 79.3631 31.0654 79.2257Z" fill="#1E444C"/>
<path d="M36.8541 80.4133L35.0513 86.3205L33.8244 85.9461L35.6272 80.0388L36.8541 80.4133ZM34.1328 87.133C34.4054 87.2162 34.5937 87.3317 34.6977 87.4793C34.7994 87.6345 34.8178 87.8181 34.7531 88.0302C34.6861 88.2498 34.5671 88.3956 34.3961 88.4676C34.2175 88.5373 33.9995 88.5329 33.742 88.4543C33.4694 88.3711 33.2822 88.2519 33.1806 88.0967C33.0713 87.9391 33.0502 87.7506 33.1173 87.5309C33.182 87.3189 33.3036 87.178 33.4822 87.1083C33.6509 87.0439 33.8677 87.0521 34.1328 87.133Z" fill="#1E444C"/>
<path d="M41.9172 81.4711L43.0813 87.895L41.6734 87.6732L40.9314 82.3859L40.7554 82.3582L38.4352 87.1629L37.0507 86.9448L40.1456 81.192L41.9172 81.4711Z" fill="#1E444C"/>
<path d="M53.7261 81.1138L54.2197 84.8943L54.8118 89.4286L53.5163 89.5978L53.2656 87.6781C53.2441 87.5132 53.2255 87.3399 53.2097 87.1583C53.195 86.9846 53.1877 86.8059 53.1876 86.6222C53.1886 86.4464 53.1891 86.2667 53.1891 86.083C53.1901 85.9072 53.1945 85.7269 53.2023 85.5422L52.9786 85.5715C52.925 86.0176 52.8309 86.3973 52.6961 86.7103C52.5544 87.0323 52.3599 87.2853 52.1124 87.4693C51.8581 87.6622 51.5386 87.7838 51.1539 87.834C50.4472 87.9263 49.8889 87.7477 49.4788 87.2981C49.0698 86.8564 48.8012 86.1449 48.673 85.1634L48.2378 81.8304L49.5215 81.6628L49.9352 84.8309C50.0254 85.5219 50.1976 86.0144 50.4516 86.3087C50.7066 86.6108 51.0422 86.7346 51.4584 86.6803C51.8038 86.6352 52.081 86.4952 52.2899 86.2603C52.491 86.0264 52.6357 85.728 52.724 85.3651C52.8124 85.0022 52.848 84.6023 52.8309 84.1653L52.4541 81.2799L53.7261 81.1138Z" fill="#1E444C"/>
<path d="M57.5888 79.8002C58.0979 79.6247 58.5629 79.5523 58.9839 79.583C59.3974 79.6162 59.768 79.7314 60.0955 79.9283C60.4231 80.1252 60.705 80.384 60.9412 80.7046C61.18 81.0327 61.3691 81.3988 61.5085 81.803C61.6608 82.2447 61.7416 82.6733 61.7509 83.0889C61.7628 83.512 61.698 83.907 61.5566 84.2741C61.4177 84.6486 61.1995 84.9752 60.9019 85.2537C60.6043 85.5322 60.2234 85.7515 59.7593 85.9116C59.3101 86.0665 58.8863 86.1247 58.4877 86.0863C58.0918 86.0553 57.7375 85.9388 57.4249 85.7367C57.1123 85.5346 56.8578 85.258 56.6613 84.907L57.6827 84.1527C57.78 84.362 57.9134 84.5422 58.0827 84.6932C58.252 84.8442 58.4521 84.9385 58.6829 84.9762C58.9162 85.0213 59.1751 84.9949 59.4596 84.8968C59.7216 84.8064 59.9318 84.6753 60.0903 84.5034C60.2439 84.3415 60.3507 84.1413 60.4109 83.9028C60.4736 83.6718 60.4947 83.4174 60.4743 83.1397C60.4539 82.8619 60.3908 82.5696 60.285 82.2627C60.1404 81.8435 59.9553 81.5011 59.7297 81.2355C59.5041 80.9699 59.2418 80.7923 58.9429 80.7027C58.6365 80.6157 58.2924 80.6381 57.9106 80.7697C57.6037 80.8756 57.3686 81.0195 57.2052 81.2015C57.0343 81.3861 56.925 81.5913 56.8773 81.8171C56.8321 82.0505 56.8334 82.2971 56.8812 82.5571L55.7068 82.6857C55.6433 82.3558 55.64 82.0428 55.6971 81.7467C55.7466 81.4532 55.8503 81.183 56.008 80.9359C56.1657 80.6889 56.375 80.4701 56.636 80.2796C56.8969 80.0891 57.2146 79.9293 57.5888 79.8002Z" fill="#1E444C"/>
<path d="M62.4843 77.7657C63.0279 77.4725 63.5076 77.4027 63.9233 77.5564C64.3391 77.71 64.7104 78.09 65.0374 78.6963L66.571 81.5398L67.376 81.1056L67.8617 82.0312L67.3285 82.3188C67.1473 82.4165 67.03 82.5158 66.9764 82.6166C66.9196 82.7282 66.9221 82.8663 66.9839 83.0309L67.3087 83.9084L66.6292 84.2748L65.9695 83.0517L64.4746 83.858L63.9616 82.9067L65.4565 82.1004L63.9567 79.3197C63.8139 79.0549 63.6459 78.8935 63.4528 78.8358C63.2634 78.7849 63.0468 78.8253 62.8029 78.9569C62.6705 79.0283 62.5475 79.1171 62.4338 79.2234C62.3132 79.3334 62.2147 79.4676 62.1381 79.6258L61.5404 78.5177C61.7119 78.3352 61.8773 78.1831 62.0365 78.0612C62.1956 77.9394 62.3449 77.8409 62.4843 77.7657Z" fill="#1E444C"/>
<path d="M68.7148 73.6498C68.9839 73.4413 69.2637 73.3046 69.5541 73.2399C69.8494 73.1814 70.1396 73.2069 70.4249 73.3164C70.7038 73.4308 70.9621 73.6414 71.1998 73.9481C71.389 74.1922 71.5076 74.4358 71.5558 74.679C71.6088 74.9284 71.5875 75.1853 71.4919 75.4497C71.4011 75.7204 71.2433 76.008 71.0184 76.3125C70.7936 76.6169 70.5034 76.947 70.1479 77.3026C69.953 77.5037 69.7989 77.6732 69.6855 77.8112C69.5658 77.954 69.5013 78.0841 69.492 78.2015C69.4765 78.3237 69.5246 78.4568 69.6361 78.6007C69.801 78.8135 70.0168 78.9368 70.2834 78.9707C70.5438 79.0093 70.8367 78.9025 71.1621 78.6503C71.3437 78.5097 71.5009 78.3377 71.6339 78.1345C71.7607 77.9361 71.834 77.714 71.8539 77.4682C71.8724 77.2335 71.8114 76.9803 71.6709 76.7085L72.8238 76.2959C72.9517 76.5774 73.0235 76.8574 73.0389 77.1359C73.0544 77.4145 73.0199 77.6866 72.9354 77.9525C72.8495 78.2294 72.7087 78.4938 72.5131 78.7455C72.3161 79.0083 72.0674 79.2562 71.7669 79.489C71.335 79.8236 70.9225 80.0281 70.5293 80.1024C70.1409 80.183 69.7615 80.1264 69.391 79.9326C69.0191 79.75 68.6512 79.424 68.2875 78.9545L67.5163 77.9594C67.3563 77.7528 67.1834 77.5362 66.9977 77.3094C66.8106 77.0938 66.621 76.875 66.429 76.6532C66.2357 76.4424 66.0464 76.2434 65.8613 76.0563L66.7908 75.336C66.9551 75.5093 67.1218 75.6856 67.2909 75.8651C67.4649 76.0508 67.6351 76.2446 67.8014 76.4463L67.9422 76.3371C67.8566 76.0328 67.8176 75.7174 67.8251 75.391C67.8264 75.0695 67.8968 74.7595 68.0362 74.4612C68.1756 74.1628 68.4018 73.8923 68.7148 73.6498ZM68.9691 74.7149C68.8377 74.8168 68.7232 74.9405 68.6257 75.0862C68.522 75.2367 68.4383 75.4067 68.3748 75.5962C68.3161 75.7919 68.2807 76.0047 68.2684 76.2346C68.2611 76.4707 68.2912 76.7228 68.3587 76.991L69.0665 77.8851L68.7861 78.0273C68.8197 77.8509 68.8985 77.6747 69.0224 77.4985C69.1464 77.3223 69.2901 77.1458 69.4536 76.9691C69.6157 76.8034 69.7761 76.629 69.9348 76.4459C70.0983 76.2691 70.231 76.0912 70.3327 75.9122C70.4392 75.7395 70.4958 75.5604 70.5024 75.375C70.5076 75.2007 70.4374 75.0197 70.2919 74.8319C70.1125 74.6003 69.9023 74.4777 69.6613 74.4641C69.4252 74.4567 69.1945 74.5403 68.9691 74.7149Z" fill="#1E444C"/>
<path d="M75.9115 66.0421L81.7512 68.6141L80.9189 69.6671L76.2346 67.3572L76.1093 67.5156L79.3575 71.6425L78.3558 72.9097L73.583 70.7117L73.4578 70.8701L76.7943 74.8851L75.9768 75.9194L72.1257 70.8315L73.2453 69.4152L77.9812 71.6598L78.0843 71.5294L74.792 67.4584L75.9115 66.0421Z" fill="#1E444C"/>
<path d="M79.4903 58.1478C79.6878 57.5793 79.9815 57.1198 80.3716 56.7691C80.759 56.4258 81.2237 56.2101 81.7658 56.1217C82.3127 56.0434 82.9152 56.1186 83.5734 56.3473C84.2541 56.5837 84.776 56.9033 85.139 57.306C85.4995 57.7162 85.7166 58.1772 85.7903 58.689C85.864 59.2008 85.8073 59.7259 85.6202 60.2645C85.428 60.818 85.1405 61.2714 84.758 61.6247C84.3754 61.978 83.9131 62.1988 83.3711 62.2871C82.8265 62.383 82.2176 62.314 81.5444 62.0801C80.8637 61.8437 80.3394 61.5191 79.9715 61.1063C79.6084 60.7036 79.3901 60.2463 79.3164 59.7345C79.2426 59.2227 79.3006 58.6938 79.4903 58.1478ZM80.4396 58.5278C80.3227 58.8644 80.3012 59.1797 80.3751 59.4736C80.4566 59.7701 80.6285 60.0352 80.891 60.2689C81.1535 60.5026 81.4942 60.6922 81.9131 60.8377C82.3544 60.991 82.7555 61.0549 83.1165 61.0293C83.4849 61.0064 83.7992 60.8977 84.0596 60.7031C84.3249 60.5187 84.5199 60.2469 84.6446 59.8879C84.7589 59.5587 84.7791 59.2472 84.7051 58.9533C84.6312 58.6594 84.468 58.3932 84.2156 58.1546C83.9606 57.9235 83.6124 57.7313 83.1711 57.578C82.4904 57.3416 81.9111 57.308 81.4332 57.4773C80.9527 57.6541 80.6215 58.0043 80.4396 58.5278Z" fill="#1E444C"/>
<path d="M81.1019 51.4452C81.1656 50.9584 81.2928 50.5359 81.4834 50.1775C81.6819 49.8202 81.9316 49.5294 82.2324 49.3053C82.5412 49.0821 82.8927 48.9285 83.287 48.8443C83.6892 48.7612 84.1297 48.751 84.6087 48.8137C85.0955 48.8774 85.5308 48.9983 85.9148 49.1763C86.3056 49.3632 86.6337 49.6018 86.8992 49.8921C87.1647 50.1824 87.3523 50.5184 87.4621 50.9001C87.5786 51.2907 87.6066 51.7176 87.546 52.1808C87.4905 52.6048 87.37 52.9763 87.1845 53.2954C86.998 53.6224 86.744 53.8846 86.4227 54.0822C86.1082 54.2886 85.7273 54.4224 85.2801 54.4836C84.8407 54.5459 84.3365 54.5238 83.7675 54.4174L84.361 49.6078L85.1618 49.7126L84.6669 53.7685L84.2309 53.2563C84.6958 53.365 85.0896 53.3766 85.4122 53.2911C85.7349 53.2055 85.9862 53.0548 86.1662 52.8387C86.354 52.6237 86.468 52.3632 86.5081 52.057C86.5533 51.7115 86.5026 51.3974 86.3559 51.1147C86.2082 50.8398 85.9748 50.6096 85.6557 50.4241C85.3444 50.2396 84.9493 50.116 84.4704 50.0533C83.7638 49.9609 83.2093 50.048 82.8071 50.3148C82.4127 50.5826 82.1774 51.007 82.1014 51.588C82.0706 51.8236 82.0713 52.0313 82.1037 52.2112C82.1439 52.3922 82.2034 52.5477 82.2822 52.6778C82.3678 52.8168 82.4727 52.9303 82.597 53.0184C82.7202 53.1144 82.8533 53.1957 82.9963 53.2624L82.5907 54.3473C82.3184 54.2318 82.0776 54.0885 81.8684 53.9173C81.6592 53.7462 81.4905 53.5404 81.3622 53.3001C81.234 53.0597 81.1462 52.7846 81.0989 52.475C81.0505 52.1732 81.0515 51.8299 81.1019 51.4452Z" fill="#1E444C"/>
<path d="M81.2838 43.4491C81.2434 42.9201 81.3429 42.4559 81.5823 42.0564C81.8303 41.6642 82.1872 41.347 82.6532 41.1049C83.1276 40.8701 83.6845 40.7283 84.324 40.6794C84.9478 40.6317 85.5077 40.6842 86.0038 40.8369C86.5078 40.9889 86.9118 41.236 87.2159 41.578C87.5206 41.928 87.6935 42.3714 87.7345 42.9083C87.7671 43.3346 87.7071 43.6926 87.5546 43.9822C87.4099 44.2712 87.1978 44.5098 86.9184 44.6979C86.6474 44.8934 86.3376 45.0481 85.989 45.1621L86.0071 45.3989C86.2331 45.342 86.4669 45.2844 86.7086 45.2262C86.9583 45.1674 87.1966 45.1174 87.4238 45.0762C87.6588 45.0344 87.8672 45.0066 88.0488 44.9927L89.9555 44.8469L90.0551 46.1496L84.7376 46.5562L81.694 46.7889L81.608 45.6638L83.3051 45.5817L83.2888 45.3685C82.9026 45.3027 82.5647 45.1936 82.2751 45.041C81.9855 44.8884 81.7551 44.6797 81.584 44.4149C81.4134 44.1579 81.3134 43.836 81.2838 43.4491ZM82.4005 43.7211C82.4216 43.9974 82.5035 44.2373 82.6461 44.4409C82.7966 44.6438 82.976 44.8087 83.1843 44.9358C83.4004 45.0622 83.6296 45.1519 83.8719 45.2048C84.1227 45.2651 84.3547 45.287 84.5679 45.2707L84.7455 45.2572C84.9034 45.2451 85.0713 45.2084 85.2493 45.1472C85.4358 45.0932 85.6162 45.0119 85.7905 44.9033C85.9655 44.8025 86.1228 44.6793 86.2626 44.5336C86.4102 44.3874 86.5202 44.2161 86.5926 44.02C86.6734 43.8312 86.7051 43.6223 86.6876 43.3933C86.6623 43.0617 86.5461 42.7887 86.3391 42.5742C86.1327 42.3676 85.8631 42.2175 85.5304 42.1238C85.1976 42.0301 84.822 41.9993 84.4036 42.0313C83.9772 42.0639 83.6107 42.1515 83.3039 42.294C82.9978 42.4445 82.7627 42.6412 82.5986 42.884C82.4424 43.1263 82.3764 43.4053 82.4005 43.7211Z" fill="#1E444C"/>
<path d="M80.5286 38.118L86.5442 36.7183L86.8349 37.9677L80.8193 39.3674L80.5286 38.118ZM87.7075 37.1061C87.6429 36.8285 87.6485 36.6077 87.7242 36.4438C87.8075 36.278 87.9572 36.17 88.1731 36.1198C88.3968 36.0677 88.5826 36.0977 88.7306 36.2096C88.8804 36.3292 88.9858 36.5201 89.0468 36.7823C89.1114 37.06 89.102 37.2817 89.0186 37.4474C88.937 37.6209 88.7844 37.7336 88.5607 37.7856C88.3448 37.8359 88.1619 37.8012 88.0122 37.6816C87.8719 37.5679 87.7704 37.3761 87.7075 37.1061Z" fill="#1E444C"/>
<path d="M78.9063 33.2053L83.8823 28.9792L84.3958 30.3088L80.1919 33.6001L80.2561 33.7663L85.5767 33.3668L86.0816 34.6743L79.5524 34.8784L78.9063 33.2053Z" fill="#1E444C"/>
<path d="M72.6802 23.1657L75.7046 20.8443L79.3321 18.06L80.1276 19.0964L78.5918 20.2752C78.4599 20.3764 78.3193 20.4794 78.17 20.584C78.027 20.6838 77.876 20.7797 77.7171 20.8717C77.5645 20.9589 77.4087 21.0486 77.2497 21.1406C77.0971 21.2279 76.9389 21.3143 76.7751 21.4001L76.9125 21.5791C77.3255 21.4019 77.7012 21.2932 78.0397 21.253C78.3893 21.2142 78.7057 21.2558 78.989 21.3778C79.2833 21.5012 79.5486 21.7168 79.7849 22.0246C80.2188 22.5899 80.344 23.1626 80.1604 23.7427C79.9831 24.318 79.5019 24.907 78.7167 25.5097L76.0503 27.5563L75.262 26.5293L77.7965 24.5839C78.3493 24.1597 78.6893 23.7639 78.8167 23.3966C78.9503 23.0245 78.8894 22.672 78.6338 22.3391C78.4217 22.0628 78.1617 21.893 77.8537 21.83C77.5506 21.7732 77.2198 21.7974 76.8615 21.9028C76.5032 22.0081 76.1392 22.1777 75.7696 22.4115L73.4613 24.1833L72.6802 23.1657Z" fill="#1E444C"/>
<path d="M69.6076 20.4786C69.2006 20.126 68.9049 19.7599 68.7205 19.3801C68.5421 19.0056 68.4561 18.6272 68.4624 18.2451C68.4687 17.8629 68.5514 17.4893 68.7105 17.1243C68.8748 16.7532 69.0969 16.4061 69.3769 16.0829C69.6828 15.7298 70.0132 15.4451 70.3682 15.2289C70.7284 15.0066 71.1028 14.8647 71.4913 14.8032C71.885 14.7357 72.2769 14.7609 72.6671 14.8789C73.0573 14.9969 73.4379 15.2167 73.8089 15.5381C74.168 15.8492 74.4308 16.1868 74.5972 16.551C74.7688 16.9092 74.8455 17.2742 74.8272 17.646C74.8089 18.0178 74.6971 18.3766 74.4917 18.7225L73.3272 18.2166C73.4596 18.0274 73.5487 17.8218 73.5945 17.5996C73.6404 17.3774 73.6218 17.157 73.5388 16.9384C73.4609 16.7138 73.3083 16.503 73.0809 16.306C72.8714 16.1245 72.6526 16.0083 72.4244 15.9573C72.2074 15.9055 71.9806 15.9133 71.744 15.9807C71.5127 16.0422 71.2819 16.1514 71.0518 16.3082C70.8216 16.465 70.6003 16.6661 70.3877 16.9115C70.0974 17.2466 69.8938 17.5784 69.777 17.9067C69.6602 18.235 69.6379 18.551 69.7101 18.8546C69.7884 19.1633 69.9801 19.4499 70.2854 19.7143C70.5307 19.9269 70.7731 20.0583 71.0125 20.1085C71.2578 20.1639 71.4902 20.1557 71.7096 20.0838C71.9341 20.006 72.1469 19.8813 72.348 19.7097L73.0477 20.6616C72.794 20.8818 72.5248 21.0414 72.2399 21.1404C71.9611 21.2446 71.6753 21.2903 71.3825 21.2776C71.0897 21.2649 70.7955 21.1934 70.4999 21.063C70.2042 20.9326 69.9068 20.7378 69.6076 20.4786Z" fill="#1E444C"/>
<path d="M65.3954 17.2625C64.8693 16.939 64.5685 16.5589 64.4932 16.1221C64.4178 15.6853 64.5606 15.1735 64.9215 14.5867L66.6139 11.8348L65.8348 11.3557L66.3925 10.4716L66.9085 10.789C67.0838 10.8968 67.2286 10.9486 67.3427 10.9445C67.4677 10.9377 67.586 10.8663 67.6975 10.7304L68.2941 10.0097L68.9517 10.4141L68.2237 11.5978L69.6705 12.4876L69.1043 13.4082L67.6575 12.5185L66.0025 15.2097C65.8448 15.466 65.7894 15.6922 65.8361 15.8883C65.887 16.0776 66.0305 16.2448 66.2666 16.39C66.3947 16.4688 66.5333 16.5308 66.6822 16.5759C66.8378 16.6251 67.0033 16.6432 67.1786 16.6302L66.5191 17.7026C66.2753 17.6456 66.0607 17.5788 65.8755 17.5021C65.6903 17.4253 65.5303 17.3455 65.3954 17.2625Z" fill="#1E444C"/>
<path d="M58.7106 13.9332C58.3952 13.8048 58.1368 13.6311 57.9352 13.4123C57.7367 13.1861 57.6133 12.9221 57.5652 12.6203C57.5244 12.3216 57.5772 11.9926 57.7236 11.6332C57.84 11.3472 57.9914 11.1224 58.1777 10.9589C58.367 10.7881 58.6 10.6778 58.8768 10.628C59.1565 10.571 59.4845 10.5634 59.8606 10.6055C60.2368 10.6475 60.6678 10.7333 61.1537 10.8628C61.4253 10.9307 61.6493 10.9791 61.8255 11.0082C62.0091 11.0402 62.154 11.0308 62.2602 10.98C62.3737 10.9322 62.4648 10.8239 62.5335 10.6553C62.6351 10.4059 62.6337 10.1574 62.5294 9.90973C62.4324 9.66504 62.1932 9.46504 61.8119 9.30973C61.5992 9.22312 61.3716 9.17318 61.129 9.1599C60.8938 9.14961 60.6649 9.19744 60.4422 9.30339C60.2298 9.405 60.0412 9.58468 59.8764 9.84245L58.9417 9.05141C59.1212 8.79962 59.3276 8.59726 59.5609 8.44432C59.7942 8.29138 60.047 8.18488 60.3194 8.12482C60.6021 8.06042 60.9014 8.04979 61.2173 8.09293C61.5435 8.13173 61.8826 8.2228 62.2346 8.36616C62.7406 8.57223 63.1243 8.8268 63.3856 9.12987C63.6499 9.4256 63.791 9.78232 63.809 10.2C63.8373 10.6134 63.7395 11.0951 63.5155 11.6451L63.0406 12.8111C62.942 13.0531 62.8412 13.3113 62.738 13.5856C62.6452 13.8556 62.5508 14.1292 62.455 14.4065C62.3695 14.6795 62.2921 14.943 62.2229 15.1969L61.1338 14.7534C61.2014 14.5244 61.2705 14.2918 61.3411 14.0555C61.4147 13.8119 61.4971 13.5676 61.5883 13.3226L61.4233 13.2554C61.2028 13.4819 60.9494 13.6737 60.6632 13.8307C60.3843 13.9907 60.0808 14.0851 59.7527 14.114C59.4246 14.1428 59.0772 14.0826 58.7106 13.9332ZM59.5049 13.1794C59.6589 13.2422 59.8233 13.2792 59.9983 13.2906C60.1805 13.305 60.3695 13.2922 60.5653 13.2522C60.7641 13.2049 60.9661 13.129 61.1711 13.0244C61.3791 12.9125 61.5823 12.7601 61.7805 12.5672L62.1996 11.5068L62.4632 11.6782C62.2937 11.7375 62.1017 11.7576 61.8871 11.7386C61.6726 11.7196 61.4478 11.6837 61.2129 11.6307C60.9883 11.5734 60.757 11.522 60.5191 11.4764C60.2841 11.4235 60.0637 11.3978 59.8579 11.3995C59.655 11.3938 59.4717 11.4346 59.3079 11.5218C59.1545 11.6046 59.0329 11.7561 58.9433 11.9761C58.8328 12.2474 58.8321 12.4908 58.941 12.7061C59.0529 12.9142 59.2409 13.0719 59.5049 13.1794Z" fill="#1E444C"/>
<path d="M48.5207 11.519L47.8207 5.17651L49.1489 5.36921L49.497 10.5805L49.6968 10.6095L51.6408 5.73074L53.2394 5.96266L53.7286 11.1944L53.9284 11.2234L55.7313 6.32419L57.0361 6.51348L54.5625 12.3955L52.7758 12.1363L52.3454 6.91312L52.1809 6.88925L50.3074 11.7782L48.5207 11.519Z" fill="#1E444C"/>
</svg>
