<svg width="20" height="20" viewBox="0 0 20 20" fill="none" xmlns="http://www.w3.org/2000/svg">
<path fill-rule="evenodd" clip-rule="evenodd" d="M10 16C14.658 16 18.5 13.839 18.5 11C18.5 8.161 14.658 6 10 6C5.342 6 1.5 8.161 1.5 11C1.5 13.839 5.342 16 10 16ZM10 7C14.179 7 17.5 8.868 17.5 11C17.5 13.132 14.179 15 10 15C5.821 15 2.5 13.132 2.5 11C2.5 8.868 5.821 7 10 7Z" fill="#F5F5F5"/>
<path d="M9.50009 3.5C9.50009 3.36739 9.55277 3.24021 9.64654 3.14645C9.74031 3.05268 9.86748 3 10.0001 3C10.1327 3 10.2599 3.05268 10.3536 3.14645C10.4474 3.24021 10.5001 3.36739 10.5001 3.5V6.5C10.5001 6.63261 10.4474 6.75979 10.3536 6.85355C10.2599 6.94732 10.1327 7 10.0001 7C9.86748 7 9.74031 6.94732 9.64654 6.85355C9.55277 6.75979 9.50009 6.63261 9.50009 6.5V3.5ZM13.5101 3.902C13.5399 3.77584 13.6175 3.66617 13.7266 3.59613C13.8356 3.5261 13.9677 3.50116 14.0948 3.52658C14.2219 3.552 14.3342 3.6258 14.4079 3.7324C14.4817 3.83901 14.5111 3.97009 14.4901 4.098L13.9901 6.598C13.9603 6.72416 13.8827 6.83383 13.7736 6.90387C13.6645 6.9739 13.5325 6.99884 13.4054 6.97342C13.2783 6.948 13.166 6.8742 13.0923 6.7676C13.0185 6.66099 12.9891 6.52991 13.0101 6.402L13.5101 3.902ZM6.49009 3.902C6.46031 3.77584 6.3827 3.66617 6.27362 3.59613C6.16454 3.5261 6.03252 3.50116 5.90541 3.52658C5.7783 3.552 5.66603 3.6258 5.59227 3.7324C5.51852 3.83901 5.48906 3.97009 5.51009 4.098L6.01009 6.598C6.03987 6.72416 6.11749 6.83383 6.22657 6.90387C6.33565 6.9739 6.46766 6.99884 6.59478 6.97342C6.72189 6.948 6.83416 6.8742 6.90791 6.7676C6.98166 6.66099 7.01112 6.52991 6.99009 6.402L6.49009 3.902ZM2.42909 5.243C2.36093 5.12922 2.25036 5.04718 2.12171 5.01492C1.99306 4.98267 1.85687 5.00284 1.74309 5.071C1.62931 5.13916 1.54727 5.24973 1.51502 5.37838C1.48276 5.50703 1.50293 5.64322 1.57109 5.757L3.07109 8.257C3.13925 8.37078 3.24982 8.45282 3.37847 8.48507C3.50712 8.51733 3.64331 8.49716 3.75709 8.429C3.87087 8.36084 3.95291 8.25027 3.98517 8.12162C4.01742 7.99297 3.99725 7.85678 3.92909 7.743L2.42909 5.243ZM17.5711 5.243C17.6048 5.18666 17.6494 5.13752 17.7021 5.09839C17.7548 5.05926 17.8148 5.0309 17.8785 5.01492C17.9422 4.99895 18.0084 4.99568 18.0734 5.00531C18.1383 5.01493 18.2008 5.03725 18.2571 5.071C18.3134 5.10475 18.3626 5.14927 18.4017 5.20201C18.4408 5.25475 18.4692 5.31468 18.4852 5.37838C18.5011 5.44208 18.5044 5.5083 18.4948 5.57327C18.4852 5.63823 18.4628 5.70066 18.4291 5.757L16.9291 8.257C16.8953 8.31334 16.8508 8.36248 16.7981 8.40161C16.7453 8.44074 16.6854 8.4691 16.6217 8.48507C16.558 8.50105 16.4918 8.50432 16.4268 8.49469C16.3619 8.48507 16.2994 8.46275 16.2431 8.429C16.1868 8.39525 16.1376 8.35073 16.0985 8.29799C16.0594 8.24525 16.031 8.18532 16.015 8.12162C15.999 8.05792 15.9958 7.9917 16.0054 7.92673C16.015 7.86177 16.0373 7.79934 16.0711 7.743L17.5711 5.243ZM13.0001 10.5C13.0001 11.2956 12.684 12.0587 12.1214 12.6213C11.5588 13.1839 10.7957 13.5 10.0001 13.5C9.20444 13.5 8.44138 13.1839 7.87877 12.6213C7.31616 12.0587 7.00009 11.2956 7.00009 10.5C7.00009 9.70435 7.31616 8.94129 7.87877 8.37868C8.44138 7.81607 9.20444 7.5 10.0001 7.5C10.7957 7.5 11.5588 7.81607 12.1214 8.37868C12.684 8.94129 13.0001 9.70435 13.0001 10.5Z" fill="#F5F5F5"/>
</svg>
