<svg width="29" height="28" viewBox="0 0 29 28" fill="none" xmlns="http://www.w3.org/2000/svg">
<path d="M1.5695 0.666687C0.925166 0.666687 0.402832 1.18902 0.402832 1.83335C0.402832 2.47769 0.925166 3.00002 1.5695 3.00002H3.64535C3.81521 3.00002 3.98076 3.05347 4.11856 3.15279C4.25636 3.25212 4.35941 3.39228 4.41311 3.55343L8.2596 15.0951C8.43042 15.6075 8.45214 16.1593 8.32113 16.6833L8.0044 17.9525C7.53966 19.8114 8.98668 21.6667 10.9028 21.6667H24.9028C25.5472 21.6667 26.0695 21.1444 26.0695 20.5C26.0695 19.8557 25.5472 19.3334 24.9028 19.3334H10.9028C10.4485 19.3334 10.1569 18.9606 10.2671 18.5199L10.5059 17.5659C10.5464 17.4042 10.6397 17.2608 10.7711 17.1582C10.9025 17.0557 11.0643 17 11.231 17H23.7362C24.2385 17.0003 24.6846 16.679 24.8436 16.2025L27.9539 6.86916C28.2059 6.11341 27.6432 5.33299 26.8465 5.33335H8.04997C7.8801 5.33335 7.71454 5.27991 7.57674 5.18059C7.43894 5.08126 7.33588 4.9411 7.28217 4.77996L6.17692 1.46421C6.01795 0.987701 5.57183 0.666425 5.0695 0.666687H1.5695ZM9.73617 22.8334C8.4475 22.8334 7.40283 23.878 7.40283 25.1667C7.40283 26.4554 8.4475 27.5 9.73617 27.5C11.0248 27.5 12.0695 26.4554 12.0695 25.1667C12.0695 23.878 11.0248 22.8334 9.73617 22.8334ZM23.7362 22.8334C22.4475 22.8334 21.4028 23.878 21.4028 25.1667C21.4028 26.4554 22.4475 27.5 23.7362 27.5C25.0248 27.5 26.0695 26.4554 26.0695 25.1667C26.0695 23.878 25.0248 22.8334 23.7362 22.8334Z" fill="#070707"/>
</svg>
