<svg width="210" height="212" viewBox="0 0 210 212" fill="none" xmlns="http://www.w3.org/2000/svg">
<path d="M63.7327 10.3406C63.0554 8.03302 66.2792 6.71299 67.4147 8.83293L95.8468 61.9111C96.7489 63.5951 99.2727 63.1768 99.5832 61.2918L109.371 1.87913C109.762 -0.493809 113.24 -0.284351 113.343 2.11835L115.93 62.2764C116.012 64.185 118.467 64.9031 119.565 63.3396L154.162 14.0576C155.544 12.0892 158.586 13.7867 157.636 15.9963L133.865 71.3191C133.111 73.0743 135.012 74.7867 136.679 73.8542L189.233 44.4638C191.332 43.2899 193.336 46.1392 191.522 47.718L146.101 87.2483C144.66 88.5024 145.63 90.8699 147.536 90.7532L207.638 87.0754C210.038 86.9286 210.608 90.3653 208.288 91.0007L150.214 106.909C148.371 107.414 148.218 109.967 149.986 110.689L205.731 133.453C207.958 134.362 206.98 137.705 204.614 137.272L145.389 126.407C143.51 126.062 142.263 128.296 143.543 129.714L183.891 174.41C185.503 176.195 183.171 178.783 181.228 177.366L132.582 141.881C131.039 140.755 128.946 142.227 129.484 144.06L146.444 201.836C147.121 204.143 143.897 205.463 142.761 203.343L114.329 150.265C113.427 148.581 110.904 148.999 110.593 150.884L100.805 210.297C100.414 212.67 96.9365 212.461 96.8332 210.058L94.2465 149.9C94.1644 147.991 91.7091 147.273 90.6114 148.837L56.0143 198.119C54.6325 200.087 51.5905 198.39 52.5399 196.18L76.311 140.857C77.0651 139.102 75.1645 137.39 73.4972 138.322L20.9436 167.713C18.8446 168.886 16.8403 166.037 18.6544 164.458L64.0751 124.928C65.5161 123.674 64.5467 121.306 62.6399 121.423L2.5387 125.101C0.138265 125.248 -0.431301 121.811 1.88817 121.176L59.9623 105.267C61.8048 104.763 61.9586 102.209 60.19 101.487L4.44499 78.7235C2.21854 77.8143 3.19651 74.4708 5.56196 74.9047L64.7873 85.7693C66.6663 86.114 67.9128 83.88 66.6327 82.462L26.2849 37.766C24.6734 35.9809 27.0052 33.3928 28.9481 34.8101L77.5943 70.2956C79.1377 71.4215 81.2301 69.9496 80.692 68.1165L63.7327 10.3406Z" fill="#FFF9E0" fill-opacity="0.21"/>
</svg>
