<svg width="394" height="172" viewBox="0 0 394 172" fill="none" xmlns="http://www.w3.org/2000/svg">
<circle cx="2" cy="2" r="2" fill="#C94430"/>
<circle cx="210" cy="2" r="2" fill="#C94430"/>
<circle cx="28" cy="2" r="2" fill="#C94430"/>
<circle cx="236" cy="2" r="2" fill="#C94430"/>
<circle cx="54" cy="2" r="2" fill="#C94430"/>
<circle cx="262" cy="2" r="2" fill="#C94430"/>
<circle cx="80" cy="2" r="2" fill="#C94430"/>
<circle cx="288" cy="2" r="2" fill="#C94430"/>
<circle cx="106" cy="2" r="2" fill="#C94430"/>
<circle cx="314" cy="2" r="2" fill="#C94430"/>
<circle cx="132" cy="2" r="2" fill="#C94430"/>
<circle cx="340" cy="2" r="2" fill="#C94430"/>
<circle cx="158" cy="2" r="2" fill="#C94430"/>
<circle cx="366" cy="2" r="2" fill="#C94430"/>
<circle cx="184" cy="2" r="2" fill="#C94430"/>
<circle cx="392" cy="2" r="2" fill="#C94430"/>
<circle cx="2" cy="50" r="2" fill="#C94430"/>
<circle cx="210" cy="50" r="2" fill="#C94430"/>
<circle cx="28" cy="50" r="2" fill="#C94430"/>
<circle cx="236" cy="50" r="2" fill="#C94430"/>
<circle cx="54" cy="50" r="2" fill="#C94430"/>
<circle cx="262" cy="50" r="2" fill="#C94430"/>
<circle cx="80" cy="50" r="2" fill="#C94430"/>
<circle cx="288" cy="50" r="2" fill="#C94430"/>
<circle cx="106" cy="50" r="2" fill="#C94430"/>
<circle cx="314" cy="50" r="2" fill="#C94430"/>
<circle cx="132" cy="50" r="2" fill="#C94430"/>
<circle cx="340" cy="50" r="2" fill="#C94430"/>
<circle cx="158" cy="50" r="2" fill="#C94430"/>
<circle cx="366" cy="50" r="2" fill="#C94430"/>
<circle cx="184" cy="50" r="2" fill="#C94430"/>
<circle cx="392" cy="50" r="2" fill="#C94430"/>
<circle cx="2" cy="98" r="2" fill="#C94430"/>
<circle cx="210" cy="98" r="2" fill="#C94430"/>
<circle cx="28" cy="98" r="2" fill="#C94430"/>
<circle cx="236" cy="98" r="2" fill="#C94430"/>
<circle cx="54" cy="98" r="2" fill="#C94430"/>
<circle cx="262" cy="98" r="2" fill="#C94430"/>
<circle cx="80" cy="98" r="2" fill="#C94430"/>
<circle cx="288" cy="98" r="2" fill="#C94430"/>
<circle cx="106" cy="98" r="2" fill="#C94430"/>
<circle cx="314" cy="98" r="2" fill="#C94430"/>
<circle cx="132" cy="98" r="2" fill="#C94430"/>
<circle cx="340" cy="98" r="2" fill="#C94430"/>
<circle cx="158" cy="98" r="2" fill="#C94430"/>
<circle cx="366" cy="98" r="2" fill="#C94430"/>
<circle cx="184" cy="98" r="2" fill="#C94430"/>
<circle cx="392" cy="98" r="2" fill="#C94430"/>
<circle cx="2" cy="146" r="2" fill="#C94430"/>
<circle cx="210" cy="146" r="2" fill="#C94430"/>
<circle cx="28" cy="146" r="2" fill="#C94430"/>
<circle cx="236" cy="146" r="2" fill="#C94430"/>
<circle cx="54" cy="146" r="2" fill="#C94430"/>
<circle cx="262" cy="146" r="2" fill="#C94430"/>
<circle cx="80" cy="146" r="2" fill="#C94430"/>
<circle cx="288" cy="146" r="2" fill="#C94430"/>
<circle cx="106" cy="146" r="2" fill="#C94430"/>
<circle cx="314" cy="146" r="2" fill="#C94430"/>
<circle cx="132" cy="146" r="2" fill="#C94430"/>
<circle cx="340" cy="146" r="2" fill="#C94430"/>
<circle cx="158" cy="146" r="2" fill="#C94430"/>
<circle cx="366" cy="146" r="2" fill="#C94430"/>
<circle cx="184" cy="146" r="2" fill="#C94430"/>
<circle cx="392" cy="146" r="2" fill="#C94430"/>
<circle cx="2" cy="26" r="2" fill="#C94430"/>
<circle cx="210" cy="26" r="2" fill="#C94430"/>
<circle cx="28" cy="26" r="2" fill="#C94430"/>
<circle cx="236" cy="26" r="2" fill="#C94430"/>
<circle cx="54" cy="26" r="2" fill="#C94430"/>
<circle cx="262" cy="26" r="2" fill="#C94430"/>
<circle cx="80" cy="26" r="2" fill="#C94430"/>
<circle cx="288" cy="26" r="2" fill="#C94430"/>
<circle cx="106" cy="26" r="2" fill="#C94430"/>
<circle cx="314" cy="26" r="2" fill="#C94430"/>
<circle cx="132" cy="26" r="2" fill="#C94430"/>
<circle cx="340" cy="26" r="2" fill="#C94430"/>
<circle cx="158" cy="26" r="2" fill="#C94430"/>
<circle cx="366" cy="26" r="2" fill="#C94430"/>
<circle cx="184" cy="26" r="2" fill="#C94430"/>
<circle cx="392" cy="26" r="2" fill="#C94430"/>
<circle cx="2" cy="74" r="2" fill="#C94430"/>
<circle cx="210" cy="74" r="2" fill="#C94430"/>
<circle cx="28" cy="74" r="2" fill="#C94430"/>
<circle cx="236" cy="74" r="2" fill="#C94430"/>
<circle cx="54" cy="74" r="2" fill="#C94430"/>
<circle cx="262" cy="74" r="2" fill="#C94430"/>
<circle cx="80" cy="74" r="2" fill="#C94430"/>
<circle cx="288" cy="74" r="2" fill="#C94430"/>
<circle cx="106" cy="74" r="2" fill="#C94430"/>
<circle cx="314" cy="74" r="2" fill="#C94430"/>
<circle cx="132" cy="74" r="2" fill="#C94430"/>
<circle cx="340" cy="74" r="2" fill="#C94430"/>
<circle cx="158" cy="74" r="2" fill="#C94430"/>
<circle cx="366" cy="74" r="2" fill="#C94430"/>
<circle cx="184" cy="74" r="2" fill="#C94430"/>
<circle cx="392" cy="74" r="2" fill="#C94430"/>
<circle cx="2" cy="122" r="2" fill="#C94430"/>
<circle cx="210" cy="122" r="2" fill="#C94430"/>
<circle cx="28" cy="122" r="2" fill="#C94430"/>
<circle cx="236" cy="122" r="2" fill="#C94430"/>
<circle cx="54" cy="122" r="2" fill="#C94430"/>
<circle cx="262" cy="122" r="2" fill="#C94430"/>
<circle cx="80" cy="122" r="2" fill="#C94430"/>
<circle cx="288" cy="122" r="2" fill="#C94430"/>
<circle cx="106" cy="122" r="2" fill="#C94430"/>
<circle cx="314" cy="122" r="2" fill="#C94430"/>
<circle cx="132" cy="122" r="2" fill="#C94430"/>
<circle cx="340" cy="122" r="2" fill="#C94430"/>
<circle cx="158" cy="122" r="2" fill="#C94430"/>
<circle cx="366" cy="122" r="2" fill="#C94430"/>
<circle cx="184" cy="122" r="2" fill="#C94430"/>
<circle cx="392" cy="122" r="2" fill="#C94430"/>
<circle cx="2" cy="170" r="2" fill="#C94430"/>
<circle cx="210" cy="170" r="2" fill="#C94430"/>
<circle cx="28" cy="170" r="2" fill="#C94430"/>
<circle cx="236" cy="170" r="2" fill="#C94430"/>
<circle cx="54" cy="170" r="2" fill="#C94430"/>
<circle cx="262" cy="170" r="2" fill="#C94430"/>
<circle cx="80" cy="170" r="2" fill="#C94430"/>
<circle cx="288" cy="170" r="2" fill="#C94430"/>
<circle cx="106" cy="170" r="2" fill="#C94430"/>
<circle cx="314" cy="170" r="2" fill="#C94430"/>
<circle cx="132" cy="170" r="2" fill="#C94430"/>
<circle cx="340" cy="170" r="2" fill="#C94430"/>
<circle cx="158" cy="170" r="2" fill="#C94430"/>
<circle cx="366" cy="170" r="2" fill="#C94430"/>
<circle cx="184" cy="170" r="2" fill="#C94430"/>
<circle cx="392" cy="170" r="2" fill="#C94430"/>
</svg>
