<svg width="32" height="32" viewBox="0 0 32 32" fill="none" xmlns="http://www.w3.org/2000/svg">
<g clip-path="url(#clip0_55_2904)">
<path d="M31.6758 6.92096L19.2129 0.0774536C19.0256 -0.0253296 18.7986 -0.0253296 18.6113 0.0774536L13.9138 2.6568C13.8147 2.68292 13.7221 2.73273 13.6455 2.80426L6.14865 6.92096C5.9487 7.03058 5.82444 7.24054 5.82444 7.46881V15.7457C4.55979 16.1412 3.40085 16.8387 2.43723 17.8026C-0.0744927 20.314 -0.714874 24.1446 0.843721 27.3343C0.995088 27.6444 1.36936 27.773 1.67941 27.6214C1.98972 27.4698 2.11814 27.0955 1.96677 26.7855C0.642549 24.0753 1.18674 20.8206 3.32102 18.6863C4.65573 17.3516 6.43015 16.6165 8.3176 16.6165C10.2051 16.6165 11.9795 17.3516 13.3142 18.6863C14.6487 20.0208 15.3838 21.7952 15.3838 23.6827C15.3838 25.5701 14.6487 27.3446 13.3139 28.6793C11.1797 30.8135 7.92502 31.3577 5.21482 30.0335C4.90476 29.8819 4.53049 30.0106 4.37912 30.3206C4.22751 30.6309 4.35593 31.0052 4.66623 31.1566C5.8281 31.7244 7.07468 32.0003 8.31223 32.0003C10.4712 32.0001 12.6013 31.1597 14.198 29.5631C14.9302 28.8309 15.5088 27.9862 15.9182 27.0679L18.6113 28.5467C18.7051 28.5982 18.8086 28.6238 18.9121 28.6238C19.0156 28.6238 19.1194 28.5982 19.2129 28.5467L31.6758 21.7034C31.8757 21.5936 32 21.3836 32 21.1556V16.8121C32 16.4669 31.7202 16.1871 31.375 16.1871C31.0298 16.1871 30.75 16.4669 30.75 16.8121V20.7857L19.539 26.9417V14.681L23.239 12.6492V15.8699C23.239 16.0911 23.3557 16.2957 23.5459 16.408C23.644 16.4659 23.7539 16.4949 23.864 16.4949C23.9675 16.4949 24.0713 16.4693 24.1653 16.4175L26.8359 14.9476C27.0356 14.8377 27.1594 14.628 27.1594 14.4002V10.4964L30.75 8.52497V11.8123C30.75 12.1575 31.0298 12.4373 31.375 12.4373C31.7202 12.4373 32 12.1575 32 11.8123V7.46881C32 7.24079 31.8757 7.03058 31.6758 6.92096ZM18.9121 1.3382L30.0764 7.46881L26.5547 9.40265L15.3904 3.27203L18.9121 1.3382ZM18.9121 13.5992L7.74778 7.46881L11.3987 5.46393L22.5632 11.5943L18.9121 13.5992ZM23.8615 10.8814L12.6972 4.75104L14.0918 3.98517L25.2563 10.1155L23.8615 10.8814ZM14.198 17.8026C12.6272 16.2318 10.5388 15.3668 8.3176 15.3668C7.89743 15.3668 7.4824 15.3978 7.07444 15.4586V8.52497L18.2893 14.6832V26.9439L16.3427 25.8751C16.5344 25.1695 16.6335 24.4337 16.6335 23.6827C16.6335 21.4615 15.7685 19.3731 14.198 17.8026ZM25.9096 14.0308L24.489 14.8128V11.963L25.9096 11.1829V14.0308Z" fill="#C94430"/>
<path d="M31.375 13.6841C31.2107 13.6841 31.0493 13.751 30.9331 13.8672C30.8169 13.9834 30.75 14.1445 30.75 14.3091C30.75 14.4734 30.8169 14.6345 30.9331 14.7507C31.0493 14.8672 31.2107 14.9338 31.375 14.9338C31.5393 14.9338 31.7007 14.8672 31.8169 14.7507C31.9331 14.6345 32 14.4734 32 14.3091C32 14.1445 31.9331 13.9834 31.8169 13.8672C31.7007 13.751 31.5393 13.6841 31.375 13.6841Z" fill="#C94430"/>
<path d="M6.21613 24.3077C6.37604 24.3077 6.53619 24.2466 6.65802 24.1248C6.90216 23.8807 6.90216 23.4849 6.65802 23.2408L6.22516 22.8077H9.91901C10.815 22.8077 11.544 23.5367 11.544 24.4327C11.544 25.3287 10.815 26.0577 9.91901 26.0577H7.73029C7.38507 26.0577 7.10529 26.3375 7.10529 26.6827C7.10529 27.0277 7.38507 27.3074 7.73029 27.3074H9.91901C11.5042 27.3074 12.794 26.0179 12.794 24.4327C12.794 22.8475 11.5042 21.5579 9.91901 21.5579H6.22516L6.65802 21.1248C6.90216 20.8807 6.90216 20.4849 6.65802 20.2408C6.41412 19.9969 6.01837 19.9969 5.77423 20.2408L4.27423 21.7408C4.03033 21.9849 4.03033 22.3807 4.27423 22.6248L5.77423 24.1246C5.8963 24.2466 6.05621 24.3077 6.21613 24.3077Z" fill="#C94430"/>
<path d="M2.87978 29.7471C2.70205 29.7471 2.52554 29.6714 2.40225 29.5246L2.40102 29.5232C2.17886 29.259 2.21304 28.865 2.4772 28.6428C2.74136 28.4204 3.13564 28.4546 3.35781 28.7187C3.57974 28.9831 3.54629 29.3779 3.28213 29.6001C3.1647 29.6987 3.02187 29.7471 2.87978 29.7471Z" fill="#C94430"/>
</g>
<defs>
<clipPath id="clip0_55_2904">
<rect width="32" height="32" fill="white" transform="translate(0 0.000244141)"/>
</clipPath>
</defs>
</svg>
