<svg width="84" height="52" viewBox="0 0 84 52" fill="none" xmlns="http://www.w3.org/2000/svg">
<path d="M0.799805 4.72752C0.799805 2.11671 2.92837 0.000244141 5.55409 0.000244141H79.2455C81.8712 0.000244141 83.9998 2.11672 83.9998 4.72752V47.273C83.9998 49.8838 81.8712 52.0002 79.2455 52.0002H5.55409C2.92837 52.0002 0.799805 49.8838 0.799805 47.273V4.72752Z" fill="#022F5C"/>
<ellipse cx="50.1956" cy="25.8525" rx="11.7" ry="11.6335" fill="#F89E1D"/>
<ellipse cx="34.5975" cy="25.8525" rx="11.7" ry="11.6335" fill="#F30823"/>
<path d="M42.3956 34.5267C44.7892 32.3965 46.2956 29.301 46.2956 25.8555C46.2956 22.41 44.7892 19.3145 42.3956 17.1843C40.002 19.3145 38.4956 22.41 38.4956 25.8555C38.4956 29.301 40.002 32.3965 42.3956 34.5267Z" fill="#F75D00"/>
</svg>
