<svg width="2386" height="308" viewBox="0 0 2386 308" fill="none" xmlns="http://www.w3.org/2000/svg">
<path d="M133.641 308C106.513 308 83.0971 303.58 63.3937 294.739C43.9758 285.613 28.8413 272.494 17.9901 255.383C7.42448 237.987 1.57056 216.883 0.428335 192.072C0.142778 179.809 0 166.833 0 153.144C0 139.17 0.142778 125.909 0.428335 113.361C1.57056 89.1204 7.56726 68.587 18.4184 51.7611C29.2696 34.9352 44.5469 22.1019 64.2503 13.2611C83.9538 4.42037 107.084 0 133.641 0C155.057 0 174.047 2.70926 190.609 8.12777C207.172 13.2611 221.021 20.2481 232.158 29.0889C243.58 37.9296 252.147 47.6259 257.858 58.1778C263.855 68.7296 266.996 79.1389 267.281 89.4055C267.567 91.9722 266.71 94.1111 264.711 95.8222C262.998 97.5333 260.856 98.3889 258.286 98.3889H195.749C192.608 98.3889 190.181 97.9611 188.468 97.1056C187.04 95.9648 185.755 94.3963 184.613 92.4C182.614 88.1222 179.615 83.7019 175.618 79.1389C171.905 74.2907 166.623 70.1555 159.769 66.7333C153.201 63.3111 144.492 61.6 133.641 61.6C117.364 61.6 104.514 65.8778 95.0905 74.4333C85.9527 82.9889 80.9554 96.6778 80.0988 115.5C79.2421 140.026 79.2421 164.837 80.0988 189.933C80.9554 209.896 86.2382 224.298 95.9472 233.139C105.656 241.98 118.506 246.4 134.497 246.4C145.349 246.4 154.915 244.546 163.196 240.839C171.763 237.131 178.473 231.428 183.328 223.728C188.182 215.743 190.609 205.619 190.609 193.356V185.228H150.346C147.205 185.228 144.492 184.23 142.207 182.233C140.209 179.952 139.209 177.243 139.209 174.106V142.45C139.209 139.313 140.209 136.746 142.207 134.75C144.492 132.469 147.205 131.328 150.346 131.328H258.286C261.427 131.328 263.997 132.469 265.996 134.75C267.995 136.746 268.995 139.313 268.995 142.45V191.217C268.995 215.743 263.426 236.704 252.29 254.1C241.153 271.496 225.305 284.9 204.744 294.311C184.47 303.437 160.769 308 133.641 308Z" fill="#FFF9E0" fill-opacity="0.04"/>
<path d="M432.074 308C405.802 308 382.958 303.722 363.54 295.167C344.122 286.611 328.987 273.778 318.136 256.667C307.285 239.27 301.288 217.596 300.146 191.644C299.861 179.381 299.718 167.119 299.718 154.856C299.718 142.593 299.861 130.187 300.146 117.639C301.288 91.9722 307.285 70.4407 318.136 53.0444C329.273 35.363 344.55 22.1019 363.968 13.2611C383.386 4.42037 406.088 0 432.074 0C457.774 0 480.333 4.42037 499.751 13.2611C519.454 22.1019 534.874 35.363 546.011 53.0444C557.148 70.4407 563.144 91.9722 564.001 117.639C564.572 130.187 564.858 142.593 564.858 154.856C564.858 167.119 564.572 179.381 564.001 191.644C562.859 217.596 556.862 239.27 546.011 256.667C535.16 273.778 520.025 286.611 500.607 295.167C481.189 303.722 458.345 308 432.074 308ZM432.074 246.4C447.208 246.4 459.487 241.837 468.91 232.711C478.619 223.585 483.759 209.041 484.33 189.078C484.902 176.53 485.187 164.694 485.187 153.572C485.187 142.45 484.902 130.9 484.33 118.922C483.759 105.519 481.189 94.6815 476.62 86.4111C472.337 77.8555 466.34 71.5815 458.63 67.5889C450.92 63.5963 442.068 61.6 432.074 61.6C422.365 61.6 413.655 63.5963 405.945 67.5889C398.235 71.5815 392.096 77.8555 387.527 86.4111C382.958 94.6815 380.388 105.519 379.817 118.922C379.531 130.9 379.388 142.45 379.388 153.572C379.388 164.694 379.531 176.53 379.817 189.078C380.673 209.041 385.813 223.585 395.237 232.711C404.66 241.837 416.939 246.4 432.074 246.4Z" fill="#FFF9E0" fill-opacity="0.04"/>
<path d="M728.445 308C702.174 308 679.329 303.722 659.911 295.167C640.493 286.611 625.359 273.778 614.508 256.667C603.656 239.27 597.66 217.596 596.518 191.644C596.232 179.381 596.089 167.119 596.089 154.856C596.089 142.593 596.232 130.187 596.518 117.639C597.66 91.9722 603.656 70.4407 614.508 53.0444C625.644 35.363 640.922 22.1019 660.339 13.2611C679.757 4.42037 702.459 0 728.445 0C754.145 0 776.704 4.42037 796.122 13.2611C815.825 22.1019 831.245 35.363 842.382 53.0444C853.519 70.4407 859.516 91.9722 860.372 117.639C860.943 130.187 861.229 142.593 861.229 154.856C861.229 167.119 860.943 179.381 860.372 191.644C859.23 217.596 853.233 239.27 842.382 256.667C831.531 273.778 816.396 286.611 796.979 295.167C777.561 303.722 754.716 308 728.445 308ZM728.445 246.4C743.579 246.4 755.858 241.837 765.282 232.711C774.991 223.585 780.131 209.041 780.702 189.078C781.273 176.53 781.558 164.694 781.558 153.572C781.558 142.45 781.273 130.9 780.702 118.922C780.131 105.519 777.561 94.6815 772.992 86.4111C768.708 77.8555 762.712 71.5815 755.002 67.5889C747.292 63.5963 738.439 61.6 728.445 61.6C718.736 61.6 710.026 63.5963 702.316 67.5889C694.606 71.5815 688.467 77.8555 683.898 86.4111C679.329 94.6815 676.759 105.519 676.188 118.922C675.902 130.9 675.76 142.45 675.76 153.572C675.76 164.694 675.902 176.53 676.188 189.078C677.045 209.041 682.185 223.585 691.608 232.711C701.031 241.837 713.31 246.4 728.445 246.4Z" fill="#FFF9E0" fill-opacity="0.04"/>
<path d="M913.021 303.722C909.88 303.722 907.31 302.724 905.311 300.728C903.312 298.731 902.312 296.165 902.312 293.028V14.9722C902.312 11.8352 903.312 9.26852 905.311 7.27223C907.31 5.27593 909.88 4.27777 913.021 4.27777H1024.39C1052.37 4.27777 1076.22 8.84074 1095.92 17.9667C1115.62 26.8074 1130.76 39.9259 1141.32 57.3222C1151.89 74.4333 1157.6 95.6796 1158.46 121.061C1158.74 133.609 1158.89 144.589 1158.89 154C1158.89 163.411 1158.74 174.248 1158.46 186.511C1157.31 213.033 1151.6 234.993 1141.32 252.389C1131.33 269.785 1116.62 282.761 1097.21 291.317C1078.07 299.587 1054.51 303.722 1026.53 303.722H913.021ZM978.984 242.122H1024.39C1036.67 242.122 1046.8 240.269 1054.8 236.561C1063.08 232.569 1069.22 226.437 1073.22 218.167C1077.5 209.896 1079.79 199.059 1080.07 185.656C1080.64 177.385 1080.93 169.97 1080.93 163.411C1081.21 156.852 1081.21 150.293 1080.93 143.733C1080.93 137.174 1080.64 129.902 1080.07 121.917C1079.5 102.524 1074.36 88.4074 1064.65 79.5667C1055.23 70.4407 1041.09 65.8778 1022.25 65.8778H978.984V242.122Z" fill="#FFF9E0" fill-opacity="0.04"/>
<path d="M1293.69 303.722C1290.55 303.722 1287.98 302.724 1285.98 300.728C1283.98 298.731 1282.98 296.165 1282.98 293.028V14.9722C1282.98 11.8352 1283.98 9.26852 1285.98 7.27223C1287.98 5.27593 1290.55 4.27777 1293.69 4.27777H1490.29C1493.43 4.27777 1496 5.27593 1498 7.27223C1500.29 9.26852 1501.43 11.8352 1501.43 14.9722V58.1778C1501.43 61.3148 1500.29 63.8815 1498 65.8778C1496 67.8741 1493.43 68.8722 1490.29 68.8722H1358.37V131.756H1481.73C1484.87 131.756 1487.44 132.896 1489.44 135.178C1491.72 137.174 1492.86 139.741 1492.86 142.878V185.656C1492.86 188.507 1491.72 191.074 1489.44 193.356C1487.44 195.352 1484.87 196.35 1481.73 196.35H1358.37V293.028C1358.37 296.165 1357.37 298.731 1355.37 300.728C1353.37 302.724 1350.8 303.722 1347.66 303.722H1293.69Z" fill="#FFF9E0" fill-opacity="0.04"/>
<path d="M1659.19 308C1632.92 308 1610.07 303.722 1590.65 295.167C1571.24 286.611 1556.1 273.778 1545.25 256.667C1534.4 239.27 1528.4 217.596 1527.26 191.644C1526.97 179.381 1526.83 167.119 1526.83 154.856C1526.83 142.593 1526.97 130.187 1527.26 117.639C1528.4 91.9722 1534.4 70.4407 1545.25 53.0444C1556.39 35.363 1571.66 22.1019 1591.08 13.2611C1610.5 4.42037 1633.2 0 1659.19 0C1684.89 0 1707.45 4.42037 1726.86 13.2611C1746.57 22.1019 1761.99 35.363 1773.13 53.0444C1784.26 70.4407 1790.26 91.9722 1791.12 117.639C1791.69 130.187 1791.97 142.593 1791.97 154.856C1791.97 167.119 1791.69 179.381 1791.12 191.644C1789.97 217.596 1783.98 239.27 1773.13 256.667C1762.27 273.778 1747.14 286.611 1727.72 295.167C1708.3 303.722 1685.46 308 1659.19 308ZM1659.19 246.4C1674.32 246.4 1686.6 241.837 1696.02 232.711C1705.73 223.585 1710.87 209.041 1711.44 189.078C1712.02 176.53 1712.3 164.694 1712.3 153.572C1712.3 142.45 1712.02 130.9 1711.44 118.922C1710.87 105.519 1708.3 94.6815 1703.73 86.4111C1699.45 77.8555 1693.45 71.5815 1685.74 67.5889C1678.03 63.5963 1669.18 61.6 1659.19 61.6C1649.48 61.6 1640.77 63.5963 1633.06 67.5889C1625.35 71.5815 1619.21 77.8555 1614.64 86.4111C1610.07 94.6815 1607.5 105.519 1606.93 118.922C1606.65 130.9 1606.5 142.45 1606.5 153.572C1606.5 164.694 1606.65 176.53 1606.93 189.078C1607.79 209.041 1612.93 223.585 1622.35 232.711C1631.77 241.837 1644.05 246.4 1659.19 246.4Z" fill="#FFF9E0" fill-opacity="0.04"/>
<path d="M1955.56 308C1929.29 308 1906.44 303.722 1887.03 295.167C1867.61 286.611 1852.47 273.778 1841.62 256.667C1830.77 239.27 1824.77 217.596 1823.63 191.644C1823.35 179.381 1823.2 167.119 1823.2 154.856C1823.2 142.593 1823.35 130.187 1823.63 117.639C1824.77 91.9722 1830.77 70.4407 1841.62 53.0444C1852.76 35.363 1868.04 22.1019 1887.45 13.2611C1906.87 4.42037 1929.57 0 1955.56 0C1981.26 0 2003.82 4.42037 2023.24 13.2611C2042.94 22.1019 2058.36 35.363 2069.5 53.0444C2080.63 70.4407 2086.63 91.9722 2087.49 117.639C2088.06 130.187 2088.34 142.593 2088.34 154.856C2088.34 167.119 2088.06 179.381 2087.49 191.644C2086.34 217.596 2080.35 239.27 2069.5 256.667C2058.65 273.778 2043.51 286.611 2024.09 295.167C2004.68 303.722 1981.83 308 1955.56 308ZM1955.56 246.4C1970.69 246.4 1982.97 241.837 1992.4 232.711C2002.11 223.585 2007.25 209.041 2007.82 189.078C2008.39 176.53 2008.67 164.694 2008.67 153.572C2008.67 142.45 2008.39 130.9 2007.82 118.922C2007.25 105.519 2004.68 94.6815 2000.11 86.4111C1995.82 77.8555 1989.83 71.5815 1982.12 67.5889C1974.41 63.5963 1965.55 61.6 1955.56 61.6C1945.85 61.6 1937.14 63.5963 1929.43 67.5889C1921.72 71.5815 1915.58 77.8555 1911.01 86.4111C1906.44 94.6815 1903.87 105.519 1903.3 118.922C1903.02 130.9 1902.87 142.45 1902.87 153.572C1902.87 164.694 1903.02 176.53 1903.3 189.078C1904.16 209.041 1909.3 223.585 1918.72 232.711C1928.15 241.837 1940.42 246.4 1955.56 246.4Z" fill="#FFF9E0" fill-opacity="0.04"/>
<path d="M2140.14 303.722C2136.99 303.722 2134.42 302.724 2132.43 300.728C2130.43 298.731 2129.43 296.165 2129.43 293.028V14.9722C2129.43 11.8352 2130.43 9.26852 2132.43 7.27223C2134.42 5.27593 2136.99 4.27777 2140.14 4.27777H2251.5C2279.49 4.27777 2303.33 8.84074 2323.03 17.9667C2342.74 26.8074 2357.87 39.9259 2368.44 57.3222C2379 74.4333 2384.71 95.6796 2385.57 121.061C2385.86 133.609 2386 144.589 2386 154C2386 163.411 2385.86 174.248 2385.57 186.511C2384.43 213.033 2378.72 234.993 2368.44 252.389C2358.44 269.785 2343.74 282.761 2324.32 291.317C2305.19 299.587 2281.63 303.722 2253.64 303.722H2140.14ZM2206.1 242.122H2251.5C2263.78 242.122 2273.92 240.269 2281.91 236.561C2290.2 232.569 2296.33 226.437 2300.33 218.167C2304.62 209.896 2306.9 199.059 2307.19 185.656C2307.76 177.385 2308.04 169.97 2308.04 163.411C2308.33 156.852 2308.33 150.293 2308.04 143.733C2308.04 137.174 2307.76 129.902 2307.19 121.917C2306.62 102.524 2301.48 88.4074 2291.77 79.5667C2282.34 70.4407 2268.21 65.8778 2249.36 65.8778H2206.1V242.122Z" fill="#FFF9E0" fill-opacity="0.04"/>
</svg>
