<svg width="120" height="40" viewBox="0 0 120 40" fill="none" xmlns="http://www.w3.org/2000/svg">
<path d="M4.7002 31.566C3.36548 31.566 2.30316 31.1975 1.51323 30.4606C0.750534 29.7236 0.369187 28.6455 0.369187 27.2262V21.4534C0.369187 18.5602 0.805012 16.363 1.67666 14.8618C2.54831 13.3606 3.65149 12.2825 4.98621 11.6274L4.78192 10.8495H4.08732C2.83432 10.8495 1.8401 10.4538 1.10464 9.66223C0.396426 8.8434 0.0286983 7.73797 0.00145924 6.34596C-0.0257798 4.98124 0.328328 3.88946 1.06378 3.07062C1.82648 2.25179 2.83432 1.84238 4.08732 1.84238H18.3878C21.3024 1.84238 22.7597 3.2071 22.7597 5.93654C22.7597 7.16479 22.4056 8.14739 21.6974 8.88434C20.9892 9.62129 19.886 9.98977 18.3878 9.98977H10.4204C9.41256 9.98977 8.90864 10.5766 8.90864 11.7503V14.6981C10.1889 14.3432 11.5236 13.9338 12.9128 13.4698C14.302 13.0058 15.6367 12.7738 16.9169 12.7738C18.2789 12.7738 19.3276 13.115 20.063 13.7973C20.8257 14.4524 21.2071 15.4623 21.2071 16.827C21.2071 18.1644 20.8257 19.1743 20.063 19.8567C19.3276 20.5118 18.2789 20.853 16.9169 20.8802C15.6367 20.9075 14.2884 20.7028 12.8719 20.2661C11.4827 19.8021 10.148 19.3927 8.86778 19.0379L8.82692 27.2262C8.82692 28.6455 8.44557 29.7236 7.68288 30.4606C6.94742 31.1975 5.9532 31.566 4.7002 31.566Z" fill="#C94430"/>
<path d="M32.8457 31.6479C29.6587 31.6479 27.1119 30.7062 25.2052 28.8229C23.3257 26.9123 22.3859 24.2238 22.3859 20.7574C22.3859 18.6285 22.8217 16.7588 23.6934 15.1484C24.565 13.538 25.7772 12.2825 27.3298 11.3818C28.9097 10.4538 30.7483 9.98977 32.8457 9.98977C35.1883 9.98977 37.1359 10.4538 38.6885 11.3818C40.2411 12.2825 41.3988 13.538 42.1615 15.1484C42.9514 16.7588 43.3464 18.6285 43.3464 20.7574C43.3464 24.2238 42.4747 26.9123 40.7314 28.8229C39.0154 30.7062 36.3868 31.6479 32.8457 31.6479ZM27.2481 20.0614C27.2481 20.9075 27.6703 21.508 28.5147 21.8628C29.3591 22.1904 30.8028 22.3541 32.8457 22.3541C34.8886 22.3541 36.3323 22.1904 37.1767 21.8628C38.0211 21.508 38.4433 20.9075 38.4433 20.0614C38.4433 19.2426 38.0211 18.6694 37.1767 18.3419C36.3323 18.0143 34.8886 17.8506 32.8457 17.8506C30.8028 17.8506 29.3591 18.0143 28.5147 18.3419C27.6703 18.6694 27.2481 19.2426 27.2481 20.0614Z" fill="#C94430"/>
<path d="M49.3778 31.566C48.0976 31.566 47.1033 31.1975 46.3951 30.4606C45.6869 29.7236 45.3328 28.7956 45.3328 27.6766V14.2477C45.3328 13.074 45.6869 12.1051 46.3951 11.3408C47.1033 10.5493 48.0976 10.1535 49.3778 10.1535C50.658 10.1535 51.6387 10.5493 52.3196 11.3408C53.0006 12.1051 53.3411 13.0467 53.3411 14.1658V15.0256H54.1174C54.2264 13.579 54.7711 12.3917 55.7518 11.4637C56.7324 10.5357 57.89 10.0716 59.2247 10.0716C60.5594 10.0716 61.6082 10.4811 62.3708 11.2999C63.1608 12.1187 63.5557 13.2105 63.5557 14.5752C63.5557 15.8581 63.188 16.9226 62.4526 17.7687C61.7171 18.6148 60.7774 19.0379 59.6333 19.0379C58.68 19.0379 57.8764 18.8195 57.2227 18.3828C56.5962 17.9188 56.1331 17.3866 55.8335 16.7861C54.9618 16.6769 54.3217 16.7724 53.9131 17.0727C53.5318 17.3456 53.3411 17.9052 53.3411 18.7513V27.6766C53.3411 28.7956 53.0006 29.7236 52.3196 30.4606C51.6387 31.1975 50.658 31.566 49.3778 31.566Z" fill="#C94430"/>
<path d="M68.9663 31.566C67.7678 31.566 66.8144 31.2112 66.1062 30.5015C65.398 29.7646 65.0439 28.8639 65.0439 27.7994V4.09417C65.0439 2.9478 65.3844 1.97885 66.0654 1.18731C66.7736 0.395769 67.7678 0 69.048 0C70.301 0 71.2408 0.395769 71.8673 1.18731C72.521 1.97885 72.8479 2.96145 72.8479 4.13511V16.5404L72.9705 16.5814C73.1067 15.435 73.4608 14.3842 74.0328 13.4289C74.6048 12.4463 75.4084 11.6547 76.4434 11.0542C77.4785 10.4538 78.7451 10.1535 80.2433 10.1535C82.259 10.1535 83.8797 10.7131 85.1055 11.8321C86.3312 12.9512 86.9441 14.4797 86.9441 16.4176C86.9441 17.755 86.6717 18.8195 86.1269 19.6111C85.6094 20.3753 84.9012 20.9075 84.0023 21.2078C83.1034 21.508 82.1092 21.6445 81.0196 21.6172V22.3132C83.4439 22.3132 85.1599 22.8045 86.1678 23.7871C87.2029 24.7424 87.7204 25.957 87.7204 27.4309C87.7204 28.7956 87.3118 29.8465 86.4947 30.5834C85.6775 31.3204 84.6969 31.6752 83.5528 31.6479C82.2998 31.6206 81.2648 31.2521 80.4476 30.5425C79.6304 29.8328 78.9494 28.8775 78.4047 27.6766L76.6477 23.9509C76.2936 23.2139 75.8306 22.6817 75.2585 22.3541C74.7138 22.0266 73.9102 21.9038 72.8479 21.9857V27.7994C72.8479 28.8639 72.4938 29.7646 71.7856 30.5015C71.1046 31.2112 70.1648 31.566 68.9663 31.566ZM73.7059 19.2016C73.7059 19.5838 73.8966 19.8704 74.2779 20.0614C74.6865 20.2252 75.5173 20.3071 76.7703 20.3071C77.9961 20.3071 78.8132 20.2252 79.2218 20.0614C79.6304 19.8976 79.8347 19.6111 79.8347 19.2016C79.8347 18.8195 79.6304 18.5329 79.2218 18.3419C78.8132 18.1508 78.0097 18.0553 76.8112 18.0553C75.5309 18.0553 74.6865 18.1508 74.2779 18.3419C73.8966 18.5329 73.7059 18.8195 73.7059 19.2016Z" fill="#C94430"/>
<path d="M93.2242 31.566C91.8895 31.566 90.8816 31.2112 90.2007 30.5015C89.5469 29.7919 89.2201 28.9048 89.2201 27.8403V4.09417C89.2201 2.9205 89.5469 1.95155 90.2007 1.18731C90.8816 0.395769 91.8895 0 93.2242 0C94.4227 0 95.3488 0.395769 96.0026 1.18731C96.6563 1.95155 96.9832 2.89321 96.9832 4.01228V27.8403C96.9832 28.9048 96.6563 29.7919 96.0026 30.5015C95.3488 31.2112 94.4227 31.566 93.2242 31.566Z" fill="#C94430"/>
<path d="M106.966 40C105.141 40 103.643 39.6998 102.472 39.0993C101.328 38.4988 100.429 37.7073 99.775 36.7247C99.2302 35.8785 98.917 34.9915 98.8352 34.0635C98.7808 33.1354 98.9578 32.2757 99.3664 31.4841C99.775 30.6653 100.388 30.0375 101.205 29.6008C102.049 29.1368 102.894 28.9594 103.738 29.0686C104.583 29.1505 105.359 29.4643 106.067 30.0102C106.775 30.5288 107.32 31.2112 107.702 32.0573C108.11 32.958 108.519 33.6131 108.927 34.0225C109.363 34.4592 109.922 34.5548 110.603 34.3091C111.256 34.0908 111.488 33.4903 111.297 32.5077C111.134 31.5251 110.78 30.3651 110.235 29.0276H108.723C107.552 29.0276 106.38 28.6046 105.209 27.7584C104.038 26.9123 103.057 25.5749 102.267 23.7462L98.917 15.9672C98.3994 14.739 98.3449 13.6063 98.7535 12.5691C99.1893 11.5319 99.9657 10.7813 101.082 10.3173C102.118 9.85329 103.139 9.826 104.147 10.2354C105.155 10.6448 105.945 11.5183 106.517 12.8557L109.622 20.1024C110.139 21.276 110.698 22.1221 111.297 22.6407C111.924 23.1593 112.577 23.2412 113.258 22.8864C113.858 22.5589 114.184 22.1085 114.239 21.5353C114.293 20.9348 114.007 20.2115 113.381 19.3654C113.109 18.9833 112.782 18.5602 112.4 18.0962C112.046 17.6322 111.719 17.1 111.42 16.4995C111.147 15.8717 111.011 15.1757 111.011 14.4115C111.011 13.1286 111.447 12.0778 112.319 11.259C113.19 10.4128 114.334 9.98977 115.751 9.98977C117.031 9.98977 118.052 10.3992 118.815 11.218C119.605 12.0368 120 13.1013 120 14.4115C120 15.3395 119.891 16.363 119.673 17.4821C119.455 18.6012 119.21 19.6383 118.938 20.5937L115.996 31.3613C115.56 32.9717 114.988 34.4319 114.28 35.7421C113.572 37.0522 112.632 38.0894 111.461 38.8536C110.289 39.6179 108.791 40 106.966 40Z" fill="#C94430"/>
</svg>
