<svg width="1078" height="234" viewBox="0 0 1078 234" fill="none" xmlns="http://www.w3.org/2000/svg">
<path d="M8.43127 229.922C6.26941 229.922 4.32373 229.166 2.59424 227.655C0.864745 225.928 0 223.877 0 221.502V11.658C0 9.28321 0.864745 7.34021 2.59424 5.829C4.32373 4.10188 6.26941 3.23833 8.43127 3.23833H164.734C167.112 3.23833 169.166 4.10188 170.895 5.829C172.625 7.34021 173.49 9.28321 173.49 11.658V52.7848C173.49 54.9437 172.625 56.8867 170.895 58.6138C169.166 60.3409 167.112 61.2045 164.734 61.2045H68.423V96.8261H158.248C160.627 96.8261 162.68 97.6897 164.41 99.4168C166.139 100.928 167.004 102.871 167.004 105.246V146.049C167.004 148.424 166.139 150.474 164.41 152.202C162.68 153.713 160.627 154.468 158.248 154.468H68.423V221.502C68.423 223.877 67.5583 225.928 65.8288 227.655C64.3155 229.166 62.3698 229.922 59.9917 229.922H8.43127Z" fill="#FFF9E0" fill-opacity="0.06"/>
<path d="M294.755 233.16C274.001 233.16 255.95 229.922 240.6 223.445C225.467 216.968 213.469 207.253 204.605 194.3C195.958 181.131 191.31 164.831 190.661 145.401C190.445 136.334 190.337 127.051 190.337 117.551C190.337 107.836 190.445 98.2294 190.661 88.7303C191.31 69.5162 195.958 53.3245 204.605 40.1553C213.469 26.9861 225.575 17.0552 240.925 10.3627C256.274 3.45422 274.217 0 294.755 0C315.077 0 332.912 3.45422 348.261 10.3627C363.61 17.0552 375.717 26.9861 384.581 40.1553C393.444 53.3245 398.092 69.5162 398.525 88.7303C398.957 98.2294 399.173 107.836 399.173 117.551C399.173 127.051 398.957 136.334 398.525 145.401C397.876 164.831 393.12 181.131 384.256 194.3C375.609 207.253 363.61 216.968 348.261 223.445C333.128 229.922 315.293 233.16 294.755 233.16ZM294.755 178.108C303.835 178.108 311.293 175.41 317.13 170.012C322.967 164.399 325.994 155.548 326.21 143.458C326.643 134.175 326.859 125.215 326.859 116.58C326.859 107.728 326.643 98.7691 326.21 89.7018C325.994 81.7139 324.481 75.1293 321.67 69.948C319.076 64.7666 315.401 60.9886 310.645 58.6138C306.105 56.239 300.808 55.0516 294.755 55.0516C288.702 55.0516 283.297 56.239 278.541 58.6138C273.785 60.9886 270.002 64.7666 267.191 69.948C264.597 75.1293 263.192 81.7139 262.976 89.7018C262.759 98.7691 262.651 107.728 262.651 116.58C262.651 125.215 262.759 134.175 262.976 143.458C263.408 155.548 266.435 164.399 272.055 170.012C277.892 175.41 285.459 178.108 294.755 178.108Z" fill="#FFF9E0" fill-opacity="0.06"/>
<path d="M523.879 233.16C503.125 233.16 485.073 229.922 469.724 223.445C454.591 216.968 442.593 207.253 433.729 194.3C425.082 181.131 420.434 164.831 419.785 145.401C419.569 136.334 419.461 127.051 419.461 117.551C419.461 107.836 419.569 98.2294 419.785 88.7303C420.434 69.5162 425.082 53.3245 433.729 40.1553C442.593 26.9861 454.699 17.0552 470.048 10.3627C485.398 3.45422 503.341 0 523.879 0C544.2 0 562.036 3.45422 577.385 10.3627C592.734 17.0552 604.841 26.9861 613.704 40.1553C622.568 53.3245 627.216 69.5162 627.648 88.7303C628.081 98.2294 628.297 107.836 628.297 117.551C628.297 127.051 628.081 136.334 627.648 145.401C627 164.831 622.244 181.131 613.38 194.3C604.733 207.253 592.734 216.968 577.385 223.445C562.252 229.922 544.417 233.16 523.879 233.16ZM523.879 178.108C532.959 178.108 540.417 175.41 546.254 170.012C552.091 164.399 555.118 155.548 555.334 143.458C555.766 134.175 555.983 125.215 555.983 116.58C555.983 107.728 555.766 98.7691 555.334 89.7018C555.118 81.7139 553.605 75.1293 550.794 69.948C548.2 64.7666 544.525 60.9886 539.769 58.6138C535.229 56.239 529.932 55.0516 523.879 55.0516C517.826 55.0516 512.421 56.239 507.665 58.6138C502.909 60.9886 499.126 64.7666 496.315 69.948C493.721 75.1293 492.316 81.7139 492.1 89.7018C491.883 98.7691 491.775 107.728 491.775 116.58C491.775 125.215 491.883 134.175 492.1 143.458C492.532 155.548 495.558 164.399 501.179 170.012C507.016 175.41 514.583 178.108 523.879 178.108Z" fill="#FFF9E0" fill-opacity="0.06"/>
<path d="M663.502 229.922C661.34 229.922 659.394 229.166 657.665 227.655C655.935 225.928 655.07 223.877 655.07 221.502V11.658C655.07 9.28321 655.935 7.34021 657.665 5.829C659.394 4.10188 661.34 3.23833 663.502 3.23833H752.354C773.324 3.23833 791.484 6.69255 806.833 13.601C822.182 20.2935 834.289 30.2244 843.153 43.3936C852.016 56.5628 856.772 72.7545 857.421 91.9686C857.853 101.252 858.069 109.456 858.069 116.58C858.069 123.704 857.853 131.8 857.421 140.867C856.556 161.161 851.908 177.892 843.477 191.062C835.262 204.231 823.588 214.054 808.455 220.53C793.322 226.791 775.162 229.922 753.976 229.922H663.502ZM724.79 174.87H752.354C759.488 174.87 765.542 173.683 770.514 171.308C775.486 168.933 779.378 165.263 782.188 160.297C784.998 155.116 786.512 148.531 786.728 140.544C786.944 134.283 787.052 128.67 787.052 123.704C787.268 118.739 787.268 113.773 787.052 108.808C787.052 103.842 786.944 98.3373 786.728 92.2924C786.295 80.4186 782.836 71.783 776.351 66.3858C770.081 60.9886 761.542 58.29 750.733 58.29H724.79V174.87Z" fill="#FFF9E0" fill-opacity="0.06"/>
<path d="M974.336 233.16C951.637 233.16 932.72 230.029 917.587 223.769C902.671 217.292 891.429 208.98 883.862 198.834C876.512 188.471 872.621 177.569 872.188 166.126C872.188 164.183 872.837 162.564 874.134 161.269C875.431 159.974 877.052 159.326 878.998 159.326H930.559C933.585 159.326 935.963 159.866 937.693 160.945C939.422 161.809 941.26 163.104 943.205 164.831C945.151 167.206 947.421 169.473 950.015 171.632C952.61 173.575 955.961 175.194 960.068 176.489C964.176 177.569 968.932 178.108 974.336 178.108C984.281 178.108 991.956 176.813 997.36 174.222C1002.76 171.416 1005.47 167.638 1005.47 162.888C1005.47 159.218 1003.95 156.196 1000.93 153.821C998.117 151.446 993.253 149.287 986.335 147.344C979.417 145.401 970.013 143.35 958.122 141.191C941.476 138.385 927.1 134.283 914.993 128.886C902.887 123.272 893.591 115.824 887.105 106.541C880.836 97.042 877.701 85.384 877.701 71.5671C877.701 57.5344 881.592 45.1208 889.375 34.3263C897.374 23.5319 908.399 15.1122 922.452 9.06733C936.72 3.02244 953.258 0 972.066 0C987.632 0 1001.36 2.05094 1013.25 6.15283C1025.36 10.2547 1035.52 15.6519 1043.73 22.3445C1051.95 28.8212 1058.22 35.8375 1062.54 43.3936C1066.86 50.9498 1069.13 58.182 1069.35 65.0905C1069.35 67.0335 1068.59 68.7606 1067.08 70.2718C1065.78 71.5671 1064.27 72.2148 1062.54 72.2148H1008.39C1005.79 72.2148 1003.52 71.783 1001.58 70.9195C999.846 70.0559 998.225 68.6526 996.712 66.7096C995.631 63.6872 992.928 60.9886 988.605 58.6138C984.281 56.239 978.768 55.0516 972.066 55.0516C964.716 55.0516 959.095 56.347 955.204 58.9376C951.312 61.3124 949.367 64.8746 949.367 69.6241C949.367 72.8625 950.556 75.669 952.934 78.0438C955.312 80.4186 959.528 82.5774 965.581 84.5204C971.634 86.2476 980.065 88.1906 990.875 90.3494C1011.41 93.3719 1027.95 97.6897 1040.49 103.303C1053.24 108.916 1062.54 116.256 1068.38 125.323C1074.21 134.391 1077.13 145.725 1077.13 159.326C1077.13 174.654 1072.7 187.823 1063.84 198.834C1054.97 209.844 1042.76 218.371 1027.19 224.416C1011.84 230.245 994.225 233.16 974.336 233.16Z" fill="#FFF9E0" fill-opacity="0.06"/>
</svg>
