<svg width="254" height="141" viewBox="0 0 254 141" fill="none" xmlns="http://www.w3.org/2000/svg">
<path d="M116.732 24.8861C148.31 18.3609 178.036 17.5665 200.561 21.5397C211.825 23.5265 221.262 26.7013 228.226 30.9266C235.189 35.1512 239.64 40.3991 241.033 46.5314C242.425 52.6637 240.65 59.1984 236.145 65.7926C231.638 72.3881 224.425 79.0036 215.033 85.2587C196.252 97.7675 168.846 108.778 137.268 115.303C105.69 121.828 75.9643 122.624 53.4393 118.651C42.1756 116.664 32.7387 113.489 25.7747 109.264C18.8122 105.039 14.361 99.7911 12.9681 93.6589C11.5753 87.5265 13.3505 80.9921 17.856 74.3977C22.3623 67.8021 29.5755 61.1868 38.9675 54.9316C57.7491 42.4228 85.1546 31.4114 116.732 24.8861Z" stroke="#C94430"/>
<path d="M124.966 23.8618C157.231 22.4424 186.649 26.3823 208.123 33.8819C218.86 37.6321 227.587 42.2639 233.69 47.539C239.792 52.8135 243.237 58.6985 243.513 64.9689C243.789 71.2392 240.874 77.4032 235.258 83.193C229.642 88.9838 221.356 94.3639 210.989 99.0425C190.257 108.399 161.299 114.907 129.034 116.326C96.7689 117.745 67.3518 113.805 45.8783 106.306C35.1401 102.556 26.4134 97.9242 20.31 92.6488C14.2078 87.3745 10.7626 81.4903 10.4867 75.2199C10.2109 68.9495 13.126 62.7847 18.7416 56.9948C24.3581 51.204 32.6446 45.824 43.0118 41.1453C63.7438 31.7891 92.7013 25.2812 124.966 23.8618Z" stroke="#C94430"/>
</svg>
