<svg width="206" height="68" viewBox="0 0 206 68" fill="none" xmlns="http://www.w3.org/2000/svg">
<path d="M8.49362 53.6613C6.21348 53.6613 4.39868 53.0348 3.04921 51.782C1.74627 50.5292 1.09481 48.6964 1.09481 46.2836V36.4699C1.09481 31.5514 1.83934 27.8161 3.32841 25.2641C4.81748 22.7121 6.70208 20.8793 8.98222 19.7657L8.63322 18.4432H7.44662C5.30608 18.4432 3.60761 17.7704 2.35121 16.4248C1.14134 15.0328 0.513138 13.1536 0.466604 10.7871C0.420071 8.46712 1.02501 6.6111 2.28141 5.21908C3.58434 3.82707 5.30608 3.13106 7.44662 3.13106H31.8767C36.8557 3.13106 39.3453 5.45109 39.3453 10.0911C39.3453 12.1792 38.7403 13.8496 37.5305 15.1024C36.3206 16.3552 34.436 16.9816 31.8767 16.9816H18.2656C16.5439 16.9816 15.683 17.9792 15.683 19.9745V24.9857C17.8701 24.3825 20.1502 23.6865 22.5234 22.8977C24.8966 22.1089 27.1768 21.7145 29.3639 21.7145C31.6905 21.7145 33.4821 22.2945 34.7385 23.4545C36.0414 24.5681 36.6929 26.2849 36.6929 28.605C36.6929 30.8786 36.0414 32.5954 34.7385 33.7554C33.4821 34.869 31.6905 35.449 29.3639 35.4954C27.1768 35.5418 24.8734 35.1938 22.4536 34.4514C20.0804 33.6626 17.8003 32.9666 15.6132 32.3634L15.5434 46.2836C15.5434 48.6964 14.892 50.5292 13.589 51.782C12.3326 53.0348 10.6342 53.6613 8.49362 53.6613Z" fill="#FFF9E0"/>
<path d="M56.5755 53.8005C51.1311 53.8005 46.7803 52.1996 43.5229 48.998C40.3121 45.75 38.7067 41.1795 38.7067 35.2866C38.7067 31.6674 39.4512 28.489 40.9403 25.7513C42.4294 23.0137 44.5001 20.8793 47.1525 19.348C49.8515 17.7704 52.9925 16.9816 56.5755 16.9816C60.5774 16.9816 63.9046 17.7704 66.557 19.348C69.2094 20.8793 71.187 23.0137 72.49 25.7513C73.8394 28.489 74.5142 31.6674 74.5142 35.2866C74.5142 41.1795 73.0251 45.75 70.047 48.998C67.1154 52.1996 62.6249 53.8005 56.5755 53.8005ZM47.0129 34.1034C47.0129 35.5418 47.7342 36.5627 49.1767 37.1659C50.6193 37.7227 53.0855 38.0011 56.5755 38.0011C60.0655 38.0011 62.5318 37.7227 63.9744 37.1659C65.4169 36.5627 66.1382 35.5418 66.1382 34.1034C66.1382 32.7114 65.4169 31.737 63.9744 31.1802C62.5318 30.6234 60.0655 30.345 56.5755 30.345C53.0855 30.345 50.6193 30.6234 49.1767 31.1802C47.7342 31.737 47.0129 32.7114 47.0129 34.1034Z" fill="#FFF9E0"/>
<path d="M84.8179 53.6613C82.6308 53.6613 80.9323 53.0348 79.7225 51.782C78.5126 50.5292 77.9077 48.9516 77.9077 47.0492V24.2201C77.9077 22.2249 78.5126 20.5777 79.7225 19.2785C80.9323 17.9328 82.6308 17.26 84.8179 17.26C87.0049 17.26 88.6801 17.9328 89.8435 19.2785C91.0068 20.5777 91.5885 22.1785 91.5885 24.0809V25.5425H92.9147C93.1008 23.0833 94.0315 21.0649 95.7067 19.4873C97.3819 17.9096 99.3596 17.1208 101.64 17.1208C103.92 17.1208 105.711 17.8168 107.014 19.2088C108.364 20.6009 109.039 22.4569 109.039 24.7769C109.039 26.9577 108.41 28.7674 107.154 30.2058C105.898 31.6442 104.292 32.3634 102.338 32.3634C100.709 32.3634 99.3363 31.9922 98.2195 31.2498C97.1492 30.461 96.3582 29.5562 95.8463 28.5354C94.3572 28.3498 93.2637 28.5122 92.5657 29.0226C91.9142 29.4866 91.5885 30.4378 91.5885 31.8762V47.0492C91.5885 48.9516 91.0068 50.5292 89.8435 51.782C88.6801 53.0348 87.0049 53.6613 84.8179 53.6613Z" fill="#FFF9E0"/>
<path d="M118.282 53.6613C116.234 53.6613 114.605 53.058 113.396 51.8516C112.186 50.5988 111.581 49.0676 111.581 47.258V6.95911C111.581 5.01028 112.162 3.36306 113.326 2.01745C114.536 0.671831 116.234 -0.000976562 118.421 -0.000976562C120.562 -0.000976562 122.167 0.671831 123.237 2.01745C124.354 3.36306 124.913 5.03348 124.913 7.02871V28.1178L125.122 28.1874C125.355 26.2385 125.96 24.4521 126.937 22.8281C127.914 21.1577 129.287 19.8121 131.055 18.7912C132.823 17.7704 134.987 17.26 137.546 17.26C140.99 17.26 143.759 18.2112 145.853 20.1137C147.947 22.0161 148.994 24.6145 148.994 27.909C148.994 30.1826 148.528 31.9922 147.598 33.3378C146.713 34.637 145.504 35.5418 143.968 36.0522C142.432 36.5627 140.734 36.7947 138.873 36.7483V37.9315C143.014 37.9315 145.946 38.7667 147.667 40.4371C149.436 42.0611 150.32 44.1259 150.32 46.6316C150.32 48.9516 149.622 50.738 148.226 51.9908C146.83 53.2437 145.155 53.8469 143.2 53.8005C141.06 53.7541 139.291 53.1276 137.895 51.9212C136.499 50.7148 135.336 49.0908 134.405 47.0492L131.404 40.7155C130.799 39.4627 130.008 38.5579 129.031 38.0011C128.1 37.4443 126.727 37.2355 124.913 37.3747V47.258C124.913 49.0676 124.308 50.5988 123.098 51.8516C121.934 53.058 120.329 53.6613 118.282 53.6613ZM126.378 32.6418C126.378 33.2914 126.704 33.7786 127.356 34.1034C128.054 34.3818 129.473 34.521 131.613 34.521C133.707 34.521 135.103 34.3818 135.801 34.1034C136.499 33.825 136.848 33.3378 136.848 32.6418C136.848 31.9922 136.499 31.505 135.801 31.1802C135.103 30.8554 133.731 30.693 131.683 30.693C129.496 30.693 128.054 30.8554 127.356 31.1802C126.704 31.505 126.378 31.9922 126.378 32.6418Z" fill="#FFF9E0"/>
<path d="M159.722 53.6613C157.442 53.6613 155.72 53.058 154.557 51.8516C153.44 50.6452 152.882 49.1372 152.882 47.3276V6.95911C152.882 4.96388 153.44 3.31666 154.557 2.01745C155.72 0.671831 157.442 -0.000976562 159.722 -0.000976562C161.77 -0.000976562 163.352 0.671831 164.469 2.01745C165.585 3.31666 166.144 4.91748 166.144 6.8199V47.3276C166.144 49.1372 165.585 50.6452 164.469 51.8516C163.352 53.058 161.77 53.6613 159.722 53.6613Z" fill="#FFF9E0"/>
<path d="M183.198 67.999C180.08 67.999 177.521 67.4886 175.52 66.4678C173.565 65.447 172.03 64.1014 170.913 62.431C169.982 60.9925 169.447 59.4845 169.308 57.9069C169.215 56.3293 169.517 54.8677 170.215 53.5221C170.913 52.13 171.96 51.0628 173.356 50.3204C174.799 49.5316 176.241 49.23 177.684 49.4156C179.126 49.5548 180.452 50.0884 181.662 51.0164C182.872 51.898 183.803 53.058 184.454 54.4965C185.152 56.0277 185.85 57.1413 186.548 57.8373C187.293 58.5797 188.247 58.7421 189.41 58.3245C190.527 57.9533 190.922 56.9325 190.597 55.2621C190.317 53.5917 189.713 51.6196 188.782 49.346H186.199C184.198 49.346 182.197 48.6268 180.196 47.1884C178.196 45.75 176.52 43.4763 175.171 40.3675L169.447 27.1433C168.563 25.0553 168.47 23.1297 169.168 21.3665C169.913 19.6033 171.239 18.3272 173.147 17.5384C174.915 16.7496 176.66 16.7032 178.382 17.3992C180.103 18.0952 181.453 19.5801 182.43 21.8537L187.735 34.173C188.619 36.1682 189.573 37.6067 190.597 38.4883C191.667 39.3699 192.784 39.5091 193.947 38.9059C194.971 38.3491 195.529 37.5835 195.622 36.6091C195.715 35.5882 195.227 34.3586 194.156 32.9202C193.691 32.2706 193.133 31.5514 192.481 30.7626C191.876 29.9738 191.318 29.069 190.806 28.0482C190.341 26.9809 190.108 25.7977 190.108 24.4985C190.108 22.3177 190.853 20.5313 192.342 19.1392C193.831 17.7008 195.785 16.9816 198.205 16.9816C200.392 16.9816 202.137 17.6776 203.44 19.0696C204.789 20.4617 205.464 22.2713 205.464 24.4985C205.464 26.0761 205.278 27.8162 204.906 29.7186C204.533 31.621 204.115 33.3842 203.649 35.0082L198.624 53.3133C197.879 56.0509 196.902 58.5333 195.692 60.7605C194.482 62.9878 192.877 64.751 190.876 66.0502C188.875 67.3494 186.316 67.999 183.198 67.999Z" fill="#FFF9E0"/>
</svg>
