<svg width="80" height="80" viewBox="0 0 80 80" fill="none" xmlns="http://www.w3.org/2000/svg">
<path d="M73.8398 66.6401L65.5998 54.0801C65.6798 53.5201 65.7598 52.9601 65.7598 52.4001C65.9198 50.8001 66.0798 49.2001 66.6398 47.7601C67.2798 46.2401 68.3198 45.0401 69.2798 43.8401C70.8798 41.8401 72.6398 39.8401 72.6398 36.7201C72.6398 33.6001 70.9598 31.6001 69.2798 29.6001C68.2398 28.4001 67.1998 27.1201 66.6398 25.6001C65.9998 24.0801 65.8398 22.4801 65.7598 20.9601C65.5198 18.4001 65.2798 15.7601 63.1198 13.6001C60.9598 11.4401 58.3198 11.2001 55.7598 10.9601C54.1598 10.8001 52.5598 10.6401 51.0398 10.0001C49.5198 9.36008 48.3198 8.32008 47.1198 7.36008C45.1198 5.76008 43.1198 4.08008 39.9998 4.08008C36.8798 4.08008 34.8798 5.76008 32.8798 7.36008C31.6798 8.40008 30.3998 9.36008 28.8798 10.0001C27.3598 10.6401 25.7598 10.8001 24.1598 10.9601C21.5998 11.2001 18.9598 11.4401 16.7998 13.6001C14.6398 15.7601 14.3998 18.4001 14.1598 20.9601C13.9998 22.5601 13.8398 24.1601 13.1998 25.6801C12.5598 27.2001 11.5198 28.4001 10.5598 29.6801C8.95977 31.6801 7.27977 33.6801 7.27977 36.8001C7.27977 39.9201 8.95977 41.9201 10.5598 43.9201C11.5998 45.1201 12.5598 46.4001 13.1998 47.9201C13.8398 49.4401 13.9998 51.0401 14.1598 52.6401C14.2398 53.2001 14.2398 53.7601 14.3198 54.3201L6.15977 66.6401C5.91977 67.0401 5.91977 67.4401 6.07977 67.8401C6.23977 68.2401 6.63977 68.4801 7.11977 68.4801L14.3998 68.8001L17.5198 75.3601C17.6798 75.7601 18.0798 76.0001 18.5598 76.0001H18.6398C19.0398 76.0001 19.4398 75.7601 19.6798 75.4401L27.9198 62.9601C28.3198 63.0401 28.7198 63.2001 29.0398 63.3601C30.5598 64.0001 31.7598 65.0401 33.0398 66.0001C35.0398 67.6001 37.0398 69.2801 40.1598 69.2801C43.2798 69.2801 45.2798 67.6001 47.2798 66.0001C48.4798 64.9601 49.7598 64.0001 51.1998 63.3601C51.5998 63.2001 51.9198 63.0401 52.3198 62.9601L60.5598 75.4401C60.7998 75.7601 61.1998 76.0001 61.5998 76.0001H61.6798C62.0798 76.0001 62.4798 75.6801 62.7198 75.3601L65.5998 68.8001L72.8798 68.4801C73.2798 68.4801 73.6798 68.2401 73.9198 67.8401C74.0798 67.4401 74.0798 66.9601 73.8398 66.6401ZM18.7198 72.4001L16.1598 67.1201C15.9998 66.7201 15.5998 66.4001 15.1998 66.4001L9.35977 66.1601L15.1998 57.2001C15.5998 58.0801 16.0798 58.9601 16.8798 59.7601C19.0398 61.9201 21.6798 62.1601 24.2398 62.4001C24.5598 62.4001 24.8798 62.4801 25.1998 62.4801L18.7198 72.4001ZM50.1598 61.1201C48.3198 61.8401 46.9598 63.0401 45.5998 64.1601C43.8398 65.6801 42.2398 66.9601 39.9998 66.9601C37.7598 66.9601 36.2398 65.6801 34.3998 64.1601C33.0398 63.0401 31.6798 61.9201 29.8398 61.1201C27.9998 60.4001 26.2398 60.1601 24.4798 60.0001C22.1598 59.7601 20.1598 59.6001 18.5598 58.0001C16.9598 56.4001 16.7998 54.4001 16.5598 52.0801C16.3998 50.3201 16.2398 48.5601 15.4398 46.7201C14.7198 44.8801 13.5198 43.5201 12.3998 42.1601C10.8798 40.4001 9.59977 38.8001 9.59977 36.5601C9.59977 34.3201 10.8798 32.8001 12.3998 30.9601C13.5198 29.6001 14.6398 28.2401 15.4398 26.4001C16.1598 24.5601 16.3998 22.8001 16.5598 21.0401C16.7998 18.7201 16.9598 16.7201 18.5598 15.1201C20.1598 13.5201 22.1598 13.3601 24.4798 13.1201C26.2398 12.9601 27.9998 12.8001 29.8398 12.0001C31.6798 11.2801 33.0398 10.0801 34.3998 8.96008C36.2398 7.68008 37.7598 6.40008 39.9998 6.40008C42.2398 6.40008 43.7598 7.68008 45.5998 9.20008C46.9598 10.3201 48.3198 11.4401 50.1598 12.2401C51.9998 12.9601 53.7598 13.2001 55.5198 13.3601C57.8398 13.6001 59.8398 13.7601 61.4398 15.3601C63.0398 16.9601 63.1998 18.9601 63.4398 21.2801C63.5998 23.0401 63.7598 24.8001 64.5598 26.6401C65.2798 28.4801 66.4798 29.8401 67.5998 31.2001C69.1198 32.9601 70.3998 34.5601 70.3998 36.8001C70.3998 39.0401 69.1198 40.5601 67.5998 42.4001C66.4798 43.7601 65.3598 45.1201 64.5598 46.9601C63.8398 48.8001 63.5998 50.5601 63.4398 52.3201C63.1998 54.6401 63.0398 56.6401 61.4398 58.2401C59.8398 59.8401 57.8398 60.0001 55.5198 60.2401C53.7598 60.2401 51.9998 60.4001 50.1598 61.1201ZM64.7998 66.4001C64.3198 66.4001 63.9998 66.6401 63.7598 67.0401L61.1998 72.3201L54.7198 62.4801C55.0398 62.4801 55.3598 62.4001 55.6798 62.4001C58.2398 62.1601 60.8798 61.9201 63.0398 59.7601C63.8398 58.9601 64.3998 58.0801 64.7198 57.2001L70.5598 66.1601L64.7998 66.4001Z" fill="#C94430"/>
<path d="M62.9595 36.6402C62.9595 24.0002 52.6396 13.6802 39.9996 13.6802C27.2796 13.6802 17.0396 24.0002 17.0396 36.6402C17.0396 49.2802 27.3596 59.6002 39.9996 59.6002C52.6396 59.6802 62.9595 49.3602 62.9595 36.6402ZM37.1996 37.6802C37.1996 39.6802 35.5996 41.2802 33.5996 41.2802C31.5996 41.2802 29.9996 39.6802 29.9996 37.6802H37.1996ZM50.0796 37.5202V47.8402H46.0795V31.6802C47.8396 32.4002 50.0796 34.4802 50.0796 37.5202ZM46.0795 56.3202V50.1602H51.2796C51.9196 50.1602 52.4795 49.6002 52.4795 48.9602V37.5202C52.4795 32.4002 47.9995 29.1202 44.8796 29.1202C44.2395 29.1202 43.6796 29.6802 43.6796 30.3202V49.0402V56.9602C42.4796 57.2002 41.2796 57.2802 39.9996 57.2802C38.1596 57.2802 36.3996 57.0402 34.7196 56.6402V43.6002C37.4396 43.0402 39.5196 40.6402 39.5196 37.6802V30.2402C39.5196 29.6002 38.9596 29.0402 38.3196 29.0402C37.6796 29.0402 37.1196 29.6002 37.1196 30.2402V35.2802H34.7196V30.2402C34.7196 29.6002 34.1596 29.0402 33.5196 29.0402C32.8796 29.0402 32.3196 29.6002 32.3196 30.2402V35.2802H29.9196V30.2402C29.9196 29.6002 29.3596 29.0402 28.7196 29.0402C28.0796 29.0402 27.5196 29.6002 27.5196 30.2402V37.6802C27.5196 40.5602 29.5996 43.0402 32.3196 43.6002V55.8402C24.7996 52.7202 19.4396 45.3602 19.4396 36.6402C19.4396 25.2802 28.7196 16.0802 39.9996 16.0802C51.3596 16.0802 60.5596 25.3602 60.5596 36.6402C60.5596 45.9202 54.4795 53.7602 46.0795 56.3202Z" fill="#C94430"/>
</svg>
