<svg width="80" height="80" viewBox="0 0 80 80" fill="none" xmlns="http://www.w3.org/2000/svg">
<g clip-path="url(#clip0_44_1355)">
<path d="M79.2054 33.3103C78.87 30.2489 76.3936 27.8709 73.3175 27.6559C70.6205 27.466 67.9216 27.3149 65.2963 27.2071C60.6186 27.0105 55.8813 26.9306 51.193 26.9658C51.5041 20.2932 51.2991 13.5918 50.5717 6.95666C50.2475 3.99046 47.8499 1.68604 44.8712 1.47727C34.684 0.76314 24.3584 0.617814 14.1819 1.04567C11.6396 1.1513 9.04392 1.29647 6.46681 1.47727C3.48811 1.68604 1.08945 3.99015 0.763174 6.95651C-0.253792 16.2427 -0.254417 25.663 0.761455 34.9565C1.08836 37.9284 3.48779 40.2364 6.46603 40.4448L7.06577 40.4873C7.9185 40.5444 8.58638 41.258 8.58638 42.1119V47.6841C8.58638 49.0009 9.31894 50.1816 10.4986 50.7658C10.986 51.0072 11.508 51.1259 12.0268 51.1259C12.7624 51.1259 13.4912 50.887 14.1042 50.4199C15.2682 49.5341 16.376 48.6315 17.3967 47.7374C17.8835 47.3109 17.9325 46.5704 17.5059 46.0836C17.0795 45.5967 16.3389 45.5478 15.8522 45.9742C14.8718 46.8331 13.8059 47.7013 12.6841 48.5551C12.3466 48.8123 11.9186 48.8532 11.5387 48.6653C11.1577 48.4765 10.9302 48.1097 10.9302 47.6841V42.1119C10.9302 40.0285 9.30144 38.2876 7.22657 38.1488L6.63042 38.1065C4.7826 37.9773 3.29403 36.5446 3.09151 34.701C2.09408 25.5774 2.0947 16.3286 3.09307 7.21216C3.29528 5.3734 4.78307 3.94483 6.63089 3.81529C9.18596 3.63605 11.759 3.49213 14.2799 3.38744C24.369 2.96349 34.6068 3.10726 44.7073 3.81529C46.5542 3.94483 48.0407 5.37309 48.2418 7.21169C49.2419 16.3363 49.2419 25.5886 48.2417 34.712C48.2006 35.0883 48.1048 35.453 47.956 35.7983C47.3894 37.1217 46.1435 38.006 44.7038 38.1065C37.9551 38.5815 31.084 38.8047 24.28 38.7708C24.2708 38.7708 24.2617 38.7708 24.2526 38.7708C22.9484 38.7708 21.7318 39.4033 20.9939 40.4659C20.4759 41.2108 19.8429 41.997 19.1125 42.803C18.6779 43.2826 18.7143 44.0237 19.1939 44.4585C19.6733 44.893 20.4146 44.8568 20.8494 44.3771C21.6469 43.497 22.3429 42.6314 22.9188 41.8037C23.2185 41.3718 23.7163 41.1149 24.2545 41.1149H24.2659C25.1344 41.1193 26.004 41.1193 26.8743 41.1154C26.5161 48.1941 26.7255 55.3587 27.4995 62.4338C27.5698 63.0647 27.7306 63.6743 27.9759 64.2415C28.9191 66.4467 30.9932 67.9198 33.3872 68.0859C40.4735 68.5842 47.6821 68.8174 54.8116 68.7825H54.8233C55.3968 68.7825 55.9298 69.0576 56.251 69.5201C58.6618 72.9893 62.5608 76.3013 65.407 78.4686C66.0365 78.9483 66.7846 79.1936 67.5396 79.1936C68.0722 79.1936 68.6082 79.0717 69.1084 78.8239C70.3188 78.2245 71.0709 77.0126 71.0709 75.6613V69.867C71.0709 68.9544 71.7842 68.1912 72.6962 68.1298L72.7225 68.1281C72.9226 68.1143 73.1228 68.1008 73.3181 68.0859C76.3943 67.8712 78.8707 65.4879 79.2068 62.4187C79.2413 62.1026 79.2743 61.7864 79.3074 61.4686C79.3743 60.8248 78.9068 60.2486 78.2628 60.1818C77.6173 60.1144 77.0428 60.5826 76.976 61.2264C76.9435 61.54 76.9108 61.8521 76.8767 62.164C76.6644 64.1048 75.0991 65.6119 73.1487 65.7482C72.9523 65.763 72.7575 65.7763 72.5626 65.7896L72.5374 65.7913C70.4007 65.9354 68.7269 67.7257 68.7269 69.8672V75.6614C68.7269 76.1223 68.4807 76.5193 68.0683 76.7236C67.6565 76.9273 67.1927 76.8828 66.8274 76.6042C64.1151 74.5387 60.4123 71.4012 58.1763 68.1831C57.417 67.0894 56.1652 66.4387 54.8252 66.4387C54.8162 66.4387 54.8072 66.4387 54.7982 66.4387C47.7274 66.474 40.5797 66.242 33.5508 65.7477C32.0371 65.6427 30.727 64.7123 30.1294 63.3158C29.9749 62.9579 29.8738 62.5739 29.8294 62.1765C29.0642 55.1805 28.8612 48.0938 29.2229 41.0938C34.4535 41.0253 39.6967 40.8086 44.8675 40.4447C47.1873 40.2829 49.1963 38.8561 50.1095 36.7236C50.3497 36.1663 50.5051 35.5752 50.5716 34.967C50.7777 33.0864 50.94 31.2001 51.0627 29.3107C55.7597 29.2729 60.5092 29.3516 65.1988 29.5487C67.8023 29.6557 70.4783 29.8054 73.1533 29.9937C75.0978 30.1297 76.6631 31.6315 76.875 33.565C77.7126 41.2151 77.8773 48.9662 77.3643 56.6028C77.321 57.2487 77.8093 57.8073 78.455 57.8506C78.4819 57.8525 78.5083 57.8534 78.5349 57.8534C79.1462 57.8534 79.6614 57.379 79.7031 56.7599C80.2255 48.9867 80.058 41.0969 79.2054 33.3103Z" fill="#C94430"/>
<path d="M68.3787 50.1789C68.3973 49.2574 68.0469 48.3821 67.3922 47.7139C67.2765 47.5959 67.1531 47.4867 67.0229 47.3868C67.3626 46.8518 67.5597 46.2175 67.5597 45.5379C67.5597 44.6133 67.1995 43.7448 66.5473 43.0936C65.8955 42.4407 65.0271 42.0812 64.1023 42.0812H59.4827L61.2208 38.3787C62.2056 36.2827 61.301 33.7761 59.2042 32.791C58.6411 32.5266 58.0413 32.3923 57.4214 32.3923C55.7997 32.3923 54.3062 33.3407 53.6166 34.8086L52.5452 37.0915C52.0011 38.25 51.1491 39.1934 50.0822 39.8194C49.0447 40.4274 48.2289 41.3194 47.7057 42.4026C47.3335 42.2337 46.9217 42.1373 46.487 42.1373H42.9579C41.325 42.1373 39.9966 43.4657 39.9966 45.0988V59.3512C39.9966 60.9841 41.325 62.3125 42.9579 62.3125H46.487C47.0446 62.3125 47.5648 62.1549 48.0106 61.8858C48.845 62.4205 49.8154 62.7083 50.8294 62.7083H63.2821C65.1881 62.7083 66.7387 61.1573 66.7387 59.2508C66.7387 58.8246 66.6619 58.408 66.5107 58.0121C66.5069 58.0017 66.5029 57.9912 66.4988 57.9807C66.4204 57.7827 66.3252 57.5943 66.2136 57.4163C67.032 56.7834 67.5598 55.7921 67.5598 54.68C67.5598 54.0188 67.3756 53.3861 67.032 52.8411C67.8321 52.2201 68.3576 51.2575 68.3787 50.1789ZM42.9575 59.9686C42.617 59.9686 42.3401 59.6917 42.3401 59.3512V45.0988C42.3401 44.7583 42.617 44.4812 42.9575 44.4812H46.4865C46.8272 44.4812 47.1041 44.7583 47.1041 45.0988V59.3512C47.1041 59.6917 46.8272 59.9686 46.4865 59.9686H42.9575ZM64.923 51.2231H64.102C63.4546 51.2231 62.93 51.7478 62.93 52.3951C62.93 53.0423 63.4546 53.5671 64.102 53.5671C64.4 53.5671 64.6793 53.6822 64.8896 53.8929C65.0998 54.1027 65.2156 54.3821 65.2156 54.6798C65.2156 55.2938 64.7161 55.7933 64.102 55.7933H63.2818C62.6344 55.7933 62.1098 56.3181 62.1098 56.9653C62.1098 57.6126 62.6344 58.1373 63.2818 58.1373C63.5795 58.1373 63.859 58.2531 64.0691 58.463C64.1742 58.5681 64.2561 58.6908 64.3128 58.8278C64.3144 58.8319 64.316 58.836 64.3175 58.84C64.3685 58.9703 64.3944 59.1085 64.3944 59.2507C64.3944 59.8646 63.8953 60.3642 63.2818 60.3642H50.8291C50.3122 60.3642 49.817 60.2266 49.381 59.9737C49.4241 59.7728 49.4482 59.5646 49.4482 59.351C49.4482 59.351 49.4482 45.0808 49.4481 45.0769C49.4382 44.5401 49.5432 44.0199 49.7606 43.5308C50.0776 42.8175 50.5985 42.2334 51.2674 41.8415C52.7448 40.9748 53.9202 39.6767 54.6665 38.0878L55.7378 35.805C56.0429 35.1559 56.7036 34.7363 57.421 34.7363C57.6938 34.7363 57.9582 34.7955 58.2071 34.9124C59.1341 35.3479 59.5341 36.4557 59.0988 37.3822L56.5921 42.7219C56.4262 43.0755 56.4471 43.4888 56.6484 43.8237C56.6665 43.8537 56.6771 43.8696 56.6884 43.8867C56.904 44.2221 57.2755 44.4251 57.6744 44.4251H64.102C64.4 44.4251 64.6793 44.5403 64.8896 44.7511C65.0999 44.9608 65.2156 45.2404 65.2156 45.5379C65.2156 46.1523 64.7161 46.6521 64.102 46.6521C63.4546 46.6521 62.93 47.1768 62.93 47.824C62.93 48.4713 63.4546 48.996 64.102 48.996H64.8715C65.1863 48.996 65.4948 49.1267 65.7181 49.3543C65.9284 49.569 66.041 49.845 66.0352 50.1322C66.0235 50.7338 65.5245 51.2231 64.923 51.2231Z" fill="#C94430"/>
<path d="M36.4941 15.9176C36.4941 13.5279 35.3241 11.5836 33.8859 11.5836C32.4478 11.5836 31.2778 13.5279 31.2778 15.9176C31.2778 18.3073 32.4478 20.2516 33.8859 20.2516C35.3241 20.2516 36.4941 18.3073 36.4941 15.9176Z" fill="#C94430"/>
<path d="M20.0585 15.9176C20.0585 13.5279 18.8886 11.5836 17.4503 11.5836C16.0122 11.5836 14.8423 13.5279 14.8423 15.9176C14.8423 18.3073 16.0122 20.2516 17.4503 20.2516C18.8886 20.2516 20.0585 18.3073 20.0585 15.9176Z" fill="#C94430"/>
<path d="M25.6682 31.3512C29.871 31.3512 33.6425 28.8476 35.2761 24.9728C35.5275 24.3764 35.2478 23.6891 34.6515 23.4375C34.0545 23.1864 33.3676 23.4658 33.1162 24.0623C31.8498 27.0663 28.9263 29.0073 25.6682 29.0073C22.4099 29.0073 19.4864 27.0663 18.22 24.0623C17.9687 23.4658 17.2808 23.1866 16.6847 23.4375C16.0884 23.689 15.8087 24.3764 16.0601 24.9728C17.6935 28.8476 21.465 31.3512 25.6682 31.3512Z" fill="#C94430"/>
</g>
<defs>
<clipPath id="clip0_44_1355">
<rect width="80" height="80" fill="white"/>
</clipPath>
</defs>
</svg>
