<svg width="80" height="80" viewBox="0 0 80 80" fill="none" xmlns="http://www.w3.org/2000/svg">
<path d="M5.05 23.2471C5.49297 23.7765 6.28156 23.847 6.81078 23.4034C7.33984 22.9603 7.40953 22.1717 6.9664 21.6434L3.27093 17.2284C2.82781 16.6987 2.03875 16.6278 1.51015 17.0721C0.980465 17.5153 0.910309 18.3024 1.35328 18.8321L5.05 23.2471Z" fill="#C94430"/>
<path d="M20.9794 13.6044C21.2139 14.2599 21.9363 14.5912 22.5764 14.3601C23.227 14.1282 23.5652 13.4129 23.3327 12.7623L21.3927 7.33898C21.1602 6.6896 20.4448 6.35022 19.7948 6.58335C19.1448 6.81522 18.8067 7.53179 19.0392 8.18116L20.9794 13.6044Z" fill="#C94430"/>
<path d="M39.9998 11.345C40.6902 11.345 41.2497 10.7861 41.2497 10.0951V4.33749C41.2497 3.64655 40.6902 3.08765 39.9998 3.08765C39.3095 3.08765 38.75 3.64671 38.75 4.33749V10.095C38.75 10.7859 39.3095 11.345 39.9998 11.345Z" fill="#C94430"/>
<path d="M59.0209 66.3954C58.789 65.7461 58.0719 65.4066 57.4239 65.6397C56.7733 65.8716 56.4351 66.5869 56.6676 67.2375L58.6078 72.6607C58.8426 73.3172 59.5648 73.6466 60.2054 73.4163C60.8554 73.1844 61.1936 72.4679 60.9611 71.8185L59.0209 66.3954Z" fill="#C94430"/>
<path d="M39.9998 68.6538C39.3095 68.6538 38.75 69.2127 38.75 69.9037V75.6626C38.75 76.3535 39.3095 76.9124 39.9998 76.9124C40.6902 76.9124 41.2497 76.3533 41.2497 75.6626V69.9037C41.2497 69.2129 40.6902 68.6538 39.9998 68.6538Z" fill="#C94430"/>
<path d="M22.5766 65.64C21.9302 65.4069 21.2114 65.7462 20.9795 66.3956L19.0392 71.8187C18.8067 72.4681 19.1448 73.1847 19.7948 73.4166C20.4355 73.647 21.1578 73.3176 21.3927 72.6609L23.3328 67.2378C23.5652 66.5873 23.227 65.872 22.5766 65.64Z" fill="#C94430"/>
<path d="M5.04978 56.7527L1.35322 61.1676C0.910093 61.6961 0.979624 62.4846 1.50884 62.9276C2.03775 63.3711 2.82634 63.301 3.26962 62.7713L6.96619 58.3563C7.40931 57.8277 7.33978 57.0393 6.81056 56.5963C6.28056 56.151 5.49228 56.2218 5.04978 56.7527Z" fill="#C94430"/>
<path d="M79.7094 39.1875C78.9844 38.325 61.7359 18.0518 40.0125 18.0518C18.2767 18.0518 1.01562 38.3252 0.290625 39.1875C-0.096875 39.65 -0.096875 40.3249 0.290625 40.7999C1.01562 41.6622 18.2767 61.9482 40.0125 61.9482C61.7358 61.9482 78.9844 41.6621 79.7094 40.7999C80.0967 40.325 80.0967 39.65 79.7094 39.1875ZM40.0125 59.4486C21.8264 59.4486 6.37766 43.7622 2.92797 39.9875C6.3775 36.2254 21.8266 20.5514 40.0125 20.5514C58.1861 20.5514 73.6348 36.2379 77.072 40C73.6348 43.7622 58.2111 59.4486 40.0125 59.4486Z" fill="#C94430"/>
<path d="M57.4237 14.3599C58.0626 14.5907 58.786 14.2612 59.0207 13.6043L60.961 8.18116C61.1935 7.53179 60.8554 6.81522 60.2054 6.58335C59.5548 6.35022 58.8402 6.6896 58.6077 7.33898L56.6676 12.7621C56.4352 13.4126 56.7732 14.1279 57.4237 14.3599Z" fill="#C94430"/>
<path d="M74.9503 23.2473L78.6469 18.8323C79.09 18.3037 79.0204 17.5152 78.4912 17.0723C77.9603 16.6268 77.1736 16.6976 76.7304 17.2285L73.0339 21.6435C72.5908 22.1721 72.6603 22.9605 73.1895 23.4035C73.7187 23.8471 74.5072 23.7769 74.9503 23.2473Z" fill="#C94430"/>
<path d="M74.9502 56.7528C74.5065 56.2231 73.7199 56.1522 73.1895 56.5965C72.6604 57.0397 72.5907 57.8283 73.0338 58.3565L76.7304 62.7726C77.1745 63.3012 77.964 63.3708 78.4912 62.9276C79.0202 62.4845 79.0899 61.6959 78.6468 61.1662L74.9502 56.7528Z" fill="#C94430"/>
<path d="M49.9737 39.6279H40.3663V30.0204C40.3663 29.3294 39.8068 28.7705 39.1165 28.7705C32.4404 28.7705 27.0093 34.2021 27.0093 40.8777C27.0093 47.5533 32.4404 52.9849 39.1165 52.9849C45.7926 52.9849 51.2237 47.5533 51.2237 40.8777C51.2235 40.1868 50.664 39.6279 49.9737 39.6279ZM39.1163 50.485C33.819 50.485 29.509 46.175 29.509 40.8777C29.509 36.0039 33.1572 31.9661 37.8665 31.351V40.8777C37.8665 41.5686 38.426 42.1275 39.1163 42.1275H48.6426C48.028 46.8368 43.9902 50.485 39.1163 50.485Z" fill="#C94430"/>
<path d="M55.9862 36.1127C55.9862 36.8126 55.4239 37.3626 54.7364 37.3626H43.8748C43.1873 37.3626 42.625 36.8126 42.625 36.1127V25.2635C42.625 24.5635 43.1875 24.0137 43.8748 24.0137C50.5494 24.0137 55.9862 29.4382 55.9862 36.1127Z" fill="#C94430"/>
</svg>
