<svg width="80" height="80" viewBox="0 0 80 80" fill="none" xmlns="http://www.w3.org/2000/svg">
<path d="M47.2237 3.66416C46.3703 3.53557 45.5741 4.12244 45.4452 4.97557C45.3162 5.82869 45.9033 6.6251 46.7566 6.754C64.2084 9.39228 76.875 21.8242 76.875 36.314C76.875 52.8915 60.333 66.3782 40 66.3782C37.5984 66.3782 35.1875 66.1863 32.8344 65.8079C32.3411 65.7281 31.8395 65.8899 31.4852 66.242C27.7384 69.9634 23.0073 72.4242 17.8989 73.357C19.7895 70.4776 21.1666 67.2567 21.938 63.8779C22.0995 63.1702 21.7523 62.4446 21.1003 62.1262C15.6972 59.4881 11.1783 55.7431 8.03219 51.2962C4.82172 46.7589 3.125 41.5781 3.125 36.314C3.125 21.8396 15.7755 9.41025 33.205 6.75978C34.0583 6.6301 34.6447 5.83322 34.515 4.9801C34.3853 4.12697 33.5895 3.54025 32.7352 3.67025C13.767 6.55478 0 20.2835 0 36.314C0 42.2281 1.89531 48.0329 5.48094 53.101C8.70453 57.6576 13.2203 61.5304 18.5934 64.3585C17.5747 68.0178 15.7548 71.4315 13.2889 74.2923C12.8819 74.7645 12.7944 75.4337 13.0666 75.9946C13.3287 76.5348 13.8758 76.8749 14.472 76.8749C14.495 76.8749 14.5183 76.8745 14.5414 76.8734C21.4825 76.566 28.0473 73.7815 33.1158 69.0118C35.3845 69.3381 37.6964 69.5034 40 69.5034C50.6283 69.5034 60.6334 66.0873 68.1722 59.8842C75.7994 53.6084 80 45.2376 80 36.314C80 20.2665 66.2156 6.5351 47.2237 3.66416Z" fill="#C94430"/>
<path d="M20.9458 44.8494C21.8086 44.8494 22.5083 44.1498 22.5083 43.2869V30.7869C22.5083 29.9239 21.8086 29.2244 20.9458 29.2244C20.083 29.2244 19.3833 29.9239 19.3833 30.7869V35.26H15.0083V30.7869C15.0083 29.9239 14.3086 29.2244 13.4458 29.2244C12.583 29.2244 11.8833 29.9239 11.8833 30.7869V43.2869C11.8833 44.1498 12.583 44.8494 13.4458 44.8494C14.3086 44.8494 15.0083 44.1498 15.0083 43.2869V38.385H19.3833V43.2869C19.3833 44.1498 20.0828 44.8494 20.9458 44.8494Z" fill="#C94430"/>
<path d="M31.6855 32.3494C32.5484 32.3494 33.248 31.6498 33.248 30.7869C33.248 29.9239 32.5484 29.2244 31.6855 29.2244H27.3105C26.4477 29.2244 25.748 29.9239 25.748 30.7869V43.2869C25.748 44.1498 26.4477 44.8494 27.3105 44.8494H31.6855C32.5484 44.8494 33.248 44.1498 33.248 43.2869C33.248 42.4239 32.5484 41.7244 31.6855 41.7244H28.873V38.5994H31.363C32.2259 38.5994 32.9255 37.8998 32.9255 37.0369C32.9255 36.1739 32.2259 35.4744 31.363 35.4744H28.873V32.3494H31.6855Z" fill="#C94430"/>
<path d="M37.3137 44.7936C37.4717 44.8323 39.7868 44.8469 40.8235 44.8386C41.6863 44.8317 42.3804 44.1265 42.3735 43.2636C42.3667 42.4048 41.6684 41.7136 40.8113 41.7136C40.8071 41.7136 40.8028 41.7136 40.7985 41.7136C40.2793 41.7176 39.7324 41.7209 39.2485 41.7228V30.7869C39.2485 29.9239 38.5488 29.2244 37.686 29.2244C36.8232 29.2244 36.1235 29.9239 36.1235 30.7869V43.2761C36.1234 43.9958 36.6148 44.6222 37.3137 44.7936Z" fill="#C94430"/>
<path d="M47.0859 29.2244C46.2231 29.2244 45.5234 29.9239 45.5234 30.7869V43.2761C45.5234 43.9958 46.015 44.6225 46.7142 44.7937C46.872 44.8323 49.1859 44.8469 50.2234 44.8386C51.0862 44.8317 51.7803 44.1265 51.7734 43.2636C51.7666 42.4048 51.0683 41.7136 50.2112 41.7136C50.207 41.7136 50.2027 41.7136 50.1984 41.7136C49.6792 41.7176 49.1323 41.7209 48.6484 41.7228V30.7869C48.6484 29.9239 47.9488 29.2244 47.0859 29.2244Z" fill="#C94430"/>
<path d="M68.0767 37.0369C68.0767 32.7291 64.572 29.2244 60.2642 29.2244C55.9563 29.2244 52.4517 32.7291 52.4517 37.0369C52.4517 41.3447 55.9563 44.8494 60.2642 44.8494C64.572 44.8494 68.0767 41.3448 68.0767 37.0369ZM55.5767 37.0369C55.5767 34.4522 57.6795 32.3494 60.2642 32.3494C62.8488 32.3494 64.9517 34.4522 64.9517 37.0369C64.9517 39.6216 62.8488 41.7244 60.2642 41.7244C57.6795 41.7244 55.5767 39.6216 55.5767 37.0369Z" fill="#C94430"/>
<path d="M39.9805 6.25024C40.8434 6.25024 41.543 5.55069 41.543 4.68774C41.543 3.8248 40.8434 3.12524 39.9805 3.12524C39.1175 3.12524 38.418 3.8248 38.418 4.68774C38.418 5.55069 39.1175 6.25024 39.9805 6.25024Z" fill="#C94430"/>
</svg>
