<svg width="84" height="52" viewBox="0 0 84 52" fill="none" xmlns="http://www.w3.org/2000/svg">
<path d="M0.399902 4.72752C0.399902 2.11671 2.52847 0.000244141 5.15419 0.000244141H78.8456C81.4713 0.000244141 83.5999 2.11672 83.5999 4.72752V47.273C83.5999 49.8838 81.4713 52.0002 78.8456 52.0002H5.15419C2.52847 52.0002 0.399902 49.8838 0.399902 47.273V4.72752Z" fill="#0099DF"/>
<path d="M69.9698 38.8153H12.3389C11.654 38.8153 11.0986 38.2634 11.0986 37.5821C11.0986 36.9009 11.654 36.3489 12.3389 36.3489H69.9698C70.6547 36.3489 71.21 36.9008 71.21 37.5821C71.21 38.2634 70.6548 38.8153 69.9698 38.8153Z" fill="#F5F5F5"/>
<path d="M69.9698 44.7782H12.3389C11.654 44.7782 11.0986 44.2263 11.0986 43.545C11.0986 42.8638 11.654 42.3118 12.3389 42.3118H69.9698C70.6547 42.3118 71.21 42.8637 71.21 43.545C71.21 44.2263 70.6548 44.7782 69.9698 44.7782Z" fill="#F5F5F5"/>
<path d="M50.652 14.1765H51.9501C52.5905 13.5395 53.3031 12.9498 54.0691 12.4948C54.3443 12.3402 54.6298 12.1993 54.9276 12.0739C55.9505 11.6078 57.0579 11.3932 58.2074 11.3878C59.3569 11.3932 60.4647 11.6077 61.5302 12.0739C62.6093 12.5457 63.5588 13.2327 64.4214 14.1336L64.4431 14.1763H66.9895L66.9247 14.048C65.9321 12.6747 64.6378 11.5161 63.0837 10.7436C61.5301 9.8853 59.9332 9.4563 58.2502 9.4563C56.5675 9.4563 54.9274 9.84275 53.3735 10.6581C51.8199 11.4729 50.5254 12.5887 49.533 14.005L49.4468 14.1765H49.9212H50.652Z" fill="#F5F5F5"/>
<path d="M51.0405 16.2327V21.0817V26.6171H53.1984V19.837V16.7049V16.2327V15.8894H51.0405V16.2327Z" fill="#F5F5F5"/>
<path d="M63.564 15.8894V16.6189V20.2664V26.6171H65.7214V21.7682V15.8894H63.564Z" fill="#F5F5F5"/>
<path d="M49.644 17.4611L49.6204 17.4376C48.628 16.2363 47.3764 15.6355 45.8657 15.6355C44.2689 15.6355 42.9745 16.1073 41.9385 17.0516C40.8165 18.0816 40.2554 19.4119 40.2554 21.1279C40.2554 22.8443 40.8165 24.1746 41.9385 25.2045C42.9744 26.1487 44.2689 26.6207 45.8657 26.6207C47.3764 26.6207 48.6278 26.0198 49.6204 24.8184L49.6638 24.7755L49.0379 24.0246L48.4556 23.3164C48.4543 23.3179 48.453 23.3194 48.4518 23.3207L48.4124 23.2736L48.369 23.3164C47.5489 24.0888 46.6858 24.518 45.78 24.518C44.8305 24.518 44.0104 24.1747 43.4061 23.5314C42.759 22.8876 42.4569 22.0723 42.4569 21.0853C42.4569 20.0982 42.7588 19.2829 43.4061 18.6394C44.0538 17.9954 44.8305 17.6953 45.78 17.6953C46.686 17.6953 47.5489 18.1244 48.369 18.8969L48.4124 18.9399L49.664 17.4809L49.6494 17.4666L49.664 17.4378L49.644 17.4611Z" fill="#F5F5F5"/>
<path d="M60.1961 24.6038C59.5058 24.6038 59.2469 24.2174 59.2469 23.4021V18.8537V17.6092H61.4047V15.8928H59.2469V14.6056V12.5032L57.089 13.6615V15.8928H54.9312V17.6092H57.089V18.8537V23.7885C57.089 24.604 57.2181 25.2902 57.6929 25.7623C58.1247 26.2771 58.6858 26.5346 59.4192 26.5346C60.1527 26.5346 60.8003 26.4061 61.3613 26.0625H61.4047V26.0195L61.8791 24.0029L61.7495 24.0884C61.1456 24.432 60.7138 24.6038 60.1961 24.6038Z" fill="#F5F5F5"/>
<path d="M27.2631 22.5436C27.2631 23.14 26.7764 23.6232 26.1773 23.6232H12.7044C12.1046 23.6232 11.6187 23.14 11.6187 22.5436V12.1042C11.6187 11.5078 12.1046 11.0249 12.7044 11.0249H26.1773C26.7765 11.0249 27.2631 11.508 27.2631 12.1042V22.5436Z" fill="#FFC715"/>
<path d="M15.8308 23.6234H18.3112V22.3902V12.2581V11.0249H15.8308V12.2581V13.991H12.8589H11.6187V16.4574H12.8589H15.8308V18.1909H12.8589H11.6187V20.6573H12.8589H15.8308V22.3902V23.6234Z" fill="#F89900"/>
<path d="M26.019 16.4574H27.2593V13.991H26.019H23.6537V12.2581V11.0249H21.1733V12.2581V19.4242C21.1733 20.1054 21.7284 20.6575 22.4136 20.6575H26.0191H27.2594V18.191H26.0191H23.6539V16.4574H26.019Z" fill="#F89900"/>
</svg>
