<svg width="84" height="52" viewBox="0 0 84 52" fill="none" xmlns="http://www.w3.org/2000/svg">
<path d="M0 4.72752C0 2.11671 2.12857 0.000244141 4.75429 0.000244141H78.4457C81.0714 0.000244141 83.2 2.11672 83.2 4.72752V47.273C83.2 49.8838 81.0714 52.0002 78.4457 52.0002H4.75428C2.12857 52.0002 0 49.8838 0 47.273V4.72752Z" fill="#306FC5"/>
<path d="M15.1602 19.721H17.4415L16.3011 16.8501L15.1602 19.721Z" fill="#F5F5F5"/>
<path d="M27.2969 29.3569V30.6901H31.1338V32.1258H27.2969V33.6642H31.5484L33.5185 31.5105L31.6522 29.3569H27.2969Z" fill="#F5F5F5"/>
<path d="M57.2679 16.8501L56.0234 19.721H58.4087L57.2679 16.8501Z" fill="#F5F5F5"/>
<path d="M38.3989 34.4863V28.6421L35.7026 31.5132L38.3989 34.4863Z" fill="#F5F5F5"/>
<path d="M43.4709 30.2801C43.3671 29.665 42.9519 29.3569 42.3295 29.3569H40.1523V31.2025H42.4339C43.0559 31.2026 43.4709 30.8952 43.4709 30.2801Z" fill="#F5F5F5"/>
<path d="M50.7237 30.9966C50.9311 30.8938 51.0352 30.5859 51.0352 30.2789C51.139 29.8692 50.9311 29.6638 50.7237 29.5611C50.5168 29.4585 50.2053 29.4585 49.8947 29.4585H47.8203V31.0992H49.8945C50.2052 31.0992 50.5167 31.0992 50.7237 30.9966Z" fill="#F5F5F5"/>
<path d="M65.6617 14.1841V15.4144L65.04 14.1841H60.1668V15.4144L59.5443 14.1841H52.9078C51.7673 14.1841 50.8336 14.3893 50.0044 14.7994V14.1841H45.3384V14.2867V14.7994C44.82 14.3895 44.1978 14.1841 43.3682 14.1841H26.6733L25.5322 16.7474L24.3918 14.1841H20.659H19.1034V15.4144L18.5849 14.1841H18.4811H14.0223L11.9481 19.0029L9.56337 24.2319L9.51953 24.3346H9.56337H14.8519H14.9181L14.9557 24.2319L15.5782 22.6942H16.9261L17.5483 24.3346H23.562V24.2319V23.1043L24.0809 24.3345H27.0877L27.606 23.1043V24.2319V24.3346H29.991H41.916H42.0198V21.6687H42.2277C42.4348 21.6687 42.4348 21.6687 42.4348 21.9764V24.232H49.9009V23.6168C50.5231 23.9249 51.4557 24.232 52.7002 24.232H55.8115L56.4336 22.5919H57.885L58.5071 24.232H64.5212V23.2069V22.6944L65.4549 24.232H65.6617H65.7658H70.3284V14.1841H65.662H65.6617ZM30.5098 22.797H29.4726H28.8506V22.1823V17.1576L28.7468 17.3928V17.39L26.3345 22.797H26.2581H25.7035H24.8062L22.3177 17.1576V22.797H18.7923L18.0665 21.2591H14.5405L13.8146 22.797H11.9918L15.0593 15.6197H17.6515L20.5549 22.4891V15.6197H21.1769H23.3021L23.351 15.7225H23.3546L24.6629 18.5379L25.6024 20.6474L25.6357 20.5411L27.7095 15.6198H30.5096V22.797H30.5098ZM37.665 17.1576H33.6207V18.4905H37.5612V19.9258H33.6207V21.3617H37.665V22.8992H31.8581V15.6198H37.665V17.1576ZM45.061 19.8015C45.0637 19.8038 45.0671 19.8055 45.0704 19.8077C45.1096 19.8487 45.1431 19.8898 45.1718 19.9292C45.3704 20.1866 45.531 20.5696 45.5391 21.1311C45.5397 21.1408 45.5401 21.1504 45.5407 21.1601C45.5407 21.1657 45.5418 21.1706 45.5418 21.1763C45.5418 21.1796 45.5415 21.1821 45.5415 21.1852C45.5439 21.2417 45.5453 21.2993 45.5453 21.3617V22.7971H43.9902V21.9766C43.9902 21.5665 43.9902 20.9512 43.6787 20.5411C43.5807 20.4442 43.4816 20.3804 43.3736 20.335C43.2182 20.2354 42.9237 20.2338 42.4348 20.2338H40.5677V22.7971H38.8053V15.6198H42.7461C43.6787 15.6198 44.3012 15.6198 44.8198 15.9274C45.3279 16.2291 45.6348 16.7294 45.6465 17.5217C45.6224 18.6129 44.9141 19.2115 44.4048 19.4134C44.4048 19.4134 44.7508 19.4822 45.061 19.8015ZM48.5528 22.797H46.7898V15.6197H48.5528V22.797ZM68.7734 22.797H66.4917L63.1736 17.3626V21.8739L63.1628 21.8633V22.8014H61.411V22.7971H59.648L59.0258 21.2592H55.3962L54.774 22.8993H52.8039C51.9749 22.8993 50.9372 22.6945 50.3154 22.0793C49.6932 21.4642 49.3824 20.6439 49.3824 19.3112C49.3824 18.2859 49.5896 17.26 50.3154 16.44C50.8334 15.8244 51.7671 15.6198 52.9075 15.6198H54.567V17.1576H52.9075C52.2853 17.1576 51.9749 17.2598 51.5592 17.568C51.2488 17.8754 51.0412 18.4905 51.0412 19.2081C51.0412 20.0286 51.145 20.5411 51.5592 20.9512C51.8711 21.2592 52.2855 21.3618 52.8039 21.3618H53.5297L55.9144 15.7228H56.9519H58.507L61.4108 22.5922V22.2418V19.9261V19.7213V15.7229H64.0029L67.0095 20.7467V15.7229H68.7731V22.7973H68.7734V22.797Z" fill="#F5F5F5"/>
<path d="M43.5778 18.6062C43.608 18.5742 43.6355 18.5379 43.6587 18.4963C43.7527 18.3493 43.8604 18.0845 43.8024 17.7231C43.8 17.6899 43.7939 17.6592 43.7867 17.6296C43.7848 17.6213 43.7851 17.6141 43.7828 17.6058L43.7818 17.606C43.7302 17.4304 43.5985 17.3224 43.4671 17.257C43.2592 17.1548 42.9481 17.1548 42.6372 17.1548H40.563V18.7955H42.6372C42.9481 18.7955 43.2594 18.7955 43.4671 18.6927C43.4983 18.6771 43.526 18.6559 43.5527 18.6318L43.553 18.6332C43.5532 18.633 43.5637 18.6221 43.5778 18.6062Z" fill="#F5F5F5"/>
<path d="M74.8944 33.0494C74.8944 32.3317 74.6872 31.6138 74.3763 31.1012V26.4875H74.3715V26.1795C74.3715 26.1795 70.0252 26.1795 69.3783 26.1795C68.7317 26.1795 67.9469 26.7945 67.9469 26.7945V26.1795H63.1772C62.451 26.1795 61.5183 26.3848 61.103 26.7945V26.1795H52.6003V26.4875V26.7944C51.9786 26.2821 50.837 26.1793 50.3189 26.1793H44.7193V26.4874V26.7942C44.2009 26.282 42.956 26.1792 42.3335 26.1792H36.1128L34.6607 27.7173L33.3126 26.1792H32.8785H32.1721H23.9805V26.4872V27.2972V36.5353H33.1056L34.605 35.0524L35.9046 36.5353H36.0087H41.2667H41.505H41.6088H41.712V35.5101V34.1772H42.2308C42.956 34.1772 43.8897 34.1772 44.6155 33.8692V36.4322V36.6378H49.2819V36.4322V33.9718H49.4887C49.8003 33.9718 49.8003 33.9718 49.8003 34.2794V36.4322V36.6378H63.9023C64.8363 36.6378 65.7689 36.4322 66.2873 36.0222V36.4322V36.6378H70.7465C71.6792 36.6378 72.6132 36.5353 73.2353 36.125C74.1901 35.5586 74.7918 34.556 74.8813 33.3603C74.8854 33.325 74.8907 33.2896 74.8939 33.254L74.8878 33.2483C74.8917 33.1819 74.8944 33.1163 74.8944 33.0494ZM42.2309 32.4343H40.1566V32.7412V33.3567V33.972V35.0999H36.7482L34.7645 32.844L34.7577 32.8515L34.6607 32.7412L32.3795 35.0999H25.7432V27.9228H32.4833L34.3248 29.9172L34.7119 30.3347L34.7644 30.2809L36.9423 27.923H42.4379C43.5045 27.923 44.6989 28.1832 45.1515 29.2563C45.2059 29.4687 45.2375 29.705 45.2375 29.9733C45.2375 32.0238 43.7858 32.4343 42.2309 32.4343ZM52.6003 32.3316C52.8074 32.6384 52.9112 33.0492 52.9112 33.6647V35.0997H51.1487V34.1772C51.1487 33.7664 51.1487 33.0492 50.8371 32.7412C50.6303 32.4343 50.215 32.4343 49.5933 32.4343H47.7269V35.0999H45.9642V27.8202H49.9043C50.7334 27.8202 51.4592 27.8202 51.9786 28.1275C52.4966 28.4354 52.9112 28.9481 52.9112 29.7684C52.9112 30.8959 52.1857 31.5111 51.667 31.7165C52.1857 31.9208 52.4966 32.1265 52.6003 32.3316ZM59.7555 29.3576H55.7108V30.6905H59.6514V32.1263H55.7108V33.5619H59.7555V35.0997H53.9486V27.8201H59.7555V29.3576ZM64.1103 35.0999H60.7919V33.5621H64.1103C64.4208 33.5621 64.6287 33.5621 64.8366 33.3568C64.9404 33.254 65.0434 33.0494 65.0434 32.8441C65.0434 32.6386 64.9404 32.4345 64.8366 32.3317C64.7325 32.2292 64.5247 32.1266 64.2138 32.1266C62.5546 32.024 60.5845 32.1266 60.5845 29.8711C60.5845 28.8458 61.2066 27.7177 63.0733 27.7177H66.495V29.4605H63.2807C62.9698 29.4605 62.762 29.4605 62.5545 29.5631C62.3476 29.6659 62.3476 29.8711 62.3476 30.076C62.3476 30.3837 62.5545 30.4863 62.7619 30.5881C62.9698 30.6908 63.1769 30.6908 63.3841 30.6908H64.3175C65.2508 30.6908 65.8729 30.8959 66.2876 31.3062C66.5988 31.6139 66.8063 32.1266 66.8063 32.8441C66.8063 34.3816 65.873 35.0999 64.1103 35.0999ZM73.028 34.3816C72.6138 34.7923 71.8875 35.0999 70.8502 35.0999H67.5327V33.5621H70.85C71.1613 33.5621 71.3691 33.5621 71.5763 33.3568C71.6796 33.254 71.7837 33.0494 71.7837 32.8441C71.7837 32.6386 71.6796 32.4345 71.5763 32.3317C71.4725 32.2292 71.2653 32.1266 70.9541 32.1266C69.2955 32.024 67.3248 32.1266 67.3248 29.8713C67.3248 28.8968 67.8886 28.0165 69.2793 27.755C69.4455 27.7323 69.6212 27.7177 69.8136 27.7177H73.2358V29.4605H70.9541H70.1248H70.021C69.7098 29.4605 69.5026 29.4605 69.2955 29.5631C69.1911 29.6659 69.0873 29.8711 69.0873 30.076C69.0873 30.3837 69.1911 30.4863 69.5026 30.5881C69.7098 30.6908 69.9172 30.6908 70.1248 30.6908H70.2279H71.0578C71.511 30.6908 71.8537 30.7461 72.1673 30.8551C72.4545 30.9579 73.4053 31.3784 73.618 32.4762C73.6365 32.5912 73.6501 32.7113 73.6501 32.8441C73.6501 33.4594 73.4426 33.972 73.028 34.3816Z" fill="#F5F5F5"/>
</svg>
