<svg width="84" height="52" viewBox="0 0 84 52" fill="none" xmlns="http://www.w3.org/2000/svg">
<path d="M0.600098 4.72752C0.600098 2.11671 2.72866 0.000244141 5.35438 0.000244141H79.0458C81.6715 0.000244141 83.8001 2.11672 83.8001 4.72752V47.273C83.8001 49.8838 81.6715 52.0002 79.0458 52.0002H5.35438C2.72866 52.0002 0.600098 49.8838 0.600098 47.273V4.72752Z" fill="#253B80"/>
<g clip-path="url(#clip0_55_2954)">
<path d="M20.4634 18.0984H16.0138C15.709 18.0984 15.4509 18.3236 15.4042 18.6288L13.6047 30.2398C13.5727 30.4449 13.7104 30.6376 13.9145 30.6701C13.9341 30.6726 13.9538 30.6751 13.9735 30.6751H16.095C16.3998 30.6751 16.6579 30.4499 16.7046 30.1447L17.1889 27.0124C17.2356 26.7072 17.4938 26.482 17.7986 26.482H19.2072C22.1375 26.482 23.8288 25.0385 24.2713 22.1789C24.4704 20.928 24.2787 19.9447 23.7035 19.2567C23.0741 18.4987 21.9531 18.0984 20.4634 18.0984ZM20.9772 22.339C20.7338 23.9627 19.5145 23.9627 18.3345 23.9627H17.6634L18.1354 20.928C18.1649 20.7453 18.3197 20.6102 18.5017 20.6102H18.809C19.6128 20.6102 20.37 20.6102 20.7609 21.0756C20.9944 21.3533 21.0657 21.7661 20.9772 22.3365V22.339ZM33.7629 22.2865H31.6315C31.4496 22.2865 31.2947 22.4216 31.2652 22.6042L31.1718 23.2096L31.0218 22.9895C30.5597 22.309 29.5321 22.0813 28.5045 22.0813C26.1495 22.0813 24.1386 23.8951 23.7477 26.442C23.5437 27.7129 23.8337 28.9263 24.5417 29.7719C25.1907 30.55 26.12 30.8752 27.2262 30.8752C29.124 30.8752 30.1762 29.6343 30.1762 29.6343L30.0803 30.2373C30.0484 30.4424 30.186 30.6376 30.3876 30.6701C30.4073 30.6726 30.4269 30.6751 30.4466 30.6751H32.3665C32.6714 30.6751 32.9295 30.4499 32.9762 30.1447L34.1267 22.7243C34.1587 22.5191 34.021 22.3265 33.8194 22.294C33.7997 22.2915 33.7801 22.289 33.7604 22.289L33.7629 22.2865ZM30.7932 26.507C30.5867 27.7455 29.6206 28.5761 28.389 28.5761C27.7695 28.5761 27.2754 28.3734 26.9583 27.9906C26.6436 27.6104 26.5231 27.07 26.6239 26.467C26.8157 25.2386 27.799 24.3805 29.0109 24.3805C29.6157 24.3805 30.1074 24.5856 30.4319 24.9709C30.7563 25.3612 30.8842 25.9041 30.7932 26.5045V26.507ZM45.1104 22.2865H42.9692C42.7652 22.2865 42.5735 22.389 42.4579 22.5617L39.5055 26.9874L38.2542 22.7343C38.1755 22.4691 37.9346 22.2865 37.6617 22.2865H35.5574C35.3534 22.2865 35.1862 22.4541 35.1862 22.6617C35.1862 22.7043 35.1936 22.7443 35.2059 22.7843L37.5634 29.827L35.346 33.0118C35.228 33.1819 35.2673 33.4171 35.4345 33.5372C35.4984 33.5822 35.5722 33.6073 35.6484 33.6073H37.7871C37.9887 33.6073 38.1805 33.5072 38.296 33.3371L45.4177 22.8769C45.5333 22.7068 45.4939 22.4716 45.3243 22.3515C45.2628 22.3065 45.1891 22.284 45.1129 22.284L45.1104 22.2865Z" fill="white"/>
<path d="M52.1968 18.1009H47.7473C47.4424 18.1009 47.1843 18.3261 47.1376 18.6313L45.3381 30.2423C45.3061 30.4474 45.4438 30.6401 45.6454 30.6726C45.6651 30.6751 45.6847 30.6776 45.7044 30.6776H47.9882C48.202 30.6776 48.3815 30.52 48.4159 30.3048L48.9272 27.0149C48.9739 26.7097 49.2321 26.4845 49.5369 26.4845H50.9455C53.8758 26.4845 55.5671 25.041 56.0096 22.1814C56.2088 20.9305 56.017 19.9472 55.4418 19.2592C54.8051 18.5012 53.6865 18.1009 52.1968 18.1009ZM52.7106 22.3415C52.4672 23.9652 51.2479 23.9652 50.0679 23.9652H49.3968L49.8688 20.9305C49.8958 20.7478 50.0531 20.6127 50.2351 20.6127H50.5424C51.3462 20.6127 52.1034 20.6127 52.4943 21.0781C52.7278 21.3558 52.7991 21.7686 52.7106 22.339V22.3415ZM65.4963 22.289H63.3674C63.1854 22.289 63.0306 22.4241 63.0011 22.6067L62.9077 23.2121L62.7577 22.992C62.2955 22.3115 61.268 22.0838 60.2429 22.0838C57.8878 22.0838 55.8793 23.8976 55.486 26.4445C55.282 27.7154 55.5721 28.9288 56.2801 29.7744C56.9315 30.5525 57.8583 30.8777 58.9645 30.8777C60.8623 30.8777 61.9145 29.6368 61.9145 29.6368L61.8186 30.2398C61.7867 30.4449 61.9243 30.6401 62.1259 30.6726C62.1456 30.6751 62.1653 30.6776 62.1849 30.6776H64.1024C64.4072 30.6776 64.6654 30.4524 64.7121 30.1472L65.865 22.7268C65.897 22.5216 65.7568 22.3265 65.5553 22.2965C65.5356 22.294 65.5184 22.2915 65.4987 22.2915L65.4963 22.289ZM62.5266 26.5095C62.3226 27.748 61.354 28.5786 60.1224 28.5786C59.5054 28.5786 59.0088 28.3759 58.6917 27.9931C58.377 27.6129 58.259 27.0725 58.3573 26.4695C58.5515 25.2411 59.5324 24.383 60.7443 24.383C61.3491 24.383 61.8408 24.5881 62.1652 24.9734C62.4922 25.3637 62.62 25.9066 62.5266 26.507V26.5095ZM68.0062 18.4211L66.1797 30.2448C66.1477 30.4499 66.2854 30.6426 66.487 30.6751C66.5066 30.6776 66.5263 30.6801 66.546 30.6801H68.3823C68.6872 30.6801 68.9453 30.4549 68.992 30.1497L70.7939 18.5362C70.8259 18.3311 70.6882 18.1359 70.4866 18.1034C70.467 18.1009 70.4498 18.0984 70.4301 18.0984H68.3749C68.193 18.0984 68.0382 18.2335 68.0087 18.4186L68.0062 18.4211Z" fill="white"/>
</g>
<defs>
<clipPath id="clip0_55_2954">
<rect width="57.2" height="15.5114" fill="white" transform="translate(13.6001 18.0984)"/>
</clipPath>
</defs>
</svg>
