<svg width="32" height="32" viewBox="0 0 32 32" fill="none" xmlns="http://www.w3.org/2000/svg">
<g clip-path="url(#clip0_55_2895)">
<path d="M31.718 15.4096L30.1513 10.6876C29.7447 9.46029 28.618 8.66695 27.282 8.66695H23.0873L23.2407 7.41695C23.3087 6.87695 23.1487 6.34228 22.8027 5.94962C22.4573 5.55828 21.95 5.33362 21.4093 5.33362H5.25133C4.18467 5.33362 3.21667 6.19562 3.09333 7.24895L3.008 7.91562C2.962 8.28095 3.21933 8.61495 3.58467 8.66162C3.95467 8.71495 4.28467 8.45028 4.33067 8.08495L4.41667 7.41095C4.46267 7.01428 4.85267 6.66695 5.25133 6.66695H21.4093C21.5693 6.66695 21.7087 6.72562 21.8027 6.83162C21.898 6.93962 21.9387 7.08762 21.918 7.25295L20.3567 20.001H2.85533C2.85533 19.6703 2.61867 19.381 2.282 19.3396C1.916 19.293 1.58333 19.5536 1.53867 19.919L1.29 21.9236C1.226 22.4656 1.38933 23.001 1.738 23.3923C2.08667 23.785 2.57867 24.001 3.122 24.001H4.41267C4.42267 24.663 4.64133 25.2803 5.072 25.7656C5.586 26.347 6.318 26.6676 7.13133 26.6676C8.65667 26.6676 10.0433 25.491 10.3553 24.001H21.9067C21.9167 24.663 22.1353 25.2796 22.5647 25.765C23.0793 26.347 23.8113 26.6676 24.6253 26.6676C26.15 26.6676 27.5367 25.491 27.8493 24.001H29.2847C30.3633 24.001 31.3113 23.1576 31.4427 22.0823L31.9547 17.907C32.0607 17.0423 31.9813 16.2023 31.7187 15.4103L31.718 15.4096ZM30.288 15.3336H26.2707L26.5873 12.7483C26.592 12.7143 26.6467 12.667 26.674 12.667H29.4033L30.288 15.3336ZM22.9247 10.0003H27.2827C28.046 10.0003 28.6593 10.4243 28.886 11.1076L28.9613 11.3336H26.674C25.9693 11.3336 25.3507 11.8836 25.2647 12.5856L24.938 15.2523C24.8933 15.6176 25.0033 15.9803 25.24 16.2476C25.476 16.5136 25.8193 16.6663 26.184 16.6663H30.6333C30.674 17.017 30.6767 17.3763 30.6313 17.7436L30.3547 19.9996H21.6993L22.924 9.99962L22.9247 10.0003ZM22.1913 22.667H21.3727L21.536 21.3336H23.2787C22.812 21.6796 22.434 22.1376 22.1913 22.667ZM20.03 22.667H10.3373C10.232 22.2623 10.044 21.887 9.76333 21.5696C9.68467 21.481 9.59267 21.4103 9.50467 21.3336H20.194L20.03 22.667ZM4.69133 22.667H3.12133C2.96133 22.667 2.82733 22.611 2.73333 22.5056C2.636 22.397 2.594 22.245 2.61267 22.0823L2.70533 21.3336H5.762C5.29933 21.6776 4.928 22.1343 4.69067 22.667H4.69133ZM9.08867 23.5856C8.97267 24.5336 8.076 25.3336 7.13067 25.3336C6.704 25.3336 6.328 25.173 6.06933 24.881C5.80667 24.585 5.692 24.1823 5.74467 23.7483C5.86133 22.8003 6.758 22.0003 7.70333 22.0003C8.13 22.0003 8.50667 22.161 8.76467 22.453C9.02733 22.749 9.142 23.1516 9.08867 23.5856ZM26.5827 23.5856C26.466 24.5336 25.5693 25.3336 24.6247 25.3336C24.198 25.3336 23.8213 25.173 23.5627 24.881C23.3 24.585 23.1853 24.1823 23.2387 23.7483C23.3553 22.8003 24.252 22.0003 25.1967 22.0003C25.6233 22.0003 26 22.161 26.2587 22.453C26.5213 22.749 26.636 23.1516 26.5827 23.5856ZM29.2847 22.667H27.8313C27.726 22.2623 27.538 21.887 27.2573 21.5696C27.1787 21.481 27.0867 21.4103 26.9987 21.3336H30.192L30.12 21.919C30.0713 22.3176 29.6807 22.667 29.2847 22.667Z" fill="#C94430"/>
<path d="M6.02 17.3335C6.02 16.9649 5.722 16.6669 5.35333 16.6669H0.666667C0.298 16.6669 0 16.9649 0 17.3335C0 17.7022 0.298 18.0002 0.666667 18.0002H5.35333C5.722 18.0002 6.02 17.7022 6.02 17.3335Z" fill="#C94430"/>
<path d="M2.72477 13.3336C2.35611 13.3336 2.05811 13.6323 2.05811 14.0003C2.05811 14.3683 2.35611 14.667 2.72477 14.667H5.76544C6.13411 14.667 6.43211 14.3683 6.43211 14.0003C6.43211 13.6323 6.13411 13.3336 5.76544 13.3336H2.72477Z" fill="#C94430"/>
<path d="M1.44987 11.3336H6.83654C7.2052 11.3336 7.5032 11.0349 7.5032 10.6669C7.5032 10.2989 7.2052 10.0002 6.83654 10.0002H1.44987C1.0812 10.0002 0.783203 10.2989 0.783203 10.6669C0.783203 11.0349 1.0812 11.3336 1.44987 11.3336Z" fill="#C94430"/>
</g>
<defs>
<clipPath id="clip0_55_2895">
<rect width="32" height="32" fill="white" transform="translate(0 0.000244141)"/>
</clipPath>
</defs>
</svg>
