<svg width="84" height="52" viewBox="0 0 84 52" fill="none" xmlns="http://www.w3.org/2000/svg">
<path d="M0.200195 4.72752C0.200195 2.11671 2.32876 0.000244141 4.95448 0.000244141H78.6459C81.2716 0.000244141 83.4002 2.11672 83.4002 4.72752V47.273C83.4002 49.8838 81.2716 52.0002 78.6459 52.0002H4.95448C2.32876 52.0002 0.200195 49.8838 0.200195 47.273V4.72752Z" fill="#F5F5F5"/>
<path d="M22.7841 27.1805L21.2372 18.1998C20.9728 16.9614 20.2034 16.5929 19.242 16.5442H12.1501L12.0869 16.9545C17.6105 18.5751 21.2653 22.4847 22.7841 27.1805Z" fill="#F79F1A"/>
<path d="M39.4254 16.5442H35.0356L32.2939 35.4533H36.6765L39.4254 16.5442Z" fill="#059BBF"/>
<path d="M26.0551 35.4469L33.4803 16.5442H28.4837L23.8645 29.4588L23.3715 27.5089C22.4661 25.1631 19.8783 21.7868 16.8403 19.6613L21.0627 35.4533L26.0551 35.4469Z" fill="#059BBF"/>
<path d="M52.9897 29.1927C53.0074 27.1122 51.7362 25.5252 48.9969 24.2145C47.3321 23.3679 46.3174 22.8034 46.3296 21.9443C46.3296 21.1853 47.1889 20.37 49.0507 20.37C50.6086 20.3449 51.7303 20.7023 52.6076 21.0724L53.0375 21.2795L53.6823 17.3095C52.7392 16.9393 51.265 16.5442 49.4212 16.5442C44.7242 16.5442 41.4181 19.028 41.3881 22.5902C41.3582 25.2245 43.7518 26.6921 45.5539 27.57C47.4038 28.4649 48.0245 29.0376 48.0126 29.8403C48.0007 31.0678 46.5384 31.6276 45.1718 31.6276C43.268 31.6276 42.2593 31.3517 40.695 30.6669L40.0872 30.3734L39.4194 34.4799C40.5287 34.9894 42.5814 35.4347 44.7123 35.4533C49.7072 35.4533 52.9539 33.0011 52.9897 29.1927Z" fill="#059BBF"/>
<path d="M59.5219 32.6105C60.0514 32.6105 64.7816 32.617 65.4567 32.617C65.5964 33.2759 66.0211 35.4533 66.0211 35.4533H70.3207L66.5679 16.5442H62.9898C61.8784 16.5442 61.0525 16.8809 60.5635 18.1111L53.6807 35.4533H58.5508C58.5504 35.4533 59.3416 33.1224 59.5219 32.6105ZM62.6985 23.4472C62.6756 23.4989 63.0828 22.3528 63.3155 21.6405L63.6295 23.2722C63.6295 23.2722 64.5142 27.7925 64.7001 28.738H60.8542C61.2383 27.6502 62.6985 23.4472 62.6985 23.4472Z" fill="#059BBF"/>
<path d="M0.200195 4.00025C0.200195 1.79111 1.99106 0.000244141 4.2002 0.000244141H79.4002C81.6093 0.000244141 83.4002 1.79111 83.4002 4.00024V9.45479H0.200195V4.00025Z" fill="#059BBF"/>
<path d="M0.200195 4.72752C0.200195 2.11672 2.32876 0.000244141 4.95448 0.000244141H78.6459C81.2716 0.000244141 83.4002 2.11672 83.4002 4.72752V9.45479H0.200195V4.72752Z" fill="#059BBF"/>
<path d="M0.200195 47.2715C0.200195 49.8823 2.32876 51.9987 4.95448 51.9987H78.6459C81.2716 51.9987 83.4002 49.8823 83.4002 47.2715V42.5442H0.200195V47.2715Z" fill="#F79F1A"/>
</svg>
